<svg width="178" height="153" viewBox="0 0 178 153" fill="none" xmlns="http://www.w3.org/2000/svg">
<g clip-path="url(#clip0_10774_11929)">
<path d="M56.5965 49.0267C56.5884 49.0163 56.5796 49.0065 56.57 48.9974C56.1809 48.6119 55.765 48.2542 55.3256 47.9272L55.3005 47.9105C48.4774 55.8294 44.7284 65.9373 44.7374 76.3903V84.385C44.8768 85.1626 45.0329 85.9333 45.2113 86.6983C45.561 88.1824 45.9777 89.6248 46.4529 91.01V76.3903C46.4429 66.3477 50.0429 56.6362 56.5965 49.0267Z" fill="#202924"/>
<path d="M131.285 88.0955L131.116 88.2516C131.008 88.3506 130.899 88.4397 130.79 88.5303V92.4754C131.258 91.2589 131.676 90.0089 132.044 88.7449C132.212 88.1736 132.366 87.5785 132.513 86.9723V86.8971C132.11 87.3082 131.704 87.7109 131.285 88.0955Z" fill="#202924"/>
<path d="M88.5388 32.5826C84.5065 32.5799 80.4936 33.139 76.6156 34.2437C77.0044 34.613 77.3988 35.0185 77.7945 35.4714C77.8475 35.5313 77.8949 35.5968 77.9478 35.6581C86.2679 33.4936 95.0504 33.9203 103.121 36.8811C111.192 39.842 118.167 45.196 123.114 52.2274C123.31 51.6699 123.493 51.1125 123.649 50.5551C123.684 50.4297 123.712 50.3126 123.744 50.1886C115.717 39.5057 102.926 32.5826 88.5388 32.5826Z" fill="#202924"/>
<path d="M126.929 91.4951C126.841 91.5508 126.755 91.5982 126.667 91.6525V100.563C127.115 99.8744 127.549 99.1693 127.96 98.4447C128.1 98.1924 128.239 97.9332 128.378 97.6768V90.4917C127.914 90.8387 127.445 91.1759 126.929 91.4951Z" fill="#202924"/>
<path d="M59.1815 52.371C59.1508 52.3209 59.1258 52.2749 59.0937 52.2317L59.0198 52.1104C58.723 51.645 58.4527 51.2534 58.1837 50.8869C52.1587 58.0211 48.8562 67.0592 48.8623 76.3971V96.7052C49.0017 96.9839 49.141 97.2626 49.2901 97.5413C49.6957 98.3008 50.1263 99.0422 50.5778 99.771V76.3901C50.5724 67.6281 53.614 59.1369 59.1815 52.371Z" fill="#202924"/>
<path d="M88.539 36.7107C85.5029 36.7097 82.4769 37.0599 79.5214 37.7545C79.8405 38.2367 80.1289 38.6993 80.3895 39.1578C80.416 39.2024 80.4425 39.2525 80.4676 39.2971C88.2154 37.6095 96.2966 38.3806 103.585 41.5029C110.874 44.6253 117.008 49.9434 121.131 56.7164C121.41 56.2022 121.673 55.6936 121.906 55.2002C121.949 55.1069 121.987 55.0135 122.029 54.9215C118.411 49.3309 113.451 44.7353 107.601 41.5542C101.751 38.3732 95.1979 36.708 88.539 36.7107Z" fill="#202924"/>
<path d="M122.72 93.6852C122.661 93.7103 122.597 93.7326 122.539 93.7563V106.019C122.994 105.502 123.444 104.977 123.876 104.443C124.005 104.282 124.126 104.114 124.254 103.951V92.9982C123.737 93.2462 123.223 93.4789 122.72 93.6852Z" fill="#202924"/>
<path d="M88.5391 40.84C86.2154 40.8432 83.8978 41.0766 81.6201 41.5367C81.8389 42.005 82.0577 42.5248 82.2584 43.0696C82.2695 43.0975 82.2779 43.1268 82.289 43.1533C89.4175 41.8096 96.789 42.7821 103.325 45.9283C109.861 49.0746 115.22 54.2296 118.616 60.6394C118.974 60.1628 119.297 59.7141 119.591 59.2863C119.637 59.218 119.678 59.1469 119.731 59.0814C116.619 53.5457 112.09 48.9382 106.608 45.7323C101.126 42.5265 94.8895 40.8378 88.5391 40.84Z" fill="#202924"/>
<path d="M61.1803 56.5191C61.144 56.416 61.1134 56.3059 61.0758 56.2028C60.8946 55.7094 60.6744 55.1938 60.4264 54.6699C55.5996 60.8822 52.9825 68.5268 52.989 76.3938V103.289C53.1172 103.459 53.2413 103.639 53.3723 103.805C53.7903 104.362 54.246 104.903 54.7045 105.434V76.391C54.6976 69.2474 56.9658 62.2871 61.1803 56.5191Z" fill="#202924"/>
<path d="M88.5384 44.9637C86.6939 44.9637 84.853 45.1293 83.0381 45.4585C83.2025 46.073 83.3321 46.6137 83.4339 47.107V47.1265C89.9178 45.9899 96.5956 47.0287 102.428 50.081C108.26 53.1334 112.92 58.0283 115.682 64.0037C116.061 63.6205 116.441 63.2219 116.816 62.8108L116.943 62.6715C114.338 57.3588 110.296 52.8831 105.275 49.7529C100.254 46.6227 94.4553 44.9635 88.5384 44.9637Z" fill="#202924"/>
<path d="M62.4772 62.1473C62.4479 61.9383 62.4215 61.7292 62.3894 61.5216C62.271 60.7691 62.1553 60.1281 62.0299 59.5428C58.8133 64.5725 57.1066 70.4191 57.1121 76.3893V108.038C57.2277 108.154 57.335 108.269 57.4521 108.384C57.8883 108.811 58.3467 109.234 58.8275 109.663V76.3893C58.8229 71.4101 60.0785 66.5107 62.4772 62.1473Z" fill="#202924"/>
<path d="M118.533 95.0788L118.41 95.1108V110.123C118.88 109.717 119.344 109.3 119.79 108.869C119.903 108.762 120.013 108.648 120.126 108.539V94.6189C119.559 94.8001 119.033 94.9394 118.533 95.0788Z" fill="#202924"/>
<path d="M88.5383 49.092C86.9718 49.0924 85.4083 49.2295 83.8657 49.5017C83.8657 49.5017 83.8657 49.5101 83.8657 49.5143C83.9549 50.0717 84.0288 50.6291 84.097 51.2005C89.9004 50.1745 95.8801 51.1709 101.037 54.0232C106.194 56.8756 110.217 61.4111 112.432 66.8722C112.805 66.5935 113.204 66.2716 113.708 65.8466C113.746 65.8145 113.784 65.7783 113.82 65.7463C111.697 60.8014 108.171 56.5878 103.677 53.6276C99.183 50.6673 93.9195 49.0903 88.5383 49.092Z" fill="#202924"/>
<path d="M63.4222 71.5278C63.3651 71.0415 63.3121 70.5635 63.2675 70.1036C63.1714 69.1825 63.092 68.2586 63.0125 67.3402L62.9693 66.8441C61.8234 69.8966 61.238 73.1308 61.2413 76.3913V110.179C61.6301 108.974 62.0426 107.771 62.5039 106.591C62.6432 106.213 62.8035 105.84 62.9568 105.466V76.3899C62.9564 74.758 63.1122 73.1299 63.4222 71.5278Z" fill="#202924"/>
<path d="M114.391 96.0544L114.288 96.0781V113.32C114.786 112.978 115.264 112.642 115.71 112.3C115.807 112.228 115.906 112.148 116.004 112.075V95.6963L114.391 96.0544Z" fill="#202924"/>
<path d="M110.294 97.0655L110.154 97.1046V115.842C110.645 115.576 111.138 115.303 111.625 115.019C111.707 114.97 111.788 114.918 111.87 114.868V96.6489C111.35 96.7785 110.825 96.9136 110.294 97.0655Z" fill="#202924"/>
<path d="M66.5131 98.144C66.5549 98.066 66.6079 97.9768 66.6608 97.8876C66.8002 97.6451 66.9395 97.3929 67.0789 97.1407V83.3724C66.9395 83.1481 66.7918 82.9223 66.6608 82.6896C66.4434 82.3217 66.226 81.9106 65.9975 81.4354C65.7689 80.9602 65.5613 80.4599 65.3662 79.9652V100.271C65.7244 99.5793 66.095 98.8812 66.5131 98.144Z" fill="#202924"/>
<path d="M88.5393 53.2133C87.1332 53.2164 85.7302 53.3465 84.3475 53.6021V53.6439L84.498 55.3162C85.8297 55.0585 87.1829 54.9278 88.5393 54.926C92.9697 54.9219 97.2946 56.2777 100.93 58.8102C104.565 61.3427 107.336 64.9298 108.867 69.0872C109.366 68.8391 109.851 68.5757 110.312 68.3012L110.386 68.2538C108.699 63.827 105.707 60.0176 101.805 57.3314C97.903 54.6451 93.2765 53.2088 88.5393 53.2133Z" fill="#202924"/>
<path d="M70.811 91.2514C70.9503 91.0661 71.0757 90.8919 71.2081 90.7121V87.7773C71.1106 87.7077 71.0102 87.6463 70.9141 87.5725C70.414 87.1896 69.9393 86.7749 69.4927 86.3308V93.1954C69.9107 92.5586 70.3455 91.9106 70.811 91.2514Z" fill="#202924"/>
<path d="M88.5391 57.3424C87.256 57.3452 85.9765 57.4759 84.7194 57.7326C84.7194 57.7479 84.7194 57.7633 84.7194 57.7786C84.7695 58.3485 84.8253 58.9046 84.8908 59.4508C86.0876 59.187 87.3094 59.0534 88.5349 59.0523C92.1359 59.0482 95.6506 60.1547 98.6 62.2207C101.549 64.2868 103.79 67.212 105.016 70.5978H105.043C105.674 70.4041 106.181 70.2341 106.637 70.0585C105.297 66.333 102.84 63.1122 99.6006 60.8361C96.3612 58.5601 92.4981 57.3399 88.5391 57.3424Z" fill="#202924"/>
<path d="M106.221 98.4606C106.157 98.4871 106.1 98.515 106.036 98.5414V117.809C106.546 117.598 107.051 117.379 107.551 117.154L107.753 117.057V97.8767C107.25 98.0551 106.74 98.2497 106.221 98.4606Z" fill="#202924"/>
<path d="M88.5395 61.4662C87.4257 61.4684 86.3156 61.595 85.2299 61.8438V61.8717C85.3288 62.4528 85.4347 62.9963 85.5545 63.5314C86.5313 63.3001 87.5316 63.1827 88.5353 63.1816C91.221 63.1768 93.8459 63.9808 96.068 65.4891C98.2902 66.9974 100.007 69.1399 100.994 71.6377L101.063 71.6223C101.61 71.4997 102.148 71.3733 102.68 71.2433C101.599 68.3677 99.6654 65.8908 97.1385 64.1436C94.6116 62.3964 91.6116 61.4623 88.5395 61.4662Z" fill="#202924"/>
<path d="M102.151 100.478C102.071 100.524 101.988 100.574 101.907 100.618V119.291C102.465 119.125 102.971 118.959 103.461 118.787L103.623 118.728V99.6769C103.121 99.9347 102.627 100.204 102.151 100.478Z" fill="#202924"/>
<path d="M99.1691 102.402C98.7984 102.664 98.4319 102.929 98.0835 103.2C97.9804 103.278 97.887 103.354 97.7853 103.432V120.341C98.3608 120.226 98.8862 120.11 99.3823 119.985L99.5007 119.954V102.172C99.3906 102.249 99.2791 102.326 99.1691 102.402Z" fill="#202924"/>
<path d="M88.5398 65.5936C87.7548 65.5948 86.9724 65.6836 86.207 65.8583C86.3325 66.2499 86.4857 66.6652 86.6683 67.1209L86.7881 67.3996C86.7993 67.4261 86.8118 67.4525 86.823 67.4776C87.3886 67.3671 87.9635 67.3116 88.5398 67.3118C90.2953 67.306 92.0162 67.7992 93.502 68.7341C94.9878 69.669 96.1773 71.0069 96.9317 72.5919L97.0154 72.5696C97.5547 72.4303 98.0912 72.3035 98.6179 72.1822C97.7639 70.2206 96.3548 68.5516 94.5641 67.3809C92.7733 66.2102 90.6793 65.5889 88.5398 65.5936Z" fill="#202924"/>
<path d="M93.9996 106.701C93.8853 106.811 93.7724 106.929 93.6595 107.042V120.978C94.1863 120.925 94.7228 120.856 95.3011 120.769L95.375 120.757V105.428C94.858 105.881 94.4037 106.302 93.9996 106.701Z" fill="#202924"/>
<path d="M88.5381 69.7164C88.3709 69.7164 88.2037 69.7164 88.0378 69.7359C88.3599 70.2183 88.7137 70.6787 89.0969 71.1141C89.2126 71.2535 89.338 71.383 89.4718 71.521C90.1493 71.6502 90.7945 71.9123 91.3702 72.2921C91.9459 72.6719 92.4407 73.1619 92.826 73.7339C92.8665 73.7465 92.9041 73.7632 92.9445 73.7744L92.9863 73.7618C93.4852 73.5862 94.0134 73.4148 94.5401 73.256C93.9408 72.189 93.0699 71.2996 92.0158 70.6779C90.9617 70.0563 89.7619 69.7245 88.5381 69.7164Z" fill="#202924"/>
<path d="M86.4036 116.103C86.2642 116.33 86.1249 116.542 85.9939 116.761V121.138H86.0246C86.582 121.171 87.1477 121.199 87.7093 121.21V114.141C87.2899 114.747 86.8662 115.383 86.4036 116.103Z" fill="#202924"/>
<path d="M89.9129 111.191C89.7847 111.352 89.6606 111.516 89.5338 111.678V121.226C90.1498 121.219 90.6988 121.201 91.22 121.169H91.2493V109.603C90.7741 110.149 90.3268 110.677 89.9129 111.191Z" fill="#202924"/>
<path d="M137.674 75.3038C137.652 74.0497 137.578 72.7592 137.451 71.4786C137.217 69.095 136.804 66.7324 136.217 64.4105C136.016 63.6037 135.799 62.8372 135.57 62.0945C134.944 60.0453 134.183 58.0394 133.294 56.0897C133.083 55.627 132.876 55.1755 132.649 54.7463C131.832 53.0776 130.913 51.4604 129.898 49.9038C129.692 49.5651 129.469 49.2335 129.263 48.9422C128.35 47.5898 127.365 46.2873 126.313 45.0403C121.74 39.5635 116.018 35.1592 109.554 32.1393C103.089 29.1195 96.0397 27.5579 88.9046 27.5653C87.1603 27.5658 85.4174 27.6588 83.683 27.844C83.6415 27.8508 83.5996 27.8545 83.5576 27.8551C83.0712 27.9067 82.5918 27.9694 82.1055 28.0377H82.0888C81.6303 28.1004 81.1732 28.177 80.7217 28.2495C77.8219 28.7447 74.9723 29.4988 72.2072 30.5029C71.5568 30.737 70.9163 30.9883 70.2855 31.2568C69.1079 31.7375 67.9527 32.2699 66.8378 32.8412L66.4491 33.0363C66.1118 33.2133 65.769 33.3903 65.4318 33.5784C65.2144 33.6941 65.0026 33.8139 64.7852 33.9449C63.7553 34.5232 62.7325 35.1573 61.7375 35.8262L61.6859 35.861L61.1285 36.2498C61.116 36.2498 61.1048 36.2665 61.0937 36.2721C60.8428 36.4435 60.585 36.6275 60.3328 36.8045C59.5608 37.3619 58.7887 37.9597 58.0293 38.5826L57.5373 38.9881C57.3367 39.1595 57.1374 39.3254 56.9367 39.4968C56.8503 39.5776 56.7598 39.6515 56.6734 39.7267C55.8846 40.4235 55.1182 41.1439 54.3921 41.87C54.2779 41.9842 54.158 42.1055 54.0493 42.2253C53.8654 42.4135 53.6828 42.596 53.5003 42.7911C53.3177 42.9862 53.163 43.1451 52.9972 43.329C52.476 43.8948 51.9674 44.4717 51.481 45.0556C51.2302 45.3524 50.9835 45.6562 50.7494 45.9586C45.5017 52.5611 42.0478 60.4069 40.7224 68.736C39.3969 77.0652 40.2448 85.5954 43.1839 93.5007C43.6479 94.7549 44.1677 95.9882 44.7391 97.1936C45.2658 98.321 45.8372 99.4233 46.4545 100.499C47.1977 101.8 48.0004 103.067 48.8625 104.302C49.4116 105.085 49.9774 105.846 50.578 106.594C51.3444 107.562 52.1443 108.499 52.9916 109.408C53.549 110.014 54.1176 110.598 54.7071 111.169C55.4791 111.93 56.2846 112.668 57.1137 113.377C57.6711 113.858 58.2467 114.326 58.8292 114.77C59.0758 114.971 59.3267 115.165 59.5789 115.354C60.1149 115.766 60.6696 116.166 61.2428 116.554C61.7166 116.886 62.2085 117.212 62.7004 117.521C62.7868 117.578 62.8718 117.63 62.9582 117.681C63.2272 117.858 63.5017 118.024 63.7693 118.185C64.296 118.505 64.8339 118.813 65.3705 119.111C65.907 119.409 66.4295 119.683 66.9549 119.947C67.0009 119.97 67.0413 119.992 67.0859 120.016C67.4635 120.204 67.8412 120.388 68.2007 120.547C68.6188 120.747 69.0591 120.942 69.4995 121.13C70.0653 121.383 70.6436 121.617 71.215 121.827L71.4783 121.93C71.9703 122.124 72.4538 122.301 72.9653 122.479C73.1882 122.553 73.4112 122.627 73.6286 122.702C74.2111 122.896 74.7824 123.068 75.344 123.228C75.6868 123.331 76.0297 123.423 76.3725 123.506C76.8477 123.633 77.3047 123.748 77.7507 123.849C77.8705 123.879 77.9904 123.906 78.1116 123.93C78.5575 124.033 79.009 124.129 79.4661 124.209C80.2214 124.363 80.98 124.494 81.7418 124.603L81.8811 124.621C82.4469 124.706 83.0187 124.78 83.5966 124.844C84.3909 124.929 85.1978 124.998 86.0032 125.044C86.5764 125.079 87.1483 125.102 87.7187 125.112C88.1186 125.124 88.5144 125.13 88.9143 125.13C89.1262 125.13 89.3324 125.13 89.5428 125.13C90.1151 125.124 90.6869 125.107 91.2583 125.078C92.0651 125.038 92.8706 124.981 93.6663 124.9C94.2433 124.85 94.8146 124.78 95.3818 124.701C96.1928 124.598 96.9997 124.467 97.794 124.318C98.3723 124.209 98.9437 124.095 99.5095 123.964C100.321 123.785 101.124 123.585 101.917 123.363C102.494 123.203 103.066 123.031 103.633 122.847C104.445 122.591 105.251 122.316 106.047 122.011C106.623 121.794 107.195 121.565 107.762 121.326C108.573 120.983 109.38 120.629 110.169 120.233C110.746 119.954 111.318 119.662 111.884 119.352C112.703 118.918 113.507 118.456 114.298 117.969C114.88 117.62 115.453 117.248 116.013 116.87C116.837 116.321 117.637 115.756 118.42 115.149C119.004 114.709 119.575 114.252 120.135 113.784C120.971 113.097 121.771 112.376 122.549 111.633C123.131 111.076 123.704 110.506 124.264 109.924C125.1 109.043 125.905 108.132 126.677 107.189C127.271 106.469 127.843 105.731 128.392 104.977C129.245 103.804 130.048 102.592 130.8 101.341C131.412 100.328 131.983 99.2937 132.516 98.229C133.073 97.1142 133.597 95.9826 134.071 94.8218C135.653 90.978 136.73 86.9454 137.276 82.8248C137.368 82.1447 137.442 81.4577 137.504 80.7721C137.635 79.2908 137.705 77.8094 137.705 76.3462C137.693 76.0006 137.687 75.6355 137.674 75.3038ZM134.061 80.6787C134.044 80.8724 134.021 81.062 134.004 81.2501C133.993 81.3476 133.982 81.4396 133.969 81.5288C133.941 81.8159 133.906 82.096 133.867 82.3816C133.74 83.3571 133.58 84.3089 133.386 85.2579C133.14 86.4815 132.849 87.6938 132.506 88.8811C132.03 90.5487 131.457 92.1871 130.79 93.7878C130.087 95.4663 129.283 97.1007 128.382 98.6819C127.846 99.6304 127.274 100.555 126.667 101.455C125.912 102.588 125.108 103.685 124.255 104.744C123.697 105.429 123.125 106.098 122.539 106.751C121.767 107.603 120.963 108.425 120.126 109.216C119.568 109.746 118.996 110.261 118.41 110.76C117.632 111.429 116.833 112.074 116.003 112.686C115.446 113.104 114.87 113.522 114.288 113.911C113.498 114.441 112.694 114.95 111.874 115.436C111.309 115.768 110.737 116.089 110.159 116.398C109.37 116.816 108.569 117.215 107.752 117.592C107.185 117.85 106.614 118.101 106.037 118.336C105.241 118.661 104.436 118.97 103.623 119.245C103.057 119.446 102.485 119.628 101.908 119.802C101.119 120.042 100.312 120.26 99.4997 120.455C98.9339 120.597 98.3621 120.724 97.7842 120.838C96.9899 120.998 96.1831 121.135 95.372 121.256C94.8048 121.342 94.2335 121.416 93.6566 121.473C92.8553 121.56 92.0554 121.622 91.2485 121.663C90.6772 121.696 90.1114 121.713 89.5331 121.72C89.3268 121.72 89.115 121.72 88.9046 121.72C88.5046 121.72 88.1033 121.72 87.7089 121.702C87.1376 121.691 86.5662 121.663 85.9935 121.628C85.188 121.576 84.3812 121.503 83.5868 121.405C83.329 121.376 83.0712 121.342 82.8148 121.307C82.6197 121.285 82.426 121.256 82.2309 121.228C82.1111 121.21 81.9912 121.193 81.8714 121.171C81.4937 121.114 81.1161 121.051 80.744 120.987C80.3162 120.908 79.887 120.821 79.4578 120.731C79.3951 120.719 79.3324 120.701 79.2696 120.69C79.1303 120.662 78.9909 120.633 78.8516 120.598C78.4739 120.513 78.1033 120.427 77.7367 120.331C77.6517 120.312 77.5709 120.29 77.4859 120.266C77.4009 120.243 77.3201 120.227 77.2392 120.204C76.6112 120.044 75.9748 119.861 75.3301 119.655C74.9524 119.535 74.5692 119.409 74.1748 119.271L74.0661 119.238C73.917 119.186 73.7624 119.135 73.6146 119.078C73.3108 118.975 73.0015 118.855 72.6935 118.735C72.6935 118.735 72.6768 118.735 72.6698 118.724C72.1793 118.54 71.6943 118.346 71.201 118.134C70.6743 117.911 70.1489 117.677 69.6291 117.438C69.5874 117.421 69.5469 117.402 69.5079 117.38C69.5079 117.38 69.4911 117.38 69.4856 117.369C69.1483 117.22 68.8222 117.054 68.4906 116.889C68.4042 116.843 68.3136 116.804 68.2272 116.749C68.0391 116.652 67.844 116.554 67.6559 116.451C67.5673 116.409 67.4813 116.363 67.398 116.312C67.2894 116.26 67.1862 116.197 67.0775 116.14C66.5578 115.862 66.038 115.556 65.5223 115.243C65.4652 115.208 65.4136 115.179 65.3621 115.145C65.3105 115.112 65.2367 115.07 65.174 115.031C64.9621 114.904 64.7508 114.772 64.5399 114.637C64.3796 114.533 64.2194 114.43 64.0647 114.327C63.687 114.082 63.315 113.83 62.9499 113.577C62.5039 113.264 62.0636 112.943 61.6344 112.617C61.5034 112.514 61.3654 112.418 61.2344 112.309C61.194 112.275 61.148 112.24 61.0951 112.206C60.3119 111.6 59.5515 110.968 58.8138 110.312C58.2244 109.798 57.653 109.273 57.0984 108.729C56.2622 107.906 55.4512 107.057 54.6917 106.185C54.0916 105.51 53.5198 104.818 52.9763 104.108C52.1123 103.005 51.3124 101.868 50.5627 100.69C49.9514 99.734 49.3795 98.7586 48.8472 97.7636C47.9256 96.0468 47.1211 94.2697 46.4392 92.4444C45.7438 90.6072 45.1707 88.726 44.7237 86.8131C43.9261 83.3866 43.5254 79.8797 43.5295 76.3615C43.5334 65.7204 47.2755 55.4188 54.1023 47.256C54.2221 47.1069 54.342 46.9634 54.4743 46.8212C55.114 46.0604 55.801 45.3232 56.5033 44.6083L56.5605 44.5456C56.6357 44.4592 56.7207 44.3742 56.8015 44.2934L56.8531 44.2418C57.1151 43.9784 57.3785 43.722 57.653 43.4642C58.1742 42.9723 58.7107 42.4887 59.2598 42.0121H59.3406L59.7865 41.5662L59.8325 41.5258L60.4833 40.9948C60.7355 40.7942 60.9864 40.5935 61.2442 40.3998C61.7417 40.011 62.2447 39.6445 62.7422 39.2961L63.0112 39.101L63.3317 38.878L63.5379 38.7387L63.6466 38.6634C63.9602 38.453 64.2807 38.2454 64.6068 38.0405C64.8855 37.858 65.1726 37.6866 65.4582 37.5152C66.1843 37.0748 66.9173 36.6567 67.6489 36.261H67.752L68.0711 36.0492L68.1408 36.0101C68.5352 35.8039 68.9351 35.6032 69.3351 35.4151C69.735 35.227 70.1252 35.043 70.5252 34.866C71.4542 34.448 72.4032 34.0647 73.3722 33.7164C73.8125 33.5561 74.2473 33.4014 74.6932 33.2593C77.5466 32.3154 80.488 31.6618 83.4726 31.3083C83.7067 31.2791 83.9408 31.2568 84.1693 31.2331C84.462 31.1996 84.7588 31.1704 85.0501 31.1536C86.2002 31.0672 87.3615 31.0208 88.5339 31.0143C95.4959 31.0108 102.366 32.6044 108.615 35.6726C114.865 38.7408 120.327 43.2018 124.582 48.7123C125.508 49.9023 126.373 51.1391 127.173 52.4177C127.451 52.8525 127.715 53.2984 127.978 53.7499C128.835 55.2208 129.605 56.741 130.283 58.3026C130.562 58.92 130.808 59.5429 131.055 60.1714C131.746 61.9646 132.321 63.8005 132.776 65.6675C132.999 66.5872 133.194 67.5195 133.359 68.4685C133.736 70.5648 133.96 72.6858 134.029 74.8147C134.046 75.3303 134.057 75.8445 134.057 76.3643L134.061 80.6787Z" fill="#143456"/>
<path d="M83.0435 79.5065C82.7912 79.6891 82.5404 79.866 82.2937 80.0555C82.1544 80.1573 82.015 80.266 81.8757 80.3747C81.8715 80.3811 81.865 80.3856 81.8576 80.3872C81.6012 80.5809 81.3434 80.7816 81.0981 80.9864C80.7776 81.2331 80.4682 81.4909 80.1658 81.7473C79.9247 81.5815 79.6906 81.4045 79.469 81.2219C78.8536 80.7262 78.2799 80.1809 77.7536 79.5915C76.8169 78.5562 76.0105 77.4101 75.3525 76.1787C75.2257 75.9488 75.1114 75.7147 75.0027 75.4819C74.6266 74.6858 74.2962 73.8688 74.0133 73.0349C73.5499 71.6705 73.1907 70.273 72.9389 68.8543C72.7675 67.9457 72.6295 67.0245 72.5208 66.1104C72.3731 64.9203 72.2588 63.7414 72.1557 62.5596C72.1265 62.2099 72.0986 61.8629 72.0693 61.5187C72.0359 61.0839 71.9955 60.6547 71.9551 60.2255C71.8701 59.2026 71.7725 58.1909 71.6471 57.1959C71.5663 56.52 71.4743 55.8511 71.36 55.1878C71.2123 54.3015 71.0353 53.4264 70.8179 52.5638C70.6632 51.9743 70.4918 51.3918 70.2967 50.8135C70.0329 50.0533 69.7258 49.3089 69.377 48.5838C69.3707 48.5695 69.3627 48.5559 69.3533 48.5434C69.1415 48.0975 68.8725 47.5777 68.5534 47.0105C68.1813 46.3709 67.7466 45.6783 67.2491 44.9871C66.9174 44.53 66.5523 44.0771 66.1746 43.6367C65.6328 43.0153 65.0311 42.4486 64.3784 41.945C63.8953 41.5642 63.3742 41.2345 62.8232 40.9611C62.3304 40.7129 61.8104 40.523 61.2736 40.3953C61.7711 40.0065 62.2741 39.64 62.7716 39.2917L63.0406 39.0966L63.3611 38.8736L63.5673 38.7342L63.6746 38.659C63.9896 38.4486 64.3101 38.2409 64.6362 38.0361C65.0982 38.2836 65.5449 38.5586 65.974 38.8597C66.4742 39.2106 66.9517 39.5927 67.4037 40.0038C68.0203 40.5594 68.5955 41.1593 69.1248 41.7986C69.4913 42.2334 69.8452 42.6905 70.1825 43.1769C70.6496 43.8316 71.0809 44.5113 71.4743 45.2128C71.7614 45.6936 72.0317 46.2022 72.2867 46.722C72.3494 46.8419 72.4121 46.9631 72.4693 47.0885C72.7619 47.7003 73.0267 48.3121 73.2594 48.935C73.4712 49.484 73.6538 50.0387 73.8168 50.5933C74.0621 51.4001 74.2628 52.2112 74.4342 53.0292C74.5652 53.6298 74.6739 54.2304 74.7714 54.8408C74.9108 55.7271 75.0292 56.6134 75.1323 57.5053C75.2062 58.1686 75.2717 58.8375 75.3316 59.5008C75.3832 60.0791 75.4292 60.6561 75.4807 61.233C75.5156 61.6399 75.549 62.0454 75.5894 62.4454C75.6521 63.1951 75.7204 63.9323 75.8012 64.6639C75.9211 65.7787 76.0632 66.8713 76.2583 67.9471C76.3977 68.7707 76.5788 69.5873 76.7962 70.3885C77.1044 71.5932 77.5243 72.7666 78.0504 73.8933C78.0656 73.9341 78.0828 73.9741 78.102 74.0131C78.4831 74.8123 78.9409 75.5726 79.469 76.2832C80.1478 77.2243 80.9583 78.063 81.8757 78.7735C82.2447 79.0486 82.6352 79.2938 83.0435 79.5065Z" fill="#143456"/>
<path d="M92.9485 74.2851C92.628 74.3994 92.3019 74.5206 91.973 74.646C91.6023 74.7854 91.2303 74.9373 90.847 75.0975C90.5837 75.2062 90.3147 75.3261 90.0457 75.4459C89.8061 75.5546 89.5664 75.6689 89.3197 75.7831C89.2882 75.7957 89.2579 75.8111 89.2291 75.8291C89.08 75.8974 88.9253 75.9685 88.7762 76.0465C88.5825 75.9155 88.3944 75.7678 88.2104 75.6285C87.7442 75.27 87.3029 74.8803 86.8894 74.4621C86.3157 73.9 85.7864 73.2943 85.3063 72.6505C84.6252 71.7471 84.037 70.7774 83.5504 69.7561C83.4362 69.522 83.333 69.2823 83.2299 69.0412C82.9902 68.4991 82.7784 67.95 82.5903 67.3954C82.3116 66.5992 82.0793 65.7984 81.8935 64.9929C81.7444 64.416 81.6148 63.8266 81.5103 63.2441C81.3556 62.4079 81.2316 61.5718 81.1159 60.7357C81.0351 60.142 80.9668 59.5414 80.9041 58.9464C80.8177 58.1102 80.7438 57.2657 80.67 56.438C80.6519 56.2262 80.6351 56.0199 80.6184 55.8025C80.5836 55.4193 80.5557 55.0361 80.5209 54.6584C80.447 53.8223 80.3718 53.0057 80.2812 52.1947C80.2185 51.6052 80.1418 51.0283 80.0638 50.4499C79.9495 49.6445 79.8116 48.8432 79.6457 48.0544C79.5315 47.4887 79.4005 46.9285 79.2402 46.3822C79.029 45.6072 78.7731 44.845 78.4738 44.0996C78.3135 43.6815 78.131 43.2634 77.9359 42.8649C77.8843 42.7562 77.8272 42.6475 77.77 42.5277C77.4029 41.7925 76.9982 41.0766 76.5576 40.383C76.2548 39.8962 75.9175 39.4066 75.5459 38.9142C75.0185 38.2195 74.436 37.5685 73.804 36.9674C73.3217 36.5096 72.7993 36.096 72.2432 35.7313C71.7107 35.3813 71.1386 35.0955 70.5389 34.8799C71.468 34.4618 72.417 34.0786 73.3859 33.7302C73.8263 33.57 74.2611 33.4153 74.707 33.2731C75.1865 33.6186 75.6432 33.9947 76.0741 34.3991C76.5508 34.8384 77.003 35.3037 77.4286 35.7927C77.9997 36.4529 78.5289 37.1482 79.0131 37.8746C79.3392 38.361 79.6597 38.8696 79.9621 39.4075C80.3286 40.0304 80.6714 40.6826 81.003 41.3682C81.0435 41.4546 81.0894 41.5452 81.1229 41.6316C81.3751 42.1639 81.5981 42.7004 81.7974 43.2384C82.0896 43.9947 82.3417 44.7659 82.5527 45.5489C82.7018 46.1063 82.8314 46.6637 82.9526 47.2127C83.1245 48.0015 83.2676 48.7944 83.3818 49.5915C83.4738 50.1573 83.5477 50.7231 83.6159 51.2889C83.7079 52.0957 83.7873 52.897 83.8626 53.6969C83.9146 54.2738 83.9662 54.8475 84.0173 55.4179C84.0173 55.4472 84.0173 55.4806 84.0173 55.5099C84.0856 56.2931 84.1483 57.0707 84.2277 57.8371C84.2793 58.4196 84.3364 58.9979 84.4061 59.5693C84.4967 60.3761 84.6109 61.176 84.7433 61.9592C84.8409 62.5319 84.9496 63.0922 85.075 63.6524C85.252 64.4411 85.4638 65.2131 85.7146 65.9796C85.8874 66.523 86.0923 67.061 86.3152 67.5919C86.4128 67.826 86.5159 68.0615 86.6246 68.2887C86.876 68.8101 87.1585 69.3159 87.4705 69.8035C87.8439 70.3801 88.2589 70.9287 88.7121 71.4451C89.9287 72.7982 91.3933 73.8963 92.9485 74.2851Z" fill="#143456"/>
<path d="M87.4748 76.7156C87.2295 76.8549 86.9884 76.9845 86.7432 77.1336C86.5592 77.2368 86.3767 77.3385 86.1941 77.4528C86.1258 77.4876 86.0548 77.528 85.9935 77.5684C85.4054 77.9224 84.8048 78.3056 84.1986 78.7111C83.9923 78.5565 83.7805 78.3976 83.5868 78.2318C82.9721 77.7201 82.3986 77.1609 81.8713 76.5595C81.105 75.6915 80.4302 74.7468 79.8577 73.7404C79.6403 73.3697 79.4396 72.9976 79.2696 72.6255C79.1149 72.305 78.9714 71.9859 78.8516 71.6598C78.443 70.6949 78.1007 69.7032 77.8273 68.6916C77.628 67.9948 77.4622 67.2855 77.3187 66.5762C77.1194 65.6007 76.9647 64.6141 76.8393 63.6316C76.7417 62.9446 76.6679 62.259 76.5982 61.572C76.502 60.6285 76.4212 59.6851 76.3418 58.7528C76.3418 58.7249 76.3418 58.6901 76.3418 58.6623C76.2902 58.0393 76.2387 57.4206 76.1815 56.8088C76.0951 55.917 76.0101 55.0363 75.8944 54.1681C75.8201 53.5558 75.7347 52.9497 75.638 52.3495C75.4987 51.5134 75.3342 50.6968 75.1294 49.8899C74.99 49.3241 74.8312 48.7639 74.6486 48.2176C74.4023 47.4481 74.1062 46.6954 73.7623 45.9643C73.7275 45.8849 73.694 45.804 73.6536 45.7246C73.4711 45.347 73.2481 44.9066 72.9903 44.4384C72.6294 43.7973 72.2016 43.0936 71.7041 42.3857C71.37 41.9058 71.0109 41.4439 70.6283 41.0019C70.0808 40.3539 69.4743 39.7582 68.8167 39.2223C68.3133 38.8125 67.7688 38.4562 67.1918 38.1591C66.649 37.8761 66.0726 37.6631 65.4763 37.525C66.2024 37.0846 66.9354 36.6666 67.667 36.2708L68.085 36.059L68.1547 36.02C68.5491 35.8137 68.949 35.6131 69.349 35.4249C69.8352 35.7062 70.3008 36.0214 70.7425 36.3684C71.2443 36.7516 71.7201 37.1678 72.1667 37.6142C72.7759 38.2115 73.3435 38.8498 73.8655 39.5247C74.2138 39.9762 74.5622 40.457 74.8883 40.9657C75.3287 41.6234 75.7467 42.3267 76.1425 43.0755C76.3432 43.4476 76.5424 43.8308 76.732 44.2252C76.7947 44.3561 76.8574 44.483 76.9089 44.6139C77.2454 45.3409 77.5431 46.0852 77.8008 46.8436C77.9866 47.3927 78.1524 47.9417 78.2983 48.4908C78.5157 49.2795 78.6927 50.0752 78.8418 50.8696C78.9561 51.4479 79.0536 52.0192 79.133 52.5962C79.2529 53.4323 79.356 54.2489 79.4424 55.0725C79.5051 55.6731 79.5623 56.2737 79.6138 56.8688C79.6654 57.3663 79.7058 57.8637 79.7532 58.3612C79.7824 58.7208 79.8159 59.0817 79.8507 59.4412C79.9023 60.0642 79.9594 60.6954 80.0221 61.3002C80.1085 62.1865 80.2116 63.0617 80.3426 63.9243C80.4346 64.5541 80.5377 65.1784 80.6576 65.7888C80.8301 66.6617 81.0497 67.5246 81.3153 68.3738C81.4902 68.9801 81.7 69.5757 81.9438 70.1576C82.0748 70.4892 82.2225 70.8209 82.373 71.147C82.5982 71.6133 82.848 72.0673 83.1213 72.5071C83.4485 73.0296 83.8098 73.5301 84.2027 74.0051C84.7535 74.6755 85.3764 75.283 86.0603 75.8168C86.4985 76.1658 86.9727 76.4671 87.4748 76.7156Z" fill="#143456"/>
<path d="M79.1951 82.5767C78.9443 82.7997 78.6976 83.0227 78.4579 83.2456C78.2182 83.4686 77.9771 83.6916 77.743 83.9201C77.3431 84.3033 76.9543 84.6866 76.5822 85.0698C76.1492 84.8087 75.7331 84.5206 75.3364 84.2072C74.7214 83.7278 74.1476 83.1978 73.6209 82.6227C72.683 81.6228 71.8723 80.5106 71.2073 79.3117C71.0303 78.9912 70.8645 78.6776 70.7154 78.3571C70.2469 77.3647 69.8496 76.3402 69.5267 75.2913C69.5197 75.2913 69.5197 75.2913 69.5267 75.2788C68.9326 73.3436 68.5128 71.3592 68.2725 69.3492C68.2711 69.3484 68.2699 69.3471 68.2691 69.3457C68.2682 69.3442 68.2678 69.3426 68.2678 69.3409C68.2678 69.3392 68.2682 69.3375 68.2691 69.3361C68.2699 69.3346 68.2711 69.3334 68.2725 69.3325C68.1123 68.1773 67.9938 67.022 67.8949 65.8724V65.8556C67.8489 65.3637 67.8043 64.8718 67.7639 64.3854C67.6886 63.5173 67.6148 62.6533 67.5353 61.8018V61.7907C67.4545 60.9545 67.3639 60.1184 67.2483 59.3032C67.1089 58.2678 66.9347 57.2505 66.7118 56.2485C66.5627 55.5922 66.3968 54.9456 66.1906 54.2976C65.9379 53.4575 65.6269 52.6361 65.2597 51.8394C65.2012 51.7 65.1384 51.5704 65.0757 51.4394C64.9043 51.0841 64.6981 50.6786 64.4584 50.2438C64.0664 49.5239 63.6352 48.826 63.1666 48.1535C62.8516 47.6964 62.5033 47.2337 62.1256 46.7878C61.6089 46.1671 61.0386 45.593 60.4213 45.0723C59.9733 44.6935 59.493 44.3545 58.986 44.0592C58.5633 43.8153 58.1192 43.6105 57.6593 43.4475C58.1805 42.956 58.7161 42.472 59.2661 41.9954H59.3469L59.7928 41.5495L59.8388 41.5091L60.4896 40.9781C60.9161 41.2136 61.3287 41.4732 61.7257 41.7557C62.2073 42.0949 62.6676 42.4635 63.1039 42.8594C63.7011 43.403 64.2598 43.9874 64.7761 44.6083C65.1412 45.0319 65.4919 45.4839 65.8282 45.9642C66.2996 46.6218 66.7369 47.3032 67.1382 48.0058C67.4169 48.4907 67.6956 49.0007 67.9548 49.5317C68.03 49.671 68.0941 49.8104 68.161 49.9497C68.4579 50.5615 68.7185 51.1844 68.9623 51.8073C69.1783 52.3856 69.3734 52.9626 69.5448 53.5465C69.8026 54.4146 70.02 55.2954 70.197 56.1761C70.3364 56.8506 70.4478 57.5264 70.5454 58.2009C70.7056 59.2419 70.8241 60.2815 70.9286 61.3224C71.015 62.1586 71.0833 62.9752 71.1571 63.7988C71.1571 63.8963 71.1753 63.9925 71.1808 64.09C71.2895 65.3442 71.3913 66.5831 71.5292 67.7954C71.6546 68.9284 71.8079 70.0432 72.0156 71.1399C72.3329 72.9627 72.8687 74.7407 73.6112 76.4354C73.6683 76.5845 73.7366 76.728 73.8049 76.8702C74.2248 77.7462 74.7348 78.5761 75.3266 79.3465C76.009 80.2538 76.8197 81.057 77.7333 81.7309C78.1861 82.0686 78.6767 82.3525 79.1951 82.5767Z" fill="#143456"/>
<path d="M75.9068 85.7739C75.7117 85.9801 75.5236 86.192 75.3355 86.3912C74.7297 87.0601 74.1579 87.7235 73.62 88.3812C73.574 88.4383 73.528 88.4899 73.4807 88.5471C72.6721 88.1832 71.9084 87.7268 71.205 87.187C70.5925 86.7235 70.0188 86.2108 69.4896 85.6541C68.5601 84.6871 67.7515 83.6108 67.0815 82.4489C66.8418 82.042 66.63 81.6309 66.4363 81.2254C66.0251 80.3539 65.6677 79.458 65.3661 78.5428C64.4463 75.7641 64.0283 72.899 63.7482 70.0575C63.6506 69.1252 63.5712 68.193 63.4904 67.2704C63.4513 66.7911 63.4054 66.3103 63.3649 65.8351C63.234 64.3482 63.0862 62.8905 62.8674 61.4608C62.7364 60.6246 62.5887 59.7969 62.3992 58.9789C62.1716 57.986 61.8811 57.0085 61.5296 56.0524C61.3178 55.4755 61.0726 54.9042 60.8036 54.3426C60.7869 54.3147 60.7743 54.2798 60.7576 54.252C60.3807 53.4751 59.962 52.7191 59.5034 51.9875C59.201 51.5067 58.8694 51.012 58.4973 50.5173C58.0138 49.8654 57.4828 49.2501 56.9087 48.6764C56.5024 48.2748 56.0684 47.9023 55.6099 47.5616C55.2517 47.2973 54.8754 47.0584 54.4839 46.8467C55.1235 46.0858 55.8105 45.3486 56.5129 44.6337L56.57 44.571C56.6453 44.4846 56.7303 44.3996 56.8111 44.3188L56.8627 44.2672C57.248 44.5127 57.6201 44.7783 57.9775 45.063C58.4311 45.4111 58.8625 45.7871 59.2693 46.1889C59.8473 46.752 60.386 47.354 60.8816 47.9908C61.237 48.4311 61.5784 48.8938 61.9003 49.3843C62.3518 50.0477 62.7811 50.757 63.1921 51.5053C63.4263 51.9401 63.6618 52.3916 63.8889 52.8556C63.9349 52.9462 63.9739 53.0382 64.0143 53.1344C64.396 53.94 64.7265 54.769 65.0038 55.6162C65.2267 56.2684 65.4218 56.9206 65.5751 57.5784C65.8441 58.6193 66.0503 59.6687 66.2161 60.718C66.3555 61.5862 66.467 62.4613 66.5645 63.3309C66.7039 64.56 66.8042 65.7835 66.9073 67.0015C66.9366 67.3053 66.9589 67.6021 66.9882 67.9045C67.1191 69.4207 67.2571 70.9076 67.4675 72.3638V72.375C67.8285 74.9252 68.3998 77.3667 69.4868 79.6827C69.4992 79.7183 69.5146 79.7528 69.5328 79.7859C69.9882 80.7341 70.5491 81.6279 71.205 82.4503C71.8914 83.3335 72.7047 84.1103 73.6186 84.7552C74.1479 85.1266 74.7249 85.4248 75.3341 85.6415C75.5236 85.6708 75.7117 85.7279 75.9068 85.7739Z" fill="#143456"/>
<path d="M134.061 78.7469V80.6797C134.044 80.8734 134.021 81.063 134.004 81.2511C133.993 81.3486 133.982 81.4406 133.969 81.5298C133.941 81.8169 133.906 82.097 133.867 82.3826C133.741 83.3581 133.58 84.3099 133.387 85.2589C133.108 85.5725 132.815 85.8874 132.506 86.2023C132.02 86.7166 131.505 87.2252 130.956 87.7352C130.899 87.7868 130.848 87.8384 130.79 87.8899C130.022 88.5975 129.219 89.2654 128.382 89.891C127.805 90.3314 127.234 90.7272 126.667 91.0867C125.886 91.5844 125.081 92.0426 124.255 92.4593C123.677 92.7455 123.105 93.0028 122.539 93.2314C121.727 93.5686 120.927 93.8543 120.126 94.1121C119.554 94.2891 118.983 94.4549 118.41 94.604C117.61 94.82 116.809 95.0095 116.004 95.1976C115.563 95.2952 115.123 95.3983 114.677 95.4959L114.288 95.5809C113.492 95.7579 112.687 95.9418 111.874 96.1467C111.309 96.286 110.736 96.4337 110.159 96.5996C109.37 96.8225 108.569 97.0678 107.752 97.359C107.195 97.5541 106.623 97.7715 106.036 98.0112C105.252 98.3373 104.447 98.708 103.623 99.1261C103.066 99.4113 102.494 99.722 101.908 100.058C101.125 100.51 100.323 101.02 99.4998 101.58C99.295 101.719 99.0818 101.859 98.8825 102.008C98.5104 102.271 98.1397 102.54 97.7844 102.815C96.9385 103.456 96.1316 104.107 95.3721 104.775C94.7771 105.297 94.2002 105.822 93.6567 106.354C92.7927 107.184 91.9928 108.027 91.2487 108.863C90.6425 109.55 90.0711 110.224 89.5332 110.893C88.8699 111.716 88.2618 112.521 87.7091 113.307C87.075 114.193 86.5092 115.044 85.9936 115.844C84.9819 117.434 84.1932 118.829 83.587 119.9C83.587 119.9 83.587 119.916 83.5744 119.922C83.3124 120.386 83.0593 120.851 82.8149 121.315C82.6198 121.293 82.4261 121.264 82.2311 121.236C82.1112 121.219 81.9914 121.201 81.8715 121.179C81.4939 121.122 81.1162 121.059 80.7441 120.995C80.3163 120.915 79.8871 120.829 79.4579 120.738C79.3952 120.727 79.3325 120.709 79.2698 120.698L79.4579 120.339C79.8239 119.629 80.2016 118.929 80.5909 118.24C80.9504 117.599 81.374 116.856 81.8715 116.021C82.369 115.187 82.9348 114.254 83.587 113.265C84.2837 112.189 85.085 111.035 85.9936 109.856C86.526 109.16 87.0973 108.432 87.7091 107.712C88.2818 107.032 88.8936 106.34 89.5332 105.653C90.0823 105.071 90.648 104.493 91.2487 103.91C92.004 103.177 92.8094 102.451 93.6567 101.736C94.2058 101.262 94.7776 100.798 95.3721 100.343C95.8701 99.9599 96.3811 99.5827 96.905 99.2111C97.2033 98.9992 97.5001 98.793 97.7913 98.5993C98.3752 98.2049 98.9466 97.844 99.5068 97.5012C100.33 97.0037 101.132 96.5577 101.915 96.1508C102.497 95.8535 103.069 95.5795 103.63 95.3286C104.454 94.951 105.259 94.6319 106.043 94.3392C106.626 94.1218 107.198 93.9212 107.759 93.7498C108.582 93.4808 109.383 93.2523 110.166 93.053C110.75 92.8997 111.321 92.7562 111.881 92.6349C112.578 92.4635 113.265 92.3088 113.934 92.1597C114.054 92.1319 114.174 92.1082 114.295 92.0803C114.878 91.9479 115.45 91.8225 116.011 91.6859C116.822 91.4908 117.623 91.2902 118.417 91.056C118.99 90.8902 119.561 90.7077 120.133 90.4986C120.956 90.2079 121.762 89.8701 122.546 89.4869C123.112 89.2082 123.684 88.8975 124.262 88.5546C125.099 88.0531 125.904 87.5012 126.674 86.9019C127.241 86.4615 127.807 85.9863 128.389 85.4554C128.47 85.3871 128.55 85.316 128.63 85.238C129.414 84.5115 130.136 83.7794 130.797 83.0418C131.415 82.3562 131.987 81.6701 132.513 80.9835C133.077 80.2226 133.593 79.4785 134.061 78.7469Z" fill="#143456"/>
<path d="M127.178 52.4361C126.992 53.0474 126.775 53.6843 126.526 54.3467C126.274 54.9933 125.999 55.6678 125.69 56.3534C125.301 57.2174 124.855 58.0999 124.352 59.0011C124.021 59.585 123.671 60.1731 123.288 60.7681C122.79 61.5346 122.254 62.3122 121.658 63.0953C121.27 63.6044 120.859 64.1154 120.424 64.6282C119.851 65.3027 119.234 65.9828 118.57 66.6517C118.165 67.0641 117.742 67.4762 117.301 67.8877C117.267 67.9212 117.227 67.956 117.192 67.9853C116.507 68.6193 115.832 69.1907 115.169 69.7119C114.659 70.1062 114.161 70.4714 113.664 70.803C112.96 71.2892 112.231 71.738 111.48 72.1478C110.942 72.4446 110.411 72.7052 109.879 72.9533C109.107 73.3086 108.346 73.611 107.586 73.8855C107.029 74.0806 106.472 74.2632 105.914 74.4234C105.131 74.6576 104.342 74.8638 103.554 75.0575C102.996 75.1968 102.439 75.3209 101.866 75.4533L101.015 75.6414C100.506 75.7557 100.003 75.8699 99.4816 75.9898C98.9158 76.1152 98.3501 76.2532 97.7718 76.4078C96.983 76.6015 96.1775 76.8259 95.3595 77.0879C94.9192 77.2263 94.4732 77.375 94.0217 77.5338C93.8949 77.5742 93.7695 77.6202 93.6441 77.6662C93.5187 77.7122 93.3918 77.7624 93.2664 77.8139H93.2553C92.592 78.0662 91.9231 78.3463 91.236 78.6598C90.7497 78.8842 90.2522 79.1239 89.7491 79.3817C89.6753 79.4207 89.6014 79.4611 89.5206 79.5015C88.9632 79.7923 88.3914 80.1142 87.8051 80.4672C87.7717 80.4909 87.7313 80.5132 87.6964 80.5355C87.139 80.8672 86.5649 81.2323 85.981 81.6281C85.8152 81.7367 85.6438 81.851 85.4779 81.9709C85.3929 82.028 85.3009 82.0921 85.2145 82.1548C84.6571 82.5497 84.1197 82.9496 83.6022 83.3547C83.5911 83.3547 83.5855 83.3728 83.5744 83.3783C82.9798 83.8429 82.4079 84.3134 81.8589 84.79C81.6359 84.9851 81.413 85.1788 81.1956 85.3795C80.8235 85.7056 80.4626 86.0428 80.1142 86.38C79.8856 86.5974 79.6627 86.8204 79.4453 87.0378C78.8447 87.6384 78.2733 88.2446 77.7298 88.8494C76.8547 89.8249 76.0576 90.7878 75.3232 91.7368C74.7044 92.5311 74.1331 93.3143 73.6077 94.0696C72.6573 95.4367 71.863 96.7173 71.1941 97.8322C70.6966 98.6683 70.2674 99.4278 69.9079 100.062C69.7685 100.32 69.6152 100.577 69.4787 100.834C68.5979 102.435 67.7953 104.068 67.0706 105.735C66.4426 107.176 65.8708 108.636 65.3552 110.115C64.8758 111.499 64.441 112.894 64.0578 114.312C63.6801 114.067 63.3081 113.815 62.9429 113.564C62.497 113.249 62.0566 112.928 61.6274 112.602C61.4964 112.499 61.3585 112.403 61.2275 112.294C61.1871 112.26 61.1411 112.225 61.0881 112.191C61.1285 112.042 61.1745 111.899 61.2275 111.751C61.7301 110.057 62.3019 108.391 62.9429 106.752C63.6639 104.906 64.4679 103.095 65.3552 101.317C65.8471 100.322 66.3738 99.3386 66.9229 98.3673C66.9689 98.2809 67.0191 98.1959 67.0706 98.1095C67.6894 97.0114 68.4781 95.6276 69.4787 94.0682C69.9929 93.2627 70.5656 92.4099 71.1941 91.518C71.8797 90.5579 72.635 89.5573 73.4698 88.5331C73.5158 88.4759 73.5617 88.4244 73.6091 88.3672C74.1452 87.7095 74.717 87.0462 75.3246 86.3773C75.5127 86.171 75.7008 85.9592 75.8959 85.7599C76.1189 85.5258 76.3419 85.2903 76.5704 85.0631C76.9425 84.6799 77.3313 84.2967 77.7312 83.9135C77.9653 83.6849 78.2064 83.462 78.4461 83.239C78.6858 83.016 78.9325 82.7931 79.1833 82.5701C79.2697 82.4907 79.3617 82.4154 79.4467 82.3415C79.6752 82.1353 79.9093 81.9416 80.1435 81.7409C80.4459 81.4845 80.7552 81.2267 81.0757 80.9801C81.321 80.7752 81.5788 80.5745 81.8352 80.3808C81.8426 80.3792 81.8491 80.3747 81.8533 80.3683C81.9927 80.2596 82.132 80.1509 82.2714 80.0492C82.518 79.8597 82.7689 79.6827 83.0211 79.5001C83.0838 79.4541 83.1521 79.4026 83.2218 79.3608L83.5646 79.1211C83.7694 78.9817 83.9827 78.8424 84.1764 78.703C84.7825 78.2975 85.3832 77.9143 85.9712 77.5603C86.0395 77.5199 86.1106 77.4795 86.1719 77.4446C86.3545 77.3304 86.537 77.2286 86.721 77.1255C86.9662 76.9862 87.2073 76.8468 87.4526 76.7075C87.532 76.6684 87.6073 76.6225 87.6867 76.582C88.042 76.3939 88.396 76.21 88.75 76.0386C88.8991 75.9647 89.0537 75.8895 89.2029 75.8212C89.2316 75.8031 89.2619 75.7877 89.2934 75.7752C89.5401 75.6609 89.7798 75.5466 90.0195 75.4379C90.2884 75.3181 90.5574 75.1983 90.8208 75.0896C91.204 74.9293 91.5761 74.7802 91.9468 74.638C92.2784 74.5126 92.6045 74.3914 92.9222 74.2771C92.9794 74.2548 93.0365 74.2381 93.0936 74.22C93.6511 74.0263 94.1973 73.8493 94.7352 73.689C95.5407 73.4368 96.3308 73.225 97.1043 73.0313C97.67 72.8822 98.2302 72.7526 98.7765 72.6244C99.2684 72.5101 99.7603 72.4014 100.24 72.2927L101.144 72.0879C101.71 71.9615 102.27 71.83 102.825 71.6935C103.613 71.4984 104.386 71.2921 105.158 71.0525C105.701 70.8866 106.244 70.7097 106.782 70.5034C107.539 70.2249 108.28 69.9043 109.001 69.5433C109.51 69.291 110.018 69.0165 110.527 68.7071C111.238 68.2813 111.928 67.8194 112.592 67.3233C113.055 66.9805 113.517 66.6029 113.986 66.2085C114.301 65.9409 114.615 65.6622 114.929 65.3724C115.25 65.0756 115.558 64.7787 115.861 64.4749C116.307 64.029 116.732 63.5831 117.136 63.1371C117.743 62.4627 118.308 61.7812 118.828 61.1012C119.224 60.5814 119.6 60.0602 119.943 59.546C120.474 58.7572 120.955 57.9741 121.378 57.202C121.716 56.5958 122.024 55.9952 122.298 55.4113C122.715 54.5311 123.088 53.6302 123.413 52.712C123.671 52.0041 123.888 51.3185 124.071 50.6775C124.174 50.2998 124.266 49.9333 124.349 49.5849C124.419 49.2937 124.482 49.0066 124.539 48.7209C125.482 49.913 126.363 51.153 127.178 52.4361Z" fill="#143456"/>
<path d="M130.288 58.3144C130.059 58.9945 129.796 59.708 129.487 60.4298C129.177 61.1517 128.853 61.8819 128.475 62.6316C128 63.5625 127.469 64.5241 126.857 65.4898C126.463 66.1141 126.039 66.744 125.582 67.3655C124.992 68.1779 124.346 68.996 123.644 69.8084C123.179 70.3449 122.688 70.8772 122.173 71.4096C121.709 71.8889 121.223 72.3632 120.716 72.8324C120.469 73.0609 120.229 73.2783 119.99 73.4846C119.441 73.9598 118.903 74.4057 118.37 74.8056C117.61 75.3899 116.819 75.9342 116.001 76.4361C115.423 76.79 114.851 77.1119 114.286 77.4018C113.473 77.8199 112.667 78.1794 111.872 78.4943C111.301 78.7173 110.728 78.9235 110.157 79.1061C109.357 79.3639 108.55 79.5924 107.75 79.8029C107.177 79.952 106.606 80.0899 106.033 80.2209C105.502 80.3464 104.97 80.4662 104.434 80.5874C104.165 80.6501 103.89 80.7073 103.621 80.77C103.055 80.901 102.483 81.0334 101.906 81.1755C101.111 81.3613 100.309 81.5731 99.4976 81.811C98.9318 81.9773 98.36 82.1603 97.7822 82.36C96.9934 82.629 96.1935 82.9314 95.3699 83.2853C94.8125 83.5264 94.237 83.7898 93.6545 84.081C92.8713 84.4698 92.07 84.9046 91.2465 85.3966C90.689 85.7338 90.1149 86.0933 89.531 86.4877C89.2342 86.6828 88.936 86.889 88.6391 87.0995C88.3423 87.3099 88.0107 87.5524 87.7069 87.7809C87.1123 88.2213 86.5405 88.6728 85.9914 89.1354C85.1455 89.8322 84.3387 90.554 83.5848 91.2801C82.9846 91.857 82.4128 92.4344 81.8693 93.0123C80.9942 93.939 80.1971 94.8657 79.4557 95.7743C78.8384 96.5351 78.2726 97.2835 77.7402 98.0039C76.8135 99.279 76.0137 100.497 75.3336 101.601C74.6536 102.704 74.0794 103.67 73.6182 104.499C73.5206 104.676 73.4231 104.842 73.3311 105.002C72.5721 106.351 71.8632 107.722 71.2045 109.113C70.5821 110.434 70.0103 111.776 69.4891 113.139C69.032 114.316 68.6139 115.508 68.2349 116.714C68.0468 116.616 67.8517 116.519 67.6635 116.415C67.575 116.374 67.489 116.327 67.4057 116.276C67.297 116.224 67.1939 116.162 67.0852 116.105C66.5654 115.826 66.0456 115.521 65.53 115.207C65.4729 115.172 65.4213 115.143 65.3698 115.11C65.3182 115.076 65.2444 115.034 65.1816 114.995C65.2444 114.811 65.3015 114.623 65.3698 114.438C65.8798 112.916 66.4516 111.414 67.0852 109.931C67.8127 108.216 68.6153 106.53 69.4933 104.871C69.772 104.35 70.0591 103.825 70.3503 103.311C70.6025 102.858 70.8882 102.355 71.2087 101.806C71.8609 100.68 72.6608 99.3529 73.6223 97.9119C74.1421 97.1343 74.7135 96.3163 75.3378 95.476C76.0643 94.4922 76.8665 93.4879 77.7444 92.4632C78.2823 91.8277 78.8593 91.1937 79.4599 90.5527C80.2152 89.7528 81.0197 88.958 81.8735 88.1683C82.4226 87.6597 82.9883 87.1566 83.589 86.6647C84.3554 86.0125 85.1553 85.384 85.9956 84.7653C86.213 84.6064 86.4359 84.4462 86.6589 84.2859C87.0143 84.0337 87.3557 83.794 87.711 83.5599C88.3284 83.1418 88.9346 82.7641 89.5352 82.4158C90.1358 82.0674 90.6904 81.7469 91.2506 81.4486C92.0742 81.0083 92.8755 80.6265 93.6587 80.2767C94.2412 80.0203 94.813 79.7838 95.3741 79.5674C96.1977 79.2538 97.0032 78.9793 97.7864 78.7312C98.3698 78.5454 98.9416 78.3796 99.5018 78.2337C100.325 78.0108 101.127 77.8157 101.91 77.6345C102.487 77.4952 103.06 77.3711 103.625 77.2387C103.647 77.2377 103.668 77.234 103.688 77.2276C104.488 77.0451 105.272 76.8736 106.038 76.6841C106.616 76.5476 107.189 76.3989 107.754 76.2382C108.56 76.0152 109.354 75.7644 110.144 75.4717C110.702 75.2669 111.259 75.037 111.817 74.7861C112.613 74.4234 113.386 74.013 114.133 73.557C114.658 73.2365 115.19 72.8881 115.728 72.4979C116.431 71.9888 117.147 71.4133 117.878 70.7713C118.044 70.6166 118.21 70.4633 118.382 70.3087C118.713 70.0049 119.027 69.6969 119.336 69.3875C120.033 68.6908 120.691 67.9814 121.287 67.2721C121.751 66.7231 122.185 66.1796 122.591 65.6305C123.214 64.7944 123.775 63.9499 124.272 63.1222C124.666 62.47 125.027 61.8234 125.348 61.1893C125.841 60.2304 126.282 59.2451 126.668 58.2378C126.971 57.4435 127.225 56.6826 127.434 55.9677C127.573 55.4702 127.703 54.9922 127.812 54.5393C127.874 54.2755 127.931 54.0121 127.983 53.7492C128.841 55.2242 129.61 56.7486 130.288 58.3144Z" fill="#143456"/>
<path d="M132.779 65.6751C132.459 66.4179 132.099 67.1788 131.687 67.9619C131.274 68.7451 130.851 69.5115 130.349 70.3003C129.708 71.3351 129.01 72.3339 128.259 73.2922C127.761 73.937 127.223 74.5831 126.647 75.2306C125.915 76.0528 125.114 76.8709 124.251 77.6833C124.211 77.7237 124.17 77.7627 124.126 77.8031C123.588 78.3006 123.061 78.7577 122.536 79.1869C121.762 79.8206 120.956 80.4141 120.122 80.9651C119.545 81.3483 118.972 81.6911 118.407 82.006C117.626 82.4408 116.822 82.8339 116 83.1836C115.422 83.4247 114.856 83.6476 114.284 83.8469C113.478 84.1256 112.671 84.3737 111.871 84.5911C111.299 84.7513 110.727 84.8935 110.155 85.0314C109.389 85.214 108.622 85.3854 107.845 85.5624C107.811 85.5624 107.782 85.5805 107.749 85.5861C107.182 85.7115 106.61 85.8369 106.032 85.9749C105.238 86.1574 104.438 86.3581 103.62 86.5866C103.054 86.7413 102.481 86.9071 101.904 87.0953C101.121 87.3475 100.32 87.6332 99.4961 87.9593C98.9387 88.1878 98.3646 88.4331 97.7807 88.7132C96.9975 89.0736 96.1934 89.4894 95.3685 89.9604C94.811 90.2809 94.2355 90.6237 93.653 90.9958C93.1262 91.333 92.5953 91.6926 92.0518 92.0758C91.7731 92.2709 91.5139 92.4646 91.245 92.6597C91.1056 92.7684 90.9537 92.8771 90.8102 92.9913C90.6666 93.1056 90.5189 93.2143 90.3754 93.3286C90.0967 93.5515 89.8096 93.7745 89.5295 94.0086C88.8955 94.5228 88.2893 95.0552 87.7054 95.5875C87.1052 96.1449 86.5334 96.6996 85.9899 97.2514C85.1217 98.1321 84.3177 99.0184 83.5833 99.8922C82.9715 100.613 82.3988 101.328 81.8678 102.026C80.9523 103.227 80.1524 104.382 79.4542 105.457C78.7965 106.474 78.2251 107.408 77.7387 108.252C77.3611 108.893 77.0294 109.477 76.7438 109.986C76.2519 110.855 75.778 111.741 75.3321 112.633C74.7134 113.851 74.142 115.092 73.6167 116.344C73.285 117.127 72.97 117.917 72.6718 118.713C72.1813 118.529 71.6964 118.336 71.203 118.124C70.6763 117.901 70.1509 117.667 69.6311 117.427C69.5894 117.411 69.5489 117.392 69.5099 117.37C70.0311 115.997 70.5913 114.648 71.203 113.316C71.9398 111.703 72.7443 110.119 73.6167 108.564C73.6612 108.478 73.7128 108.393 73.756 108.306C74.1852 107.547 74.705 106.626 75.3293 105.59C76.0038 104.476 76.7981 103.212 77.736 101.874C78.2558 101.118 78.8285 100.341 79.4514 99.541C80.183 98.592 80.9843 97.6193 81.865 96.641C82.4085 96.0293 82.9799 95.4231 83.5805 94.8113C84.3344 94.0462 85.1357 93.2784 85.9871 92.5245C86.5362 92.0326 87.102 91.549 87.7026 91.0724C88.3032 90.5958 88.8982 90.129 89.5267 89.6705C89.7037 89.5395 89.8821 89.4086 90.0646 89.2817C90.459 89.003 90.8534 88.7341 91.2422 88.4707C92.0602 87.9328 92.867 87.4409 93.6502 86.9949C94.2271 86.6633 94.7985 86.3609 95.3657 86.0808C96.1893 85.6627 96.9891 85.2962 97.7779 84.9659C98.3613 84.7207 98.9331 84.4977 99.4933 84.297C100.317 83.9997 101.12 83.7368 101.901 83.5083C102.484 83.3369 103.057 83.1822 103.617 83.0345C104.44 82.8227 105.246 82.6332 106.029 82.4562C106.39 82.3767 106.744 82.2959 107.094 82.2165C107.311 82.1649 107.534 82.1189 107.746 82.0771C108.563 81.889 109.364 81.705 110.153 81.5058C110.729 81.3567 111.297 81.202 111.868 81.025C112.675 80.7853 113.48 80.5052 114.282 80.1791C114.853 79.9506 115.424 79.6928 115.997 79.4015C116.827 78.9824 117.631 78.5123 118.404 77.994C118.969 77.6178 119.541 77.1997 120.119 76.7399C120.668 76.2995 121.223 75.8243 121.791 75.2989C122.032 75.076 122.261 74.8586 122.488 74.6356C123.054 74.0866 123.586 73.5208 124.084 72.9634C124.826 72.1335 125.527 71.2671 126.182 70.3672C126.68 69.6816 127.137 68.9959 127.548 68.3201C128.18 67.3019 128.749 66.2459 129.252 65.1581C129.652 64.2955 129.997 63.4538 130.282 62.6498C130.597 61.7802 130.848 60.951 131.054 60.1846C131.746 61.9759 132.323 63.8099 132.779 65.6751Z" fill="#143456"/>
<path d="M134.033 74.8394C133.569 75.6059 133.066 76.3723 132.501 77.1555C131.974 77.8871 131.402 78.6257 130.785 79.3628C130.054 80.2324 129.251 81.0997 128.377 81.9646C128.11 82.2335 127.82 82.5025 127.541 82.7714C127.262 83.0404 126.958 83.308 126.666 83.5546C125.896 84.2296 125.091 84.8632 124.254 85.4526C123.676 85.8595 123.104 86.2312 122.538 86.5675C121.757 87.0344 120.952 87.4582 120.125 87.837C119.548 88.1059 118.975 88.34 118.409 88.5574C117.604 88.8668 116.802 89.1302 116.002 89.3643C115.429 89.5306 114.857 89.6848 114.287 89.8269C113.486 90.0276 112.68 90.2102 111.873 90.3927L111.262 90.5321C110.895 90.6115 110.53 90.6979 110.158 90.7773C109.364 90.9613 108.562 91.155 107.751 91.3668C107.184 91.5108 106.611 91.6711 106.034 91.8476C105.246 92.0817 104.446 92.3507 103.622 92.6586C103.065 92.8704 102.489 93.099 101.907 93.3554C101.124 93.6982 100.322 94.087 99.4987 94.5329C98.9413 94.8312 98.3672 95.1628 97.7833 95.5168C97.0345 95.9739 96.2624 96.4848 95.4672 97.0497C95.4338 97.072 95.3989 97.0957 95.371 97.118C94.776 97.536 94.2046 97.9694 93.6556 98.4098C92.8083 99.0787 92.0084 99.7601 91.2475 100.457C91.1625 100.532 91.0817 100.606 91.0023 100.68C90.8183 100.846 90.6414 101.012 90.47 101.183C90.3445 101.297 90.2191 101.418 90.0979 101.544C89.9042 101.726 89.716 101.916 89.5321 102.101C88.8869 102.748 88.2779 103.4 87.7079 104.045C87.1022 104.732 86.5304 105.412 85.9925 106.087C85.0951 107.213 84.3007 108.316 83.5859 109.357C82.9448 110.301 82.3735 111.2 81.8704 112.027C81.1834 113.155 80.6162 114.15 80.1605 114.962C79.9194 115.38 79.6853 115.814 79.4637 116.243C78.852 117.386 78.2806 118.541 77.7483 119.727C77.6633 119.909 77.5769 120.092 77.4975 120.274C77.4166 120.258 77.3316 120.235 77.2508 120.212C76.6228 120.052 75.9864 119.869 75.3417 119.663C74.964 119.543 74.5808 119.417 74.1864 119.279C74.5515 118.443 74.9347 117.607 75.3417 116.781C75.913 115.598 76.5303 114.426 77.1825 113.276C77.3544 112.967 77.543 112.635 77.7483 112.281C78.2291 111.445 78.8004 110.47 79.4637 109.405C80.1605 108.301 80.9562 107.1 81.8774 105.843C82.4027 105.11 82.981 104.362 83.5928 103.601C84.3295 102.687 85.1318 101.762 85.9995 100.828C86.5429 100.244 87.1143 99.6556 87.7149 99.0773C88.2932 98.5059 88.905 97.9402 89.5391 97.3855C90.0881 96.8997 90.6599 96.4193 91.2545 95.9446C91.9694 95.3719 92.7136 94.8061 93.4842 94.257L93.6556 94.1372C94.2381 93.7191 94.8039 93.3484 95.371 92.9875C96.1946 92.4677 96.9945 91.9981 97.7833 91.5758C98.3672 91.2609 98.9329 90.9697 99.4987 90.7007C100.322 90.3063 101.124 89.9635 101.907 89.6597C102.489 89.4256 103.062 89.2194 103.622 89.0257C104.446 88.7469 105.25 88.4989 106.034 88.2815C106.618 88.1213 107.184 87.9735 107.751 87.8356C108.568 87.6349 109.375 87.4524 110.158 87.2782C110.278 87.2489 110.392 87.2266 110.512 87.1987C110.97 87.0956 111.422 86.9925 111.873 86.8949C112.691 86.6998 113.491 86.5117 114.287 86.2943C114.864 86.1341 115.435 85.9682 116.002 85.7801C116.82 85.5124 117.623 85.2031 118.409 84.8534C118.982 84.6026 119.553 84.3225 120.125 84.0075C120.959 83.545 121.765 83.0331 122.538 82.4746C123.104 82.0691 123.675 81.6176 124.254 81.1257C124.567 80.8567 124.888 80.5683 125.208 80.2728C125.722 79.799 126.209 79.3182 126.666 78.8375C127.285 78.1978 127.856 77.5512 128.381 76.9046C129.223 75.8955 129.996 74.8318 130.697 73.7204C131.237 72.876 131.733 72.0044 132.183 71.1089C132.622 70.2599 133.015 69.3876 133.36 68.496C133.739 70.5913 133.964 72.7114 134.033 74.8394Z" fill="#143456"/>
<path d="M37.76 41.3326L31.7496 37.4502L30.664 39.1308L36.5852 42.9603C37.3795 43.4717 37.4617 44.2883 36.7148 45.4436L36.2117 46.8273L31.0668 44.5684C30.076 46.8245 29.1047 49.4765 32.1677 50.8212C32.2234 50.8115 32.1677 50.785 34.0866 51.6643L32.0478 56.3104C31.6298 56.0317 30.9191 55.5356 30.5149 55.0255C29.5659 53.8034 29.8182 52.8307 30.3839 51.5417L28.8162 50.8449C27.6345 53.4564 28.0247 55.1147 29.5032 56.7243C30.4439 57.7666 31.9447 58.5359 32.8658 59.0222L36.5796 50.5648L33.1501 49.0584C31.8959 48.501 31.8569 47.7401 32.0952 47.198L37.0938 49.3928L38.6672 45.7125C39.5325 43.9079 39.2204 42.276 37.76 41.3326Z" fill="#143456"/>
<path d="M44.8077 36.5602L39.3868 32.2165L37.3356 34.7778C36.034 36.4013 36.4534 38.2338 38.4142 39.8043C40.4376 41.4264 42.0945 41.4766 43.3961 39.8587C44.1068 38.9724 43.9465 38.1474 43.7849 37.7098C44.9763 38.6031 44.3883 39.7723 43.9075 40.3715L45.1965 41.425C46.5831 39.8141 46.5371 37.9523 44.8077 36.5602ZM42.1516 38.5961C41.3615 39.5828 40.315 38.7647 39.6433 38.2241C38.9939 37.7029 38.0839 36.6912 38.8155 35.7756L39.5248 34.8893L41.2876 36.301C41.9761 36.8612 42.9557 37.5844 42.1447 38.5961H42.1516Z" fill="#143456"/>
<path d="M37.3768 27.5988L36.8653 28.0837L37.406 28.6523L39.8865 26.2833L39.3445 25.7147L38.0122 26.9856L37.891 26.8574C37.7363 26.6957 37.4047 26.3474 37.7405 26.0213C37.7913 25.973 37.8533 25.9383 37.921 25.9202C37.9887 25.9022 38.0599 25.9015 38.1279 25.9181C38.1279 25.9181 38.5627 25.3287 38.6435 25.2283C38.1167 24.9998 37.6513 25.0681 37.1984 25.4987C36.3414 26.3167 36.9991 27.1932 37.2639 27.4719L37.3768 27.5988Z" fill="#143456"/>
<path d="M43.8566 23.7296L42.4073 25.1093L46.6493 29.5602C47.013 29.9435 47.4338 30.3378 47.6484 30.8646C47.8073 31.3091 47.6805 31.8721 47.4018 32.1383L47.2164 32.3153L41.351 26.16L39.8683 27.5744L45.7337 33.7283L44.7582 34.6564L46.0277 35.9886L48.6936 33.4482C50.0147 32.194 50.1289 30.3127 48.7033 28.8175L43.8566 23.7296Z" fill="#143456"/>
<path d="M47.2444 21.0856L45.6692 22.3199L52.0663 30.4843L53.6415 29.2501L47.2444 21.0856Z" fill="#143456"/>
<path d="M71.5954 21.329L69.8859 21.8131L70.4311 23.7385L72.1406 23.2545L71.5954 21.329Z" fill="#143456"/>
<path d="M74.0771 20.6276L72.3662 21.1121L72.9114 23.0375L74.6223 22.5531L74.0771 20.6276Z" fill="#143456"/>
<path d="M80.9979 14.7463L80.3443 10.5085L78.3669 10.8151L79.0107 14.9581C79.1501 15.8918 78.5926 16.4799 77.2395 16.6917L75.3276 17.0749L74.7702 17.2324C73.8142 17.5027 73.2373 17.2185 73.0519 16.5705L71.8214 12.2254L69.8802 12.7744L71.0968 17.0749C71.2891 17.7522 70.9644 18.3096 70.1631 18.5367L69.6266 18.7569L67.73 19.4216L67.507 19.5122L67.2687 19.5972L65.3596 20.372L64.9694 20.5839L62.5446 21.9021L63.4894 19.3826C62.3969 17.3703 60.0822 16.5691 57.663 17.8846C55.2438 19.2001 54.6572 21.5775 55.7511 23.5897L58.3514 24.182L58.0839 24.3213C56.551 25.5755 56.9426 27.6212 57.4247 28.5089L58.0518 29.6628L59.7687 28.7291L59.1416 27.5753C58.8127 26.9705 58.8015 26.0103 59.7868 25.4752L59.9624 25.3971C60.4353 25.1528 60.8651 24.8327 61.2347 24.4495C61.755 24.3392 62.2558 24.1513 62.7202 23.8921L66.1121 22.0568L68.155 21.2333L70.6926 20.2968C71.6026 20.032 72.3231 19.5638 72.7286 18.9032C73.5059 19.2126 74.3643 19.2534 75.1673 19.0189L78.1648 18.3653V18.3556C80.1896 17.8497 81.271 16.5119 80.9979 14.7463ZM60.3219 22.7815C59.6725 22.6602 58.1201 22.3188 57.3746 22.1223C56.9565 21.2332 57.3383 20.0097 58.5145 19.4244C59.6906 18.8029 60.8487 19.1583 61.3712 19.9498L60.3219 22.7815Z" fill="#143456"/>
<path d="M81.1821 19.1914L79.173 19.5035L79.4802 21.4809L81.4892 21.1688L81.1821 19.1914Z" fill="#143456"/>
<path d="M94.1324 6.38444L93.9722 8.38696L96.0067 8.54973L96.1669 6.54721L94.1324 6.38444Z" fill="#143456"/>
<path d="M102.336 20.2069L101.842 22.146L103.564 22.5849L104.058 20.6457L102.336 20.2069Z" fill="#143456"/>
<path d="M99.8588 19.5853L99.3645 21.5244L101.088 21.9636L101.582 20.0245L99.8588 19.5853Z" fill="#143456"/>
<path d="M111.08 10.6943L108.789 17.3526C108.524 18.1218 107.912 18.4298 106.919 18.2166V18.2054L106.417 18.0786H106.405L106.36 18.0675C105.398 17.8222 105.039 17.2843 105.205 16.6335L106.32 12.2578L104.369 11.7589L103.266 16.0886C103.092 16.7715 102.531 17.0906 101.725 16.8858L99.1804 16.3743L98.9979 16.3465L98.7108 16.3046L96.1718 15.9702C95.181 15.8936 94.7364 15.4253 94.788 14.755L95.1392 10.2358L93.1255 10.0727L92.7785 14.5432C92.7241 15.24 92.2211 15.658 91.3961 15.5925L88.6717 15.5814L86.0588 15.6525C85.075 15.6121 84.6973 15.1466 84.6291 14.3063L84.0535 7.28564L82.058 7.45008L82.6377 14.5167C82.777 16.3005 83.8919 17.393 85.8735 17.4892L88.6912 17.4209H91.3097C92.2448 17.4822 93.0739 17.2941 93.6787 16.8217C94.2626 17.3651 95.0388 17.7149 96.0282 17.7971L98.6955 18.1539L101.269 18.6597C102.2 18.8966 103.07 18.8548 103.76 18.4855C104.225 19.0973 104.902 19.5558 105.81 19.8094C105.843 19.8178 105.871 19.8317 105.904 19.8415L106.197 19.9153C108.353 20.5201 110.038 19.8582 110.641 18.1037L112.97 11.3381L111.08 10.6943Z" fill="#143456"/>
<path d="M114.877 12.0456L110.876 21.615L112.723 22.3869L116.724 12.8175L114.877 12.0456Z" fill="#143456"/>
<path d="M125.156 17.7707L124.114 19.4728L125.639 20.4055L126.68 18.7033L125.156 17.7707Z" fill="#143456"/>
<path d="M123.482 15.633L122.44 17.3432L123.959 18.2683L125.001 16.5581L123.482 15.633Z" fill="#143456"/>
<path d="M132.893 36.9111L135.577 34.1798C137.004 32.7305 137.095 31.2534 135.646 29.8194L133.512 27.7179L133.938 27.2846C134.287 26.9306 134.875 26.9264 135.538 27.5786L137.786 29.7915L139.078 28.4788L136.83 26.2659C135.449 24.9058 133.749 24.7149 132.58 25.9022L130.827 27.6831L134.285 31.0875C134.879 31.6714 134.758 32.1592 134.118 32.8099L132.758 34.191L128.7 30.1957L126.834 28.5234L126.646 28.3841L126.443 28.2308L124.405 26.7731L122.819 25.8074L125.746 21.0066L122.928 19.2898C121.178 18.2237 119.524 18.6599 118.2 20.8352C116.783 23.1597 117.856 24.9392 119.046 25.6639L123.876 28.6014L125.506 29.8306L126.95 31.0611L132.893 36.9111ZM120.095 24.1463C119.384 23.7129 119.43 22.6524 119.904 21.8734C120.322 21.1892 121.158 20.275 122.103 20.8506L123.115 21.4665L121.107 24.7622L120.095 24.1463Z" fill="#143456"/>
<path d="M152.531 48.298L150.69 49.0825L151.317 50.5555L153.158 49.7711L152.531 48.298Z" fill="#143456"/>
<path d="M147.568 55.8652C146.229 56.4365 146.084 56.2192 145.858 55.6896L145.421 54.6654L150.605 52.458L149.808 50.5879L144.624 52.7952L143.608 50.4095L148.792 48.2021L148.027 46.4058L142.843 48.6132L141.787 46.3139L140.778 44.6026H140.786L140.647 44.3824L140.535 44.1943H140.527L139.429 42.483L139.305 42.3074L139.165 42.0817H139.156L138.028 40.4847L137.918 40.245C137.244 39.4089 137.127 38.5797 137.918 37.9456C139.033 37.005 141.158 35.284 141.158 35.284L139.921 33.7511L135.153 37.6056C134.306 38.2898 133.314 39.1747 132.287 37.9052L130.893 39.0326C132.34 40.9501 134.387 40.7564 135.719 39.6806C135.711 40.1377 136.013 40.6979 136.253 41.0644L137.786 43.3303L139.093 45.3495L140.424 47.6057L144.186 56.4533C144.863 58.0447 146.155 58.6244 147.809 57.9221L152.154 56.0714L151.377 54.2459L147.568 55.8652Z" fill="#143456"/>
<path d="M155.191 48.4027L153.586 49.0864L154.225 50.5878L155.83 49.9041L155.191 48.4027Z" fill="#143456"/>
<path d="M153.463 50.5058L151.622 51.2899L152.256 52.7771L154.097 51.993L153.463 50.5058Z" fill="#143456"/>
<path d="M40.3727 104.733L38.8096 105.739L39.7109 107.139L41.2741 106.133L40.3727 104.733Z" fill="#143456"/>
<path d="M39.9715 104.107L39.0783 102.719L37.5161 103.725L38.4094 105.113L39.9715 104.107Z" fill="#143456"/>
<path d="M34.5641 115.265L33.0769 116.38L34.0669 117.7L35.5541 116.585L34.5641 115.265Z" fill="#143456"/>
<path d="M32.8921 113.935L31.403 115.046L32.3892 116.368L33.8784 115.258L32.8921 113.935Z" fill="#143456"/>
<path d="M48.4412 119.685L47.116 118.383L44.3902 121.171C43.8063 121.767 42.2553 120.921 42.2553 120.921L40.4757 118.97L38.7366 116.916L38.4844 116.637C37.9269 115.899 37.9883 115.301 38.4844 114.928L41.8456 112.419L40.7307 110.918L37.4058 113.397C36.8818 113.789 36.2909 113.691 35.8269 113.073L35.5077 112.643L34.4041 110.949L38.7909 108.123L37.1326 105.548C36.1028 103.948 34.5434 103.643 32.5562 104.922C30.4311 106.29 30.6053 108.212 31.302 109.3C32.1632 110.637 34.4514 114.096 34.4514 114.096C34.9852 114.809 35.6373 115.287 36.3508 115.424C36.339 116.232 36.6068 117.02 37.1089 117.653L37.4629 118.059L39.117 120.01L39.1923 120.092L39.2257 120.131L40.9189 122.019C42.5619 123.632 44.3721 123.824 45.6569 122.518L48.4412 119.685ZM33.391 109.384L32.7945 108.46C32.3765 107.809 32.8433 106.943 33.5554 106.484C34.1811 106.081 35.2513 105.656 35.8074 106.519L36.4038 107.444L33.391 109.384Z" fill="#143456"/>
<path d="M49.8346 118.073L48.4411 116.71L48.5804 116.57C48.7365 116.412 49.0905 116.049 49.4416 116.393C49.5475 116.498 49.5587 116.591 49.5406 116.802C49.5406 116.802 50.1844 117.206 50.3112 117.289C50.4172 117.041 50.4424 116.765 50.3831 116.502C50.3238 116.238 50.1831 116 49.9809 115.821C49.0807 114.936 48.1833 115.64 47.9032 115.946L47.7889 116.063L47.2468 115.532L46.6643 116.127L49.2535 118.665L49.8346 118.073Z" fill="#143456"/>
<path d="M51.2585 118.6L44.9497 125.881L46.3536 127.097L52.6623 119.817L51.2585 118.6Z" fill="#143456"/>
<path d="M55.586 121.517L54.4991 123.023L56.0067 124.111L57.0936 122.605L55.586 121.517Z" fill="#143456"/>
<path d="M65.9209 127.584L64.2403 126.791L63.4474 128.472L65.128 129.265L65.9209 127.584Z" fill="#143456"/>
<path d="M70.5884 129.948L68.512 136.152C68.2514 136.929 67.6048 137.203 66.5318 136.904L63.4813 135.7L65.8866 135.026C66.7938 133.104 66.1249 130.932 63.813 129.841C61.5011 128.749 59.3983 129.616 58.4925 131.539L59.4888 133.816L57.092 132.562L57.0989 132.551L54.3815 130.978L52.9197 129.923L54.4526 127.802C55.5047 126.343 55.3695 125.108 53.8269 123.995L52.595 125.141C53.3308 125.672 53.3963 126.141 52.6131 127.232L51.4384 128.858L48.8826 127.014L47.8834 128.4C53.1022 132.162 56.1848 133.99 56.1848 133.99L59.4498 135.691C59.8951 135.904 60.3694 136.05 60.8573 136.124C61.2198 136.451 61.6294 136.722 62.0725 136.927L65.7723 138.46C67.9574 139.191 69.6742 138.572 70.2498 136.837L72.3582 130.536L70.5884 129.948ZM61.6001 134.516C61.3339 133.958 60.7514 132.619 60.4769 131.948C60.9172 131.153 62.039 130.762 63.1246 131.322C64.2394 131.861 64.6045 132.923 64.284 133.742L61.6001 134.516Z" fill="#143456"/>
<path d="M73.5445 130.84L71.062 140.144L72.8568 140.623L75.3393 131.319L73.5445 130.84Z" fill="#143456"/>
<path d="M80.7114 134.99L80.154 136.58C81.0528 136.704 81.3301 137.087 81.1476 138.412L80.8688 140.401L77.7473 139.969L77.5132 141.663L82.4463 142.344L83.0386 138.058C83.2936 136.276 82.5968 135.25 80.7114 134.99Z" fill="#143456"/>
<path d="M84.956 132.839L84.413 142.461L86.269 142.566L86.812 132.943L84.956 132.839Z" fill="#143456"/>
<path d="M107.142 130.178L105.368 130.736L107.319 136.982C107.581 137.818 107.155 138.452 105.933 138.834L105.604 138.913C104.699 139.086 104.211 138.878 104.087 138.264C103.72 136.352 102.341 134.996 100.312 135.383C98.3609 135.758 97.5247 137.326 97.8034 139.466C97.887 140.257 97.2167 140.463 96.5701 140.626L94.2861 140.748L94.0785 135.521L91.0057 135.642C89.1049 135.718 88.0793 137.067 88.1657 139.429C88.2646 141.937 89.9773 142.634 91.2789 142.577L92.3937 142.534C92.3589 143.144 91.7847 143.648 91.0266 143.687L91.0949 145.41L91.4196 145.368C92.9316 145.219 94.1816 144.114 94.346 142.457L97.1819 142.266C97.7376 142.175 98.2657 141.96 98.7274 141.638C99.4102 142.521 100.469 142.908 101.714 142.685C102.999 142.44 103.804 141.665 104.102 140.534C104.855 140.753 106.45 140.466 106.45 140.466C108.649 139.777 109.675 138.272 109.127 136.526L107.142 130.178ZM91.2552 140.867C90.4832 140.898 90.0693 140.185 90.0358 139.353C90.0066 138.597 90.1041 137.343 91.1158 137.304L92.3031 137.256L92.4425 140.819L91.2552 140.867ZM101.397 141.006C100.653 141.146 100.058 140.728 99.7697 139.228C99.4729 137.681 99.8728 137.074 100.617 136.932C101.361 136.789 101.956 137.21 102.261 138.797C102.533 140.241 102.137 140.863 101.393 141.005L101.397 141.006Z" fill="#143456"/>
<path d="M110.01 129.089L108.275 129.754L111.721 138.748L113.455 138.084L110.01 129.089Z" fill="#143456"/>
<path d="M134.715 125.924L133.484 127.022L134.72 128.408L135.951 127.31L134.715 125.924Z" fill="#143456"/>
<path d="M132.23 122.671L129.582 119.696L128.195 120.932L130.785 123.839C131.359 124.483 131.355 125.083 130.442 125.929L130.385 125.981L128.333 127.59L126.221 129.143L123.65 130.913L124.462 128.552C123.395 126.712 121.228 126.028 119.016 127.31C116.805 128.592 116.322 130.815 117.39 132.653L119.817 133.135L119.573 133.275C118.188 134.472 118.598 136.365 119.069 137.176L119.681 138.231L121.25 137.321L120.638 136.267C120.316 135.709 120.281 134.824 121.182 134.302L121.343 134.225C121.775 133.986 122.166 133.678 122.499 133.314C122.979 133.197 123.439 133.009 123.864 132.756L127.153 130.572L129.261 129.021L131.469 127.296L131.579 127.199C133.266 125.688 133.436 124.024 132.23 122.671ZM121.609 131.79C121.005 131.696 119.555 131.418 118.86 131.255C118.456 130.441 118.771 129.296 119.848 128.723C120.922 128.117 122.007 128.415 122.511 129.141L121.609 131.79Z" fill="#143456"/>
<path d="M132.939 127.517L131.697 128.623L132.932 130.011L134.175 128.904L132.939 127.517Z" fill="#143456"/>
<path d="M132.323 116.976L131.039 118.279L135.088 122.265C135.808 122.974 136.729 123.798 135.664 124.878L136.852 126.047C138.479 124.499 138.066 122.63 136.91 121.493C132.462 117.07 132.323 116.976 132.323 116.976Z" fill="#143456"/>
<path d="M130.059 114.745L128.755 116.07L130.08 117.374L131.384 116.049L130.059 114.745Z" fill="#143456"/>
<path d="M135.897 107.38L135.088 108.662L136.66 109.654L137.469 108.372L135.897 107.38Z" fill="#143456"/>
<path d="M137.088 105.494L136.278 106.776L137.85 107.768L138.66 106.486L137.088 105.494Z" fill="#143456"/>
<path d="M145.787 104.554L139.911 101.447L139.042 103.09L144.826 106.155C145.601 106.574 145.745 107.314 145.146 108.445H145.16L144.923 108.82C144.431 109.599 143.854 109.762 143.326 109.429L139.768 107.184L138.769 108.768L142.289 110.99C142.846 111.338 142.963 111.926 142.551 112.58L141.192 114.531L137.108 111.261L135.185 113.664C133.996 115.149 134.34 116.813 136.185 118.29C138.146 119.86 139.787 119.021 140.604 118.001L141.301 117.13C141.74 117.557 141.74 118.318 141.277 118.919L142.623 119.996L142.804 119.717C143.253 119.109 143.471 118.362 143.418 117.608C143.365 116.854 143.046 116.143 142.517 115.604L143.71 113.94L143.989 113.487C144.466 112.733 144.677 111.954 144.546 111.238C145.306 110.959 145.947 110.426 146.358 109.729L146.637 109.276L146.205 108.997L146.639 109.227C147.736 107.202 147.405 105.414 145.787 104.554ZM139.29 116.912C138.806 117.516 137.997 117.362 137.347 116.843C136.755 116.369 135.873 115.473 136.511 114.684L137.253 113.754L140.04 115.984L139.29 116.912Z" fill="#143456"/>
<path d="M89.0206 152.5C73.0083 152.52 57.3972 147.491 44.4064 138.13C31.4156 128.769 21.7061 115.551 16.6581 100.355L18.354 99.7976C23.3013 114.628 32.7894 127.527 45.4744 136.666C58.1594 145.805 73.3982 150.721 89.0324 150.718C104.667 150.715 119.904 145.794 132.585 136.65C145.267 127.507 154.751 114.605 159.693 99.7725L161.389 100.33C156.345 115.532 146.637 128.756 133.645 138.123C120.652 147.489 105.037 152.52 89.0206 152.5Z" fill="#CCA055"/>
<path d="M160.769 56.2573C151.851 24.1863 122.348 1.78792 89.0215 1.78792C55.9096 1.78792 26.4515 24.0038 17.3935 55.8128L15.6836 55.3236C24.9604 22.7496 55.1208 0 89.0257 0C123.152 0 153.363 22.9363 162.496 55.7779L160.769 56.2573Z" fill="#CCA055"/>
<path d="M89.0212 127.846C60.5707 127.846 37.424 104.7 37.424 76.2497C37.424 47.7991 60.5707 24.6523 89.0212 24.6523C117.472 24.6523 140.619 47.7991 140.619 76.2497C140.619 104.7 117.472 127.846 89.0212 127.846ZM89.0212 26.4389C61.5559 26.4389 39.2119 48.7843 39.2119 76.2497C39.2119 103.715 61.5559 126.059 89.0212 126.059C116.487 126.059 138.831 103.718 138.831 76.2497C138.831 48.7815 116.487 26.4389 89.0212 26.4389Z" fill="#CCA055"/>
<path d="M170.157 78.5668L140.027 78.5125C139.79 78.5125 139.563 78.4184 139.396 78.2509C139.228 78.0833 139.134 77.8561 139.134 77.6192C139.134 77.3823 139.228 77.1551 139.396 76.9876C139.563 76.8201 139.79 76.726 140.027 76.726L170.157 76.7803C170.394 76.7803 170.621 76.8744 170.789 77.042C170.956 77.2095 171.05 77.4367 171.05 77.6736C171.05 77.9105 170.956 78.1377 170.789 78.3052C170.621 78.4727 170.394 78.5668 170.157 78.5668Z" fill="#CCA055"/>
<path d="M168.779 82.0996H168.751C164.332 82.0843 160.865 78.4067 160.72 78.2507C160.565 78.0853 160.478 77.8671 160.478 77.6403C160.478 77.4135 160.565 77.1953 160.72 77.0299C160.859 76.8738 164.343 73.2367 168.751 73.2367H168.779C173.199 73.252 176.665 76.9282 176.811 77.0843C176.966 77.2498 177.052 77.468 177.052 77.6946C177.052 77.9213 176.966 78.1395 176.811 78.305C176.665 78.4611 173.186 82.0996 168.779 82.0996ZM162.681 77.6403C163.774 78.5865 166.116 80.2978 168.758 80.3061H168.779C171.426 80.3061 173.759 78.6213 174.853 77.6849C173.759 76.7373 171.418 75.0274 168.776 75.0176H168.755C166.11 75.0232 163.776 76.708 162.681 77.6459V77.6403Z" fill="#CCA055"/>
<path d="M152.592 78.356C152.415 78.3566 152.241 78.3041 152.093 78.2053C151.945 78.1065 151.83 77.9659 151.762 77.8014C151.694 77.6368 151.677 77.4559 151.713 77.2816C151.749 77.1074 151.836 76.9477 151.963 76.8231L158.819 70.0142C158.899 69.9206 158.998 69.8447 159.11 69.7913C159.221 69.7379 159.342 69.7081 159.466 69.7038C159.589 69.6996 159.712 69.7209 159.827 69.7665C159.942 69.8121 160.046 69.881 160.133 69.9689C160.22 70.0567 160.287 70.1615 160.332 70.2768C160.376 70.3921 160.396 70.5153 160.39 70.6387C160.385 70.7621 160.354 70.883 160.299 70.9938C160.244 71.1046 160.167 71.2028 160.073 71.2824L153.225 78.0912C153.143 78.1752 153.044 78.2418 152.935 78.2873C152.827 78.3327 152.71 78.3561 152.592 78.356Z" fill="#CCA055"/>
<path d="M155.077 76.013C154.987 76.013 154.937 76.013 154.915 76.013C154.69 76.0033 154.477 75.9091 154.319 75.7491C154.16 75.5892 154.068 75.3754 154.061 75.1504C154.061 74.9915 153.973 71.2387 156.311 68.9143C158.65 66.5899 162.405 66.7014 162.564 66.7055C162.791 66.7136 163.006 66.8074 163.166 66.9681C163.326 67.1288 163.418 67.3443 163.425 67.5709C163.425 67.7298 163.513 71.484 161.172 73.807C159.077 75.8848 155.84 76.013 155.077 76.013ZM161.586 68.5311C160.52 68.6412 158.754 69.0021 157.571 70.1755C156.388 71.3488 156.017 73.1131 155.899 74.1791C156.965 74.069 158.729 73.7081 159.911 72.5333C161.09 71.36 161.463 69.5971 161.586 68.5311Z" fill="#CCA055"/>
<path d="M159.45 85.5767C159.333 85.5769 159.217 85.5539 159.109 85.5092C159.001 85.4645 158.902 85.3989 158.819 85.3161L151.963 78.5073C151.81 78.3379 151.728 78.1165 151.734 77.8885C151.739 77.6606 151.831 77.4433 151.991 77.2812C152.152 77.119 152.368 77.0244 152.596 77.0165C152.824 77.0087 153.046 77.0884 153.217 77.2391L160.075 84.048C160.202 84.1726 160.289 84.3323 160.324 84.5065C160.36 84.6808 160.343 84.8617 160.275 85.0263C160.208 85.1908 160.093 85.3314 159.945 85.4302C159.797 85.529 159.623 85.5815 159.445 85.5809L159.45 85.5767Z" fill="#CCA055"/>
<path d="M162.399 88.6323C161.633 88.6323 158.404 88.504 156.307 86.4221C153.969 84.0977 154.052 80.3449 154.056 80.186C154.063 79.9594 154.155 79.7437 154.315 79.5828C154.475 79.4218 154.69 79.3276 154.916 79.3192C155.078 79.3192 158.829 79.2049 161.168 81.528C163.509 83.8524 163.425 87.6052 163.421 87.7641C163.414 87.9908 163.321 88.2065 163.161 88.3674C163.001 88.5283 162.786 88.6225 162.56 88.6309L162.399 88.6323ZM155.896 81.1517C156.013 82.2164 156.385 83.9806 157.568 85.154C158.751 86.3273 160.52 86.6869 161.581 86.8011C161.464 85.7365 161.092 83.9722 159.909 82.7961C158.726 81.6227 156.962 81.2618 155.896 81.1517Z" fill="#CCA055"/>
<path d="M143.554 78.3991C143.376 78.4003 143.201 78.3483 143.053 78.2496C142.904 78.1509 142.789 78.0101 142.721 77.8453C142.653 77.6805 142.637 77.4992 142.673 77.3247C142.709 77.1502 142.796 76.9905 142.924 76.8662L148.247 71.5805C148.328 71.4888 148.427 71.4148 148.538 71.363C148.649 71.3112 148.769 71.2826 148.891 71.2792C149.014 71.2757 149.135 71.2974 149.249 71.3429C149.362 71.3884 149.465 71.4567 149.551 71.5436C149.637 71.6305 149.705 71.7342 149.749 71.8482C149.793 71.9621 149.814 72.084 149.809 72.2062C149.804 72.3284 149.775 72.4484 149.722 72.5586C149.669 72.6689 149.594 72.7671 149.501 72.8472L144.18 78.1343C144.014 78.3013 143.789 78.3964 143.554 78.3991Z" fill="#CCA055"/>
<path d="M145.479 76.5834C145.409 76.5834 145.364 76.5834 145.351 76.5834C145.124 76.5751 144.91 76.481 144.75 76.3204C144.59 76.1597 144.498 75.9444 144.491 75.718C144.491 75.5912 144.42 72.5937 146.302 70.7278C148.185 68.8618 151.171 68.9496 151.305 68.9552C151.531 68.9646 151.746 69.0591 151.905 69.2198C152.065 69.3806 152.157 69.5957 152.165 69.822C152.165 69.9488 152.236 72.9463 150.353 74.8108C148.67 76.4803 146.086 76.5834 145.479 76.5834ZM150.3 70.803C149.496 70.9145 148.349 71.2099 147.556 71.9931C146.764 72.7763 146.467 73.9259 146.35 74.73C147.152 74.6199 148.301 74.3245 149.092 73.5399C149.884 72.7554 150.183 71.6085 150.299 70.803H150.3Z" fill="#CCA055"/>
<path d="M148.878 84.0054C148.642 84.0059 148.416 83.9127 148.248 83.7462L142.925 78.4605C142.838 78.3787 142.767 78.2801 142.719 78.1707C142.67 78.0612 142.644 77.9431 142.642 77.8234C142.64 77.7036 142.661 77.5846 142.706 77.4735C142.751 77.3623 142.817 77.2613 142.902 77.1764C142.986 77.0914 143.087 77.0243 143.198 76.979C143.309 76.9337 143.428 76.9112 143.547 76.9127C143.667 76.9142 143.785 76.9397 143.895 76.9877C144.005 77.0358 144.104 77.1054 144.186 77.1924L149.508 82.4781C149.636 82.6025 149.723 82.7622 149.759 82.9367C149.795 83.1112 149.779 83.2925 149.711 83.4573C149.643 83.6221 149.528 83.7629 149.379 83.8616C149.231 83.9602 149.056 84.0123 148.878 84.011V84.0054Z" fill="#CCA055"/>
<path d="M151.172 86.3798C150.564 86.3798 147.982 86.2767 146.294 84.6044C144.416 82.7399 144.483 79.7424 144.483 79.6156C144.49 79.3892 144.582 79.1739 144.742 79.0132C144.902 78.8526 145.116 78.7585 145.343 78.7502C145.468 78.7502 148.468 78.6568 150.345 80.5214C152.222 82.3859 152.157 85.3848 152.157 85.5102C152.15 85.7367 152.057 85.9522 151.898 86.1131C151.738 86.274 151.524 86.3683 151.297 86.377C151.286 86.3784 151.241 86.3798 151.172 86.3798ZM146.349 80.5994C146.464 81.4021 146.767 82.5504 147.557 83.3363C148.347 84.1223 149.497 84.4135 150.302 84.525C150.186 83.7223 149.884 82.5741 149.093 81.7895C148.301 81.0049 147.153 80.7109 146.349 80.5994Z" fill="#CCA055"/>
<path d="M38.1639 78.6045L7.84458 78.5502C7.6136 78.5411 7.39511 78.4429 7.23491 78.2762C7.07471 78.1096 6.98523 77.8874 6.98523 77.6562C6.98523 77.4251 7.07471 77.2029 7.23491 77.0362C7.39511 76.8696 7.6136 76.7714 7.84458 76.7623L38.1639 76.8166C38.3949 76.8257 38.6134 76.9239 38.7736 77.0906C38.9338 77.2572 39.0232 77.4794 39.0232 77.7106C39.0232 77.9417 38.9338 78.1639 38.7736 78.3306C38.6134 78.4973 38.3949 78.5954 38.1639 78.6045Z" fill="#CCA055"/>
<path d="M9.24565 82.0942H9.21778C4.79746 82.0788 1.33033 78.4027 1.1854 78.2452C1.03051 78.0797 0.944336 77.8615 0.944336 77.6348C0.944336 77.4081 1.03051 77.19 1.1854 77.0244C1.32475 76.8698 4.80861 73.2312 9.21778 73.2312H9.24565C13.6646 73.2466 17.1317 76.9227 17.278 77.0802C17.4326 77.2459 17.5186 77.464 17.5186 77.6906C17.5186 77.9171 17.4326 78.1353 17.278 78.3009C17.1303 78.4556 13.652 82.0942 9.24565 82.0942ZM3.14751 77.6348C4.24005 78.581 6.5812 80.2923 9.22336 80.3007C11.8948 80.3007 14.2164 78.6173 15.3173 77.678C14.222 76.7318 11.8822 75.0219 9.24147 75.0122H9.22057C6.57562 75.0122 4.24005 76.7039 3.14751 77.6404V77.6348Z" fill="#CCA055"/>
<path d="M18.5501 85.5758C18.3722 85.5764 18.1982 85.5239 18.0503 85.4252C17.9023 85.3264 17.7872 85.1857 17.7196 85.0212C17.652 84.8567 17.635 84.6757 17.6707 84.5015C17.7064 84.3272 17.7933 84.1676 17.9202 84.0429L24.7764 77.2341C24.8578 77.1437 24.9568 77.0709 25.0674 77.0202C25.1779 76.9695 25.2977 76.9418 25.4193 76.939C25.5409 76.9362 25.6617 76.9582 25.7745 77.0038C25.8873 77.0493 25.9896 77.1174 26.0751 77.2039C26.1606 77.2904 26.2276 77.3934 26.2719 77.5067C26.3162 77.62 26.3369 77.7411 26.3327 77.8627C26.3286 77.9842 26.2996 78.1036 26.2477 78.2136C26.1957 78.3236 26.1218 78.4218 26.0306 78.5022L19.1744 85.311C19.0096 85.4786 18.785 85.5738 18.5501 85.5758Z" fill="#CCA055"/>
<path d="M15.6028 88.6322H15.4426C15.2159 88.6238 15.0008 88.5297 14.841 88.3687C14.6811 88.2078 14.5883 87.9922 14.5814 87.7654C14.5814 87.6066 14.4922 83.8538 16.8333 81.5293C19.1745 79.2049 22.9259 79.315 23.0848 79.3206C23.3113 79.329 23.5262 79.4232 23.6859 79.5841C23.8455 79.7451 23.938 79.9607 23.9446 80.1874C23.9446 80.3462 24.0338 84.099 21.6926 86.4235C19.5967 88.504 16.3693 88.6322 15.6028 88.6322ZM22.1065 81.1517C21.0404 81.2618 19.2748 81.6227 18.0917 82.7961C16.903 83.9778 16.5323 85.7364 16.4195 86.7983C17.4841 86.6896 19.2511 86.3301 20.4356 85.1539C21.6202 83.9778 21.9895 82.2164 22.1065 81.1517Z" fill="#CCA055"/>
<path d="M25.4067 78.3564C25.2897 78.3566 25.1738 78.3338 25.0657 78.289C24.9576 78.2443 24.8594 78.1786 24.7768 78.0958L17.9206 71.2869C17.7679 71.1175 17.6859 70.8962 17.6912 70.6682C17.6965 70.4402 17.7887 70.2229 17.9491 70.0608C18.1094 69.8987 18.3257 69.804 18.5536 69.7962C18.7815 69.7884 19.0037 69.868 19.1748 70.0188L26.0366 76.8235C26.1635 76.9481 26.2503 77.1078 26.2861 77.282C26.3218 77.4563 26.3048 77.6372 26.2372 77.8017C26.1696 77.9663 26.0544 78.1069 25.9065 78.2057C25.7586 78.3045 25.5846 78.3569 25.4067 78.3564Z" fill="#CCA055"/>
<path d="M22.9302 76.0139C22.1679 76.0139 18.9377 75.8857 16.8404 73.8023C14.4992 71.4779 14.5843 67.7251 14.5884 67.5662C14.5954 67.3396 14.6882 67.1241 14.8481 66.9634C15.008 66.8027 15.2231 66.7089 15.4496 66.7008C15.6071 66.7008 19.3599 66.5852 21.6997 68.9096C24.0394 71.234 23.9572 74.9868 23.9516 75.1457C23.9447 75.3721 23.8521 75.5874 23.6925 75.748C23.5328 75.9087 23.3181 76.0027 23.0918 76.0111C23.0695 76.0125 23.0124 76.0139 22.9302 76.0139ZM16.4279 68.5333C16.5436 69.5966 16.917 71.3608 18.1002 72.5342C19.2833 73.709 21.0489 74.0671 22.115 74.1786C21.9979 73.1139 21.6244 71.3511 20.4427 70.1763C19.261 69.0016 17.4856 68.642 16.4209 68.5333H16.4279Z" fill="#CCA055"/>
<path d="M29.122 84.0051C28.9439 84.0061 28.7696 83.9539 28.6215 83.8551C28.4733 83.7563 28.3581 83.6155 28.2905 83.4507C28.223 83.286 28.2062 83.1048 28.2424 82.9304C28.2785 82.7561 28.366 82.5965 28.4935 82.4722L33.8154 77.1865C33.8969 77.0962 33.9959 77.0234 34.1064 76.9727C34.217 76.9219 34.3367 76.8943 34.4583 76.8915C34.5799 76.8887 34.7008 76.9107 34.8136 76.9562C34.9263 77.0018 35.0286 77.0699 35.1141 77.1564C35.1997 77.2428 35.2666 77.3459 35.3109 77.4592C35.3552 77.5724 35.3759 77.6935 35.3718 77.8151C35.3676 77.9366 35.3386 78.0561 35.2867 78.166C35.2347 78.276 35.1609 78.3742 35.0696 78.4546L29.7575 83.7459C29.6739 83.829 29.5748 83.8947 29.4657 83.9392C29.3566 83.9837 29.2398 84.0061 29.122 84.0051Z" fill="#CCA055"/>
<path d="M26.8314 86.3795C26.7617 86.3795 26.7171 86.3795 26.7046 86.3795C26.4778 86.3715 26.2625 86.2774 26.1026 86.1164C25.9426 85.9554 25.8499 85.7396 25.8433 85.5127C25.8433 85.3873 25.7737 82.3898 27.655 80.5239C29.5321 78.6593 32.5324 78.7457 32.6564 78.7527C32.8827 78.761 33.0974 78.8551 33.257 79.0157C33.4166 79.1764 33.5093 79.3917 33.5162 79.6181C33.5162 79.7449 33.5873 82.7424 31.7046 84.6069C30.0198 86.2764 27.4362 86.3795 26.8314 86.3795ZM28.9091 81.7892C28.1204 82.5738 27.8166 83.7234 27.7009 84.5261C28.505 84.416 29.6519 84.1206 30.4462 83.336C31.2405 82.5515 31.5388 81.4032 31.6544 80.5991C30.849 80.7106 29.6979 81.0032 28.9064 81.7892H28.9091Z" fill="#CCA055"/>
<path d="M34.4456 78.3979C34.2095 78.3983 33.983 78.3051 33.8157 78.1386L28.4937 72.8515C28.4013 72.7715 28.3263 72.6732 28.2734 72.563C28.2205 72.4527 28.1907 72.3328 28.1861 72.2106C28.1814 72.0884 28.2019 71.9665 28.2462 71.8525C28.2906 71.7385 28.3579 71.6349 28.4439 71.548C28.53 71.4611 28.6329 71.3928 28.7465 71.3473C28.86 71.3018 28.9817 71.2801 29.1039 71.2836C29.2262 71.287 29.3464 71.3155 29.4572 71.3674C29.568 71.4192 29.6669 71.4932 29.7479 71.5848L35.0713 76.8705C35.1989 76.9949 35.2863 77.1546 35.3225 77.3291C35.3586 77.5036 35.3417 77.6849 35.274 77.8497C35.2063 78.0145 35.0908 78.1553 34.9424 78.254C34.794 78.3526 34.6196 78.4047 34.4414 78.4034L34.4456 78.3979Z" fill="#CCA055"/>
<path d="M32.5216 76.5828C31.914 76.5828 29.3317 76.4797 27.6442 74.8075C25.7671 72.9429 25.8326 69.9454 25.8326 69.8186C25.8395 69.5918 25.9322 69.3762 26.0921 69.2153C26.252 69.0543 26.4671 68.9602 26.6938 68.9518C26.822 68.9518 29.8167 68.8598 31.6952 70.7244C33.5737 72.5889 33.5068 75.5878 33.5068 75.7147C33.4999 75.941 33.4072 76.1563 33.2476 76.317C33.088 76.4776 32.8733 76.5717 32.647 76.58C32.6358 76.5814 32.5926 76.5828 32.5216 76.5828ZM28.9067 73.5393C29.6968 74.3239 30.8493 74.6193 31.652 74.7294C31.5363 73.9267 31.2339 72.7785 30.4438 71.9925C29.6536 71.2065 28.5026 70.9139 27.6985 70.8024C27.8142 71.6051 28.1166 72.7534 28.9067 73.5393Z" fill="#CCA055"/>
</g>
<defs>
<clipPath id="clip0_10774_11929">
<rect width="176.107" height="152.5" fill="white" transform="translate(0.946289)"/>
</clipPath>
</defs>
</svg>
