<svg width="56" height="50" viewBox="0 0 56 50" fill="none" xmlns="http://www.w3.org/2000/svg">
<g clip-path="url(#clip0_12859_2863)">
<path d="M17.6961 16.3432C17.6936 16.3399 17.6908 16.3368 17.6877 16.3339C17.564 16.2113 17.4318 16.0976 17.292 15.9936L17.284 15.9883C15.1144 18.5064 13.9222 21.7206 13.9251 25.0445V27.5867C13.9694 27.834 14.0191 28.0791 14.0758 28.3223C14.187 28.7943 14.3195 29.2529 14.4706 29.6934V25.0445C14.4674 21.8511 15.6122 18.7629 17.6961 16.3432Z" fill="#202924"/>
<path d="M41.4461 28.7666L41.3924 28.8162C41.3579 28.8477 41.3233 28.876 41.2888 28.9048V30.1593C41.4376 29.7725 41.5706 29.375 41.6876 28.9731C41.7407 28.7914 41.7899 28.6022 41.8365 28.4094V28.3855C41.7084 28.5162 41.5795 28.6443 41.4461 28.7666Z" fill="#202924"/>
<path d="M27.8534 11.1143C26.5712 11.1134 25.2951 11.2912 24.062 11.6425C24.1856 11.7599 24.311 11.8888 24.4368 12.0329C24.4537 12.0519 24.4687 12.0727 24.4856 12.0922C27.1313 11.4039 29.924 11.5396 32.4905 12.4811C35.057 13.4227 37.2749 15.1252 38.8478 17.3611C38.9103 17.1838 38.9684 17.0065 39.018 16.8293C39.0291 16.7894 39.0379 16.7522 39.0481 16.7128C36.4957 13.3157 32.4282 11.1143 27.8534 11.1143Z" fill="#202924"/>
<path d="M40.061 29.8476C40.0331 29.8653 40.0056 29.8804 39.9777 29.8977V32.7311C40.12 32.5122 40.2582 32.2879 40.3889 32.0575C40.4333 31.9773 40.4776 31.8949 40.5219 31.8133V29.5286C40.3743 29.6389 40.225 29.7461 40.061 29.8476Z" fill="#202924"/>
<path d="M18.5181 17.4067C18.5084 17.3908 18.5004 17.3762 18.4902 17.3624L18.4667 17.3239C18.3723 17.1759 18.2864 17.0514 18.2008 16.9348C16.285 19.2034 15.2348 22.0774 15.2368 25.0467V31.5045C15.2811 31.5931 15.3254 31.6817 15.3728 31.7703C15.5017 32.0118 15.6387 32.2476 15.7822 32.4793V25.0445C15.7806 22.2583 16.7477 19.5582 18.5181 17.4067Z" fill="#202924"/>
<path d="M27.8534 12.427C26.888 12.4267 25.9257 12.538 24.9859 12.7589C25.0874 12.9122 25.1791 13.0593 25.262 13.2051C25.2704 13.2193 25.2788 13.2353 25.2868 13.2495C27.7505 12.7128 30.3202 12.958 32.638 13.9509C34.9557 14.9437 36.9061 16.6348 38.2173 18.7886C38.3059 18.625 38.3897 18.4633 38.4637 18.3064C38.4774 18.2768 38.4894 18.2471 38.5027 18.2178C37.3524 16.4401 35.7752 14.9787 33.915 13.9672C32.0548 12.9556 29.9708 12.4261 27.8534 12.427Z" fill="#202924"/>
<path d="M38.7225 30.5441C38.7039 30.5521 38.6835 30.5592 38.6649 30.5667V34.4663C38.8098 34.3019 38.9529 34.1348 39.0903 33.9651C39.1311 33.9137 39.1696 33.8605 39.2104 33.8087V30.3257C39.046 30.4046 38.8825 30.4786 38.7225 30.5441Z" fill="#202924"/>
<path d="M27.8534 13.74C27.1145 13.741 26.3775 13.8152 25.6533 13.9616C25.7228 14.1104 25.7924 14.2757 25.8562 14.449C25.8598 14.4579 25.8624 14.4672 25.866 14.4756C28.1327 14.0483 30.4768 14.3576 32.5552 15.358C34.6336 16.3585 36.3375 17.9977 37.4175 20.036C37.5313 19.8844 37.6341 19.7417 37.7276 19.6057C37.7423 19.584 37.7551 19.5614 37.772 19.5406C36.7825 17.7802 35.3421 16.3151 33.599 15.2957C31.8559 14.2763 29.8727 13.7393 27.8534 13.74Z" fill="#202924"/>
<path d="M19.1537 18.7257C19.1421 18.6929 19.1324 18.6579 19.1204 18.6251C19.0628 18.4683 18.9928 18.3043 18.9139 18.1377C17.3791 20.1131 16.5469 22.544 16.549 25.0456V33.598C16.5897 33.6521 16.6292 33.7093 16.6708 33.762C16.8038 33.9392 16.9487 34.1112 17.0944 34.28V25.0447C17.0923 22.7732 17.8135 20.5599 19.1537 18.7257Z" fill="#202924"/>
<path d="M27.8532 15.0513C27.2667 15.0513 26.6813 15.1039 26.1042 15.2086C26.1565 15.404 26.1977 15.5759 26.23 15.7328V15.739C28.2919 15.3776 30.4153 15.7079 32.2699 16.6785C34.1245 17.6491 35.6063 19.2056 36.4845 21.1057C36.605 20.9839 36.726 20.8571 36.8452 20.7264L36.8855 20.6821C36.0573 18.9927 34.7718 17.5695 33.1751 16.5742C31.5785 15.5788 29.7347 15.0512 27.8532 15.0513Z" fill="#202924"/>
<path d="M19.5661 20.5155C19.5568 20.449 19.5484 20.3825 19.5382 20.3165C19.5005 20.0772 19.4637 19.8734 19.4238 19.6873C18.401 21.2866 17.8583 23.1458 17.8601 25.0442V35.1081C17.8968 35.1449 17.9309 35.1817 17.9682 35.218C18.1069 35.3541 18.2527 35.4884 18.4055 35.6248V25.0442C18.4041 23.4609 18.8033 21.903 19.5661 20.5155Z" fill="#202924"/>
<path d="M37.3911 30.9873L37.3521 30.9975V35.7713C37.5014 35.6419 37.649 35.5094 37.7908 35.3725C37.8267 35.3384 37.8617 35.302 37.8976 35.2675V30.8411C37.7172 30.8987 37.5502 30.943 37.3911 30.9873Z" fill="#202924"/>
<path d="M27.8532 16.364C27.3551 16.3641 26.8579 16.4077 26.3674 16.4943C26.3674 16.4943 26.3674 16.497 26.3674 16.4983C26.3957 16.6755 26.4192 16.8528 26.4409 17.0345C28.2863 16.7082 30.1878 17.0251 31.8277 17.9321C33.4676 18.8391 34.7466 20.2813 35.4511 22.0179C35.5698 21.9293 35.6966 21.8269 35.857 21.6918C35.8689 21.6816 35.8809 21.67 35.8924 21.6599C35.2174 20.0874 34.096 18.7476 32.667 17.8063C31.2381 16.8649 29.5643 16.3635 27.8532 16.364Z" fill="#202924"/>
<path d="M19.8666 23.4984C19.8484 23.3437 19.8316 23.1917 19.8174 23.0455C19.7868 22.7526 19.7616 22.4588 19.7363 22.1668L19.7226 22.009C19.3582 22.9797 19.172 24.0081 19.1731 25.0449V35.789C19.2967 35.4057 19.4279 35.0233 19.5746 34.648C19.6189 34.5279 19.6698 34.4091 19.7186 34.2904V25.0445C19.7185 24.5256 19.768 24.0078 19.8666 23.4984Z" fill="#202924"/>
<path d="M36.0741 31.2975L36.0413 31.305V36.7878C36.1995 36.6788 36.3515 36.572 36.4933 36.4635C36.5243 36.4404 36.5558 36.4152 36.5868 36.3917V31.1836L36.0741 31.2975Z" fill="#202924"/>
<path d="M34.7712 31.6191L34.7269 31.6315V37.5898C34.8828 37.5052 35.0397 37.4183 35.1944 37.3279C35.2205 37.3124 35.2462 37.296 35.2724 37.28V31.4866C35.1071 31.5278 34.94 31.5708 34.7712 31.6191Z" fill="#202924"/>
<path d="M20.8494 31.962C20.8627 31.9372 20.8796 31.9088 20.8964 31.8805C20.9407 31.8034 20.985 31.7232 21.0293 31.643V27.2648C20.985 27.1935 20.9381 27.1217 20.8964 27.0477C20.8273 26.9307 20.7582 26.8 20.6855 26.6489C20.6128 26.4978 20.5468 26.3387 20.4847 26.1814V32.6382C20.5986 32.4184 20.7165 32.1964 20.8494 31.962Z" fill="#202924"/>
<path d="M27.8535 17.6746C27.4064 17.6755 26.9602 17.7169 26.5206 17.7982V17.8115L26.5684 18.3432C26.9919 18.2613 27.4222 18.2198 27.8535 18.2192C29.2623 18.2179 30.6376 18.649 31.7935 19.4543C32.9495 20.2596 33.8305 21.4003 34.3174 22.7222C34.4761 22.6434 34.6303 22.5596 34.777 22.4723L34.8004 22.4573C34.2642 21.0496 33.3125 19.8383 32.0718 18.984C30.831 18.1298 29.3599 17.6731 27.8535 17.6746Z" fill="#202924"/>
<path d="M22.2161 29.7703C22.2604 29.7113 22.3003 29.6559 22.3424 29.5988V28.6655C22.3114 28.6434 22.2795 28.6239 22.2489 28.6004C22.0899 28.4787 21.9389 28.3468 21.7969 28.2056V30.3884C21.9299 30.1859 22.0681 29.9799 22.2161 29.7703Z" fill="#202924"/>
<path d="M27.8534 18.9876C27.4454 18.9884 27.0385 19.03 26.6388 19.1116C26.6388 19.1165 26.6388 19.1214 26.6388 19.1262C26.6547 19.3075 26.6725 19.4843 26.6933 19.658C27.0739 19.5741 27.4624 19.5316 27.8521 19.5313C28.9972 19.53 30.1148 19.8818 31.0527 20.5388C31.9905 21.1958 32.703 22.126 33.093 23.2026H33.1014C33.3021 23.141 33.4634 23.0869 33.6083 23.0311C33.1823 21.8465 32.4009 20.8223 31.3708 20.0985C30.3408 19.3748 29.1123 18.9868 27.8534 18.9876Z" fill="#202924"/>
<path d="M33.4761 32.0626C33.4557 32.071 33.4376 32.0799 33.4172 32.0883V38.215C33.5794 38.148 33.7399 38.0785 33.8989 38.0068L33.9631 37.9762V31.877C33.8033 31.9337 33.641 31.9956 33.4761 32.0626Z" fill="#202924"/>
<path d="M27.8536 20.2988C27.4994 20.2995 27.1464 20.3398 26.8011 20.4189V20.4278C26.8326 20.6126 26.8663 20.7854 26.9044 20.9555C27.215 20.882 27.5331 20.8447 27.8522 20.8443C28.7063 20.8428 29.5409 21.0985 30.2476 21.5781C30.9542 22.0577 31.5 22.739 31.8138 23.5332L31.836 23.5284C32.0097 23.4894 32.181 23.4492 32.35 23.4078C32.0062 22.4934 31.3915 21.7058 30.5879 21.1502C29.7844 20.5946 28.8305 20.2976 27.8536 20.2988Z" fill="#202924"/>
<path d="M32.182 32.7043C32.1563 32.7189 32.1301 32.7348 32.1044 32.7486V38.6865C32.2817 38.6338 32.4425 38.581 32.5985 38.5261L32.6499 38.5075V32.4495C32.4904 32.5314 32.3331 32.617 32.182 32.7043Z" fill="#202924"/>
<path d="M31.2337 33.316C31.1158 33.3993 30.9993 33.4835 30.8885 33.5695C30.8557 33.5943 30.826 33.6187 30.7936 33.6435V39.0204C30.9767 38.9837 31.1437 38.9469 31.3015 38.907L31.3391 38.8972V33.2429C31.3041 33.2673 31.2687 33.2917 31.2337 33.316Z" fill="#202924"/>
<path d="M27.8537 21.6113C27.6041 21.6117 27.3552 21.64 27.1119 21.6955C27.1518 21.82 27.2005 21.9521 27.2586 22.097L27.2967 22.1856C27.3002 22.194 27.3042 22.2025 27.3077 22.2104C27.4876 22.1753 27.6704 22.1576 27.8537 22.1577C28.4119 22.1559 28.9591 22.3127 29.4316 22.61C29.904 22.9073 30.2823 23.3327 30.5222 23.8367L30.5488 23.8296C30.7203 23.7853 30.8909 23.745 31.0584 23.7064C30.7868 23.0827 30.3387 22.552 29.7693 22.1797C29.1999 21.8074 28.534 21.6099 27.8537 21.6113Z" fill="#202924"/>
<path d="M29.5898 34.6829C29.5535 34.7179 29.5176 34.7556 29.4817 34.7915V39.2228C29.6492 39.2059 29.8198 39.1842 30.0037 39.1563L30.0272 39.1527V34.2783C29.8628 34.4223 29.7183 34.5562 29.5898 34.6829Z" fill="#202924"/>
<path d="M27.8532 22.9224C27.8 22.9224 27.7468 22.9224 27.6941 22.9286C27.7965 23.082 27.909 23.2284 28.0309 23.3668C28.0676 23.4111 28.1075 23.4523 28.1501 23.4962C28.3655 23.5373 28.5707 23.6206 28.7537 23.7414C28.9368 23.8622 29.0941 24.018 29.2167 24.1999C29.2295 24.2039 29.2415 24.2092 29.2544 24.2128L29.2676 24.2088C29.4263 24.1529 29.5942 24.0984 29.7617 24.0479C29.5712 23.7086 29.2942 23.4258 28.959 23.2281C28.6238 23.0304 28.2423 22.925 27.8532 22.9224Z" fill="#202924"/>
<path d="M27.1744 37.6728C27.1301 37.745 27.0858 37.8123 27.0441 37.8819V39.2738H27.0539C27.2311 39.2844 27.411 39.2933 27.5896 39.2968V37.0488C27.4562 37.2416 27.3215 37.4437 27.1744 37.6728Z" fill="#202924"/>
<path d="M28.2903 36.1109C28.2495 36.1618 28.2101 36.2141 28.1697 36.2655V39.3019C28.3656 39.2996 28.5402 39.2939 28.7059 39.2837H28.7152V35.6057C28.5641 35.7794 28.4219 35.9474 28.2903 36.1109Z" fill="#202924"/>
<path d="M43.4778 24.6991C43.4707 24.3003 43.4473 23.8899 43.4069 23.4827C43.3324 22.7247 43.2012 21.9735 43.0143 21.2351C42.9505 20.9786 42.8814 20.7348 42.8087 20.4987C42.6094 19.8471 42.3677 19.2092 42.0851 18.5892C42.0177 18.4421 41.9521 18.2985 41.8799 18.162C41.62 17.6314 41.3278 17.1172 41.0052 16.6222C40.9396 16.5145 40.8687 16.409 40.8031 16.3164C40.5128 15.8864 40.1996 15.4722 39.865 15.0756C38.4108 13.3341 36.5914 11.9336 34.5358 10.9733C32.4801 10.013 30.2385 9.51647 27.9696 9.51881C27.415 9.51897 26.8608 9.54856 26.3092 9.60743C26.2961 9.60959 26.2827 9.61077 26.2694 9.61098C26.1147 9.62737 25.9623 9.64731 25.8076 9.66903H25.8023C25.6565 9.68897 25.5112 9.71334 25.3676 9.73638C24.4455 9.89385 23.5394 10.1337 22.6601 10.4529C22.4533 10.5274 22.2496 10.6073 22.049 10.6927C21.6746 10.8455 21.3072 11.0148 20.9527 11.1965L20.8291 11.2585C20.7218 11.3148 20.6128 11.3711 20.5056 11.4309C20.4365 11.4677 20.3691 11.5058 20.3 11.5475C19.9725 11.7313 19.6472 11.933 19.3308 12.1457L19.3144 12.1568L19.1372 12.2804C19.1332 12.2804 19.1297 12.2857 19.1261 12.2875C19.0464 12.342 18.9644 12.4005 18.8842 12.4568C18.6387 12.634 18.3932 12.8241 18.1517 13.0222L17.9953 13.1511C17.9314 13.2056 17.8681 13.2584 17.8043 13.3129C17.7768 13.3386 17.748 13.3621 17.7205 13.386C17.4697 13.6076 17.226 13.8367 16.9951 14.0675C16.9588 14.1039 16.9207 14.1424 16.8861 14.1805C16.8276 14.2403 16.7696 14.2984 16.7115 14.3604C16.6535 14.4225 16.6043 14.473 16.5515 14.5315C16.3858 14.7114 16.2241 14.8948 16.0694 15.0805C15.9897 15.1749 15.9112 15.2715 15.8368 15.3677C14.1681 17.4672 13.0698 19.962 12.6483 22.6106C12.2268 25.2592 12.4964 27.9717 13.431 30.4855C13.5786 30.8843 13.7439 31.2764 13.9256 31.6598C14.0931 32.0182 14.2747 32.3688 14.471 32.7109C14.7074 33.1244 14.9626 33.5275 15.2368 33.9202C15.4114 34.1692 15.5913 34.4111 15.7823 34.6491C16.026 34.9566 16.2803 35.2549 16.5498 35.5438C16.727 35.7365 16.9078 35.9222 17.0953 36.1039C17.3408 36.3458 17.5969 36.5803 17.8605 36.8058C18.0378 36.9587 18.2208 37.1076 18.406 37.2489C18.4845 37.3128 18.5642 37.3743 18.6444 37.4346C18.8149 37.5655 18.9913 37.6927 19.1735 37.8161C19.3242 37.9216 19.4806 38.0253 19.637 38.1237C19.6645 38.1418 19.6916 38.1582 19.719 38.1746C19.8045 38.2309 19.8918 38.2836 19.9769 38.3346C20.1444 38.4365 20.3155 38.5345 20.4861 38.6293C20.6567 38.7241 20.8229 38.811 20.9899 38.8952C21.0045 38.9023 21.0174 38.9093 21.0316 38.9169C21.1517 38.9767 21.2717 39.0352 21.3861 39.0857C21.519 39.1495 21.659 39.2116 21.7991 39.2714C21.979 39.3516 22.1629 39.426 22.3446 39.4929L22.4283 39.5257C22.5847 39.5873 22.7385 39.6436 22.9011 39.7003C22.972 39.7238 23.0429 39.7473 23.1121 39.7712C23.2973 39.8328 23.479 39.8873 23.6576 39.9383C23.7666 39.9711 23.8756 40.0003 23.9846 40.0269C24.1357 40.0672 24.281 40.1036 24.4228 40.1359C24.4609 40.1452 24.4991 40.1541 24.5376 40.1616C24.6794 40.1944 24.823 40.225 24.9683 40.2503C25.2085 40.2993 25.4497 40.3411 25.692 40.3757L25.7363 40.3814C25.9162 40.4083 26.098 40.4319 26.2818 40.4523C26.5343 40.4794 26.7909 40.5011 27.047 40.5157C27.2293 40.5269 27.4112 40.5342 27.5925 40.5374C27.7197 40.5414 27.8456 40.5432 27.9727 40.5432C28.0401 40.5432 28.1057 40.5432 28.1726 40.5432C28.3546 40.5414 28.5364 40.5359 28.7181 40.5268C28.9747 40.5139 29.2308 40.4957 29.4838 40.47C29.6673 40.4541 29.849 40.4319 30.0293 40.4067C30.2872 40.3739 30.5438 40.3322 30.7964 40.2848C30.9803 40.2503 31.1619 40.2139 31.3419 40.1723C31.6001 40.1155 31.8553 40.0519 32.1076 39.9813C32.291 39.9305 32.4729 39.8758 32.6531 39.8173C32.9114 39.7358 33.1675 39.6485 33.4206 39.5514C33.604 39.4823 33.7859 39.4096 33.9661 39.3334C34.224 39.2244 34.4805 39.1119 34.7314 38.986C34.9148 38.8974 35.0969 38.8043 35.2768 38.7059C35.5371 38.5677 35.7929 38.421 36.0443 38.2659C36.2296 38.1551 36.4117 38.0368 36.5898 37.9167C36.8517 37.7421 37.1061 37.5622 37.3551 37.3695C37.5408 37.2294 37.7225 37.0841 37.9006 36.9352C38.1665 36.7167 38.4208 36.4876 38.6681 36.2515C38.8533 36.0742 39.0355 35.893 39.2136 35.7077C39.4795 35.4277 39.7352 35.1379 39.9807 34.8383C40.1697 34.6091 40.3516 34.3745 40.5262 34.1346C40.7973 33.7618 41.0526 33.3764 41.2919 32.9785C41.4864 32.6563 41.6681 32.3275 41.8374 31.989C42.0146 31.6345 42.1812 31.2747 42.3319 30.9055C42.8349 29.6833 43.1775 28.4009 43.3511 27.0906C43.3803 26.8744 43.4038 26.6559 43.4238 26.4379C43.4654 25.9669 43.4876 25.4958 43.4876 25.0305C43.4836 24.9206 43.4818 24.8045 43.4778 24.6991ZM42.3288 26.4082C42.3235 26.4698 42.3159 26.5301 42.3106 26.5899C42.3071 26.6209 42.3035 26.6502 42.2996 26.6785C42.2907 26.7698 42.2796 26.8589 42.2672 26.9497C42.2269 27.2599 42.1759 27.5626 42.1143 27.8644C42.0359 28.2534 41.9433 28.6389 41.8343 29.0165C41.683 29.5468 41.5009 30.0677 41.2888 30.5767C41.0652 31.1105 40.8095 31.6302 40.5231 32.133C40.3526 32.4346 40.1708 32.7286 39.9776 33.0148C39.7377 33.3753 39.482 33.7238 39.2105 34.0606C39.0332 34.2786 38.8514 34.4913 38.665 34.6987C38.4195 34.9699 38.1637 35.2312 37.8975 35.4826C37.7203 35.6513 37.5384 35.815 37.352 35.9736C37.1048 36.1863 36.8504 36.3915 36.5867 36.586C36.4095 36.719 36.2265 36.8519 36.0412 36.9755C35.7901 37.1442 35.5343 37.306 35.2737 37.4608C35.0938 37.5662 34.912 37.6681 34.7282 37.7665C34.4774 37.8995 34.2226 38.0262 33.963 38.1463C33.7826 38.2283 33.6009 38.308 33.4175 38.3829C33.1644 38.4862 32.9083 38.5845 32.65 38.6718C32.4701 38.7356 32.2879 38.7937 32.1045 38.8491C31.8537 38.9253 31.5971 38.9944 31.3388 39.0565C31.1588 39.1017 30.977 39.1423 30.7933 39.1783C30.5407 39.2293 30.2841 39.2727 30.0262 39.3113C29.8459 39.3387 29.6642 39.3622 29.4807 39.3804C29.2259 39.4079 28.9716 39.4278 28.715 39.4407C28.5333 39.4513 28.3534 39.4566 28.1695 39.4588C28.1039 39.4588 28.0366 39.4588 27.9696 39.4588C27.8425 39.4588 27.7148 39.4588 27.5894 39.4531C27.4078 39.4495 27.2261 39.4407 27.044 39.4296C26.7878 39.4132 26.5312 39.3897 26.2787 39.3587C26.1967 39.3494 26.1147 39.3387 26.0332 39.3277C25.9711 39.3206 25.9095 39.3113 25.8475 39.3024C25.8094 39.2966 25.7713 39.2913 25.7332 39.2842C25.6131 39.2661 25.493 39.2461 25.3747 39.2257C25.2386 39.2005 25.1022 39.173 24.9657 39.1442C24.9457 39.1407 24.9258 39.1349 24.9059 39.1314C24.8615 39.1225 24.8172 39.1132 24.7729 39.1021C24.6528 39.0751 24.535 39.0476 24.4184 39.017C24.3914 39.0113 24.3657 39.0042 24.3386 38.9966C24.3116 38.9891 24.2859 38.9842 24.2602 38.9767C24.0605 38.9259 23.8581 38.8677 23.6531 38.8021C23.533 38.764 23.4112 38.7241 23.2858 38.6802L23.2512 38.6696C23.2038 38.6532 23.1546 38.6368 23.1076 38.6187C23.011 38.5859 22.9127 38.5478 22.8147 38.5096C22.8147 38.5096 22.8094 38.5096 22.8072 38.5061C22.6512 38.4476 22.497 38.386 22.3401 38.3187C22.1726 38.2478 22.0056 38.1733 21.8403 38.0971C21.827 38.0919 21.8141 38.0859 21.8017 38.0789C21.8017 38.0789 21.7964 38.0789 21.7946 38.0754C21.6874 38.028 21.5837 37.9752 21.4782 37.9225C21.4508 37.9079 21.422 37.8955 21.3945 37.8782C21.3347 37.8472 21.2726 37.8161 21.2128 37.7834C21.1847 37.7702 21.1573 37.7554 21.1308 37.739C21.0963 37.7226 21.0635 37.7027 21.0289 37.6845C20.8636 37.5959 20.6983 37.4989 20.5344 37.3992C20.5162 37.3881 20.4998 37.3788 20.4834 37.3681C20.467 37.3575 20.4435 37.3442 20.4236 37.3318C20.3562 37.2913 20.289 37.2495 20.222 37.2064C20.171 37.1736 20.1201 37.1408 20.0709 37.108C19.9508 37.03 19.8325 36.9498 19.7164 36.8696C19.5746 36.7699 19.4345 36.668 19.2981 36.5643C19.2564 36.5315 19.2125 36.5009 19.1709 36.4664C19.158 36.4553 19.1434 36.4442 19.1266 36.4336C18.8775 36.2407 18.6357 36.0399 18.4012 35.8314C18.2137 35.6679 18.032 35.5008 17.8557 35.328C17.5898 35.0661 17.3319 34.7962 17.0904 34.5188C16.8995 34.3043 16.7177 34.0843 16.5449 33.8586C16.2702 33.5076 16.0158 33.146 15.7774 32.7716C15.583 32.4676 15.4012 32.1574 15.2319 31.841C14.9388 31.2951 14.683 30.73 14.4662 30.1496C14.245 29.5654 14.0628 28.9672 13.9207 28.3589C13.667 27.2693 13.5396 26.1541 13.5409 25.0354C13.5422 21.6517 14.7321 18.3759 16.9029 15.7802C16.941 15.7328 16.9792 15.6872 17.0213 15.642C17.2247 15.4 17.4431 15.1656 17.6665 14.9383L17.6846 14.9183C17.7085 14.8909 17.7356 14.8638 17.7613 14.8381L17.7777 14.8217C17.861 14.738 17.9447 14.6564 18.032 14.5745C18.1978 14.418 18.3684 14.2643 18.543 14.1127H18.5687L18.7105 13.9709L18.7251 13.9581L18.932 13.7892C19.0122 13.7254 19.092 13.6616 19.174 13.6C19.3322 13.4764 19.4921 13.3598 19.6503 13.2491L19.7359 13.187L19.8378 13.1161L19.9034 13.0718L19.9379 13.0479C20.0376 12.981 20.1396 12.9149 20.2432 12.8498C20.3319 12.7918 20.4232 12.7373 20.514 12.6827C20.7449 12.5427 20.978 12.4098 21.2106 12.2839H21.2434L21.3449 12.2166L21.367 12.2042C21.4924 12.1386 21.6196 12.0748 21.7468 12.015C21.874 11.9551 21.998 11.8966 22.1252 11.8404C22.4206 11.7074 22.7224 11.5856 23.0305 11.4748C23.1706 11.4238 23.3088 11.3746 23.4506 11.3294C24.358 11.0293 25.2933 10.8214 26.2423 10.7091C26.3168 10.6997 26.3912 10.6927 26.4639 10.6851C26.5569 10.6745 26.6513 10.6652 26.744 10.6599C27.1097 10.6324 27.479 10.6176 27.8518 10.6156C30.0656 10.6144 32.2502 11.1212 34.2374 12.0968C36.2247 13.0725 37.9616 14.491 39.3146 16.2433C39.6092 16.6217 39.8842 17.015 40.1384 17.4216C40.227 17.5598 40.3108 17.7016 40.3945 17.8452C40.6671 18.3129 40.9119 18.7963 41.1275 19.2929C41.2161 19.4892 41.2945 19.6873 41.373 19.8871C41.5927 20.4574 41.7755 21.0411 41.9202 21.6348C41.9911 21.9273 42.0532 22.2238 42.1055 22.5255C42.2255 23.1921 42.2967 23.8666 42.3186 24.5435C42.3239 24.7075 42.3275 24.871 42.3275 25.0363L42.3288 26.4082Z" fill="#143456"/>
<path d="M26.1059 26.0355C26.0257 26.0935 25.9459 26.1498 25.8675 26.2101C25.8232 26.2424 25.7789 26.277 25.7346 26.3115C25.7332 26.3136 25.7312 26.315 25.7288 26.3155C25.6473 26.3771 25.5653 26.4409 25.4873 26.5061C25.3854 26.5845 25.287 26.6665 25.1908 26.748C25.1142 26.6953 25.0397 26.639 24.9693 26.581C24.7736 26.4233 24.5912 26.2499 24.4238 26.0625C24.1259 25.7333 23.8695 25.3688 23.6603 24.9773C23.62 24.9042 23.5836 24.8297 23.5491 24.7557C23.4294 24.5025 23.3244 24.2427 23.2344 23.9776C23.0871 23.5437 22.9729 23.0993 22.8928 22.6482C22.8383 22.3593 22.7944 22.0664 22.7598 21.7757C22.7129 21.3972 22.6765 21.0224 22.6437 20.6466C22.6344 20.5354 22.6256 20.425 22.6163 20.3156C22.6056 20.1773 22.5928 20.0408 22.5799 19.9043C22.5529 19.5791 22.5219 19.2574 22.482 18.941C22.4563 18.7261 22.4271 18.5134 22.3907 18.3024C22.3437 18.0206 22.2875 17.7423 22.2183 17.468C22.1692 17.2806 22.1146 17.0953 22.0526 16.9114C21.9687 16.6697 21.8711 16.433 21.7601 16.2024C21.7581 16.1979 21.7556 16.1936 21.7526 16.1896C21.6853 16.0478 21.5997 15.8825 21.4983 15.7021C21.3799 15.4987 21.2417 15.2785 21.0835 15.0587C20.978 14.9134 20.8619 14.7694 20.7418 14.6293C20.5695 14.4317 20.3782 14.2515 20.1706 14.0914C20.017 13.9703 19.8513 13.8654 19.6761 13.7785C19.5194 13.6996 19.354 13.6392 19.1833 13.5986C19.3415 13.475 19.5015 13.3584 19.6597 13.2476L19.7452 13.1856L19.8472 13.1147L19.9127 13.0704L19.9469 13.0465C20.047 12.9796 20.1489 12.9135 20.2526 12.8484C20.3995 12.9271 20.5416 13.0146 20.678 13.1103C20.8371 13.2219 20.9889 13.3434 21.1327 13.4741C21.3287 13.6508 21.5116 13.8415 21.6799 14.0448C21.7965 14.1831 21.909 14.3284 22.0163 14.4831C22.1648 14.6913 22.302 14.9074 22.4271 15.1305C22.5183 15.2834 22.6043 15.4451 22.6854 15.6104C22.7053 15.6485 22.7253 15.6871 22.7434 15.727C22.8365 15.9215 22.9207 16.116 22.9947 16.3141C23.0621 16.4887 23.1201 16.6651 23.172 16.8414C23.2499 17.098 23.3138 17.3559 23.3683 17.616C23.4099 17.807 23.4445 17.998 23.4755 18.1921C23.5198 18.4739 23.5575 18.7557 23.5903 19.0393C23.6138 19.2503 23.6346 19.463 23.6536 19.6739C23.67 19.8578 23.6847 20.0413 23.701 20.2247C23.7121 20.3541 23.7228 20.4831 23.7356 20.6102C23.7556 20.8486 23.7773 21.0831 23.803 21.3157C23.8411 21.6702 23.8863 22.0176 23.9483 22.3597C23.9926 22.6216 24.0502 22.8813 24.1194 23.1361C24.2174 23.5192 24.3509 23.8923 24.5182 24.2505C24.523 24.2635 24.5285 24.2762 24.5346 24.2887C24.6558 24.5428 24.8014 24.7845 24.9693 25.0105C25.1851 25.3098 25.4429 25.5765 25.7346 25.8024C25.8519 25.8899 25.9761 25.9678 26.1059 26.0355Z" fill="#143456"/>
<path d="M29.2556 24.375C29.1537 24.4114 29.05 24.4499 28.9454 24.4898C28.8275 24.5341 28.7092 24.5824 28.5874 24.6334C28.5036 24.6679 28.4181 24.706 28.3326 24.7442C28.2563 24.7787 28.1801 24.8151 28.1017 24.8514C28.0917 24.8554 28.082 24.8603 28.0729 24.866C28.0255 24.8877 27.9763 24.9103 27.9289 24.9351C27.8673 24.8935 27.8074 24.8465 27.749 24.8022C27.6007 24.6882 27.4604 24.5643 27.3289 24.4313C27.1464 24.2526 26.9781 24.06 26.8255 23.8552C26.6089 23.568 26.4218 23.2596 26.2671 22.9349C26.2308 22.8604 26.198 22.7842 26.1652 22.7075C26.089 22.5352 26.0216 22.3606 25.9618 22.1842C25.8732 21.931 25.7993 21.6764 25.7403 21.4202C25.6928 21.2368 25.6516 21.0493 25.6184 20.8641C25.5692 20.5982 25.5298 20.3324 25.493 20.0665C25.4673 19.8777 25.4456 19.6867 25.4256 19.4975C25.3982 19.2316 25.3747 18.9631 25.3512 18.6999C25.3454 18.6325 25.3401 18.5669 25.3348 18.4978C25.3237 18.376 25.3149 18.2541 25.3038 18.134C25.2803 17.8681 25.2564 17.6084 25.2276 17.3505C25.2076 17.1631 25.1832 16.9796 25.1584 16.7958C25.1221 16.5396 25.0782 16.2848 25.0255 16.034C24.9891 15.8541 24.9475 15.676 24.8965 15.5023C24.8294 15.2558 24.748 15.0135 24.6528 14.7764C24.6019 14.6435 24.5438 14.5105 24.4818 14.3838C24.4654 14.3492 24.4472 14.3147 24.429 14.2766C24.3123 14.0428 24.1836 13.8152 24.0435 13.5946C23.9472 13.4398 23.84 13.2841 23.7218 13.1275C23.5541 12.9066 23.3689 12.6996 23.1679 12.5085C23.0145 12.3629 22.8484 12.2314 22.6716 12.1154C22.5022 12.0041 22.3203 11.9132 22.1296 11.8447C22.4251 11.7117 22.7268 11.5899 23.0349 11.4791C23.175 11.4281 23.3132 11.3789 23.455 11.3337C23.6075 11.4436 23.7527 11.5632 23.8897 11.6918C24.0413 11.8315 24.1851 11.9794 24.3205 12.1349C24.5021 12.3449 24.6703 12.566 24.8243 12.797C24.928 12.9516 25.0299 13.1133 25.1261 13.2844C25.2426 13.4825 25.3516 13.6899 25.4571 13.9079C25.4699 13.9354 25.4846 13.9642 25.4952 13.9916C25.5754 14.1609 25.6463 14.3315 25.7097 14.5026C25.8026 14.7431 25.8828 14.9883 25.9499 15.2373C25.9973 15.4145 26.0385 15.5918 26.077 15.7664C26.1317 16.0172 26.1772 16.2693 26.2135 16.5228C26.2428 16.7027 26.2662 16.8826 26.288 17.0625C26.3172 17.3191 26.3425 17.5739 26.3664 17.8282C26.3829 18.0117 26.3993 18.1941 26.4156 18.3755C26.4156 18.3848 26.4156 18.3954 26.4156 18.4048C26.4373 18.6538 26.4572 18.9011 26.4825 19.1448C26.4989 19.33 26.5171 19.5139 26.5392 19.6956C26.568 19.9522 26.6044 20.2065 26.6465 20.4556C26.6775 20.6377 26.712 20.8158 26.7519 20.994C26.8082 21.2448 26.8756 21.4903 26.9553 21.734C27.0103 21.9068 27.0754 22.0779 27.1463 22.2467C27.1773 22.3211 27.2101 22.396 27.2447 22.4682C27.3246 22.634 27.4144 22.7949 27.5137 22.9499C27.6324 23.1333 27.7644 23.3078 27.9085 23.4719C28.2953 23.9022 28.7611 24.2514 29.2556 24.375Z" fill="#143456"/>
<path d="M27.515 25.148C27.437 25.1923 27.3604 25.2335 27.2824 25.2809C27.2239 25.3137 27.1658 25.3461 27.1078 25.3824C27.0861 25.3935 27.0635 25.4063 27.044 25.4192C26.857 25.5317 26.666 25.6536 26.4732 25.7825C26.4076 25.7334 26.3403 25.6828 26.2787 25.6301C26.0832 25.4674 25.9008 25.2896 25.7332 25.0984C25.4895 24.8223 25.2749 24.5219 25.0929 24.2019C25.0237 24.084 24.9599 23.9657 24.9059 23.8474C24.8567 23.7455 24.811 23.644 24.7729 23.5403C24.643 23.2335 24.5342 22.9181 24.4472 22.5964C24.3839 22.3749 24.3311 22.1493 24.2855 21.9238C24.2221 21.6136 24.1729 21.2998 24.1331 20.9874C24.102 20.769 24.0785 20.551 24.0564 20.3325C24.0258 20.0325 24.0001 19.7325 23.9749 19.436C23.9749 19.4272 23.9749 19.4161 23.9749 19.4072C23.9585 19.2092 23.9421 19.0124 23.9239 18.8179C23.8964 18.5343 23.8694 18.2542 23.8326 17.9782C23.809 17.7835 23.7818 17.5907 23.7511 17.3999C23.7068 17.134 23.6545 16.8743 23.5893 16.6177C23.545 16.4378 23.4945 16.2597 23.4365 16.086C23.3581 15.8413 23.264 15.6019 23.1546 15.3695C23.1435 15.3442 23.1329 15.3185 23.1201 15.2932C23.062 15.1731 22.9911 15.0331 22.9091 14.8842C22.7944 14.6804 22.6583 14.4566 22.5001 14.2315C22.3939 14.0789 22.2797 13.932 22.158 13.7915C21.9839 13.5854 21.7911 13.396 21.582 13.2256C21.4219 13.0953 21.2488 12.982 21.0653 12.8875C20.8927 12.7975 20.7094 12.7298 20.5198 12.6859C20.7506 12.5458 20.9837 12.4129 21.2164 12.287L21.3493 12.2197L21.3715 12.2073C21.4969 12.1417 21.6241 12.0779 21.7512 12.0181C21.9058 12.1075 22.0539 12.2077 22.1944 12.3181C22.3539 12.4399 22.5052 12.5723 22.6472 12.7142C22.841 12.9042 23.0214 13.1071 23.1874 13.3218C23.2982 13.4653 23.409 13.6182 23.5127 13.7799C23.6527 13.9891 23.7856 14.2127 23.9115 14.4508C23.9753 14.5692 24.0387 14.691 24.0989 14.8164C24.1189 14.8581 24.1388 14.8984 24.1552 14.9401C24.2622 15.1712 24.3569 15.4079 24.4388 15.6491C24.4979 15.8237 24.5506 15.9983 24.597 16.1728C24.6661 16.4237 24.7224 16.6767 24.7698 16.9293C24.8062 17.1132 24.8372 17.2948 24.8624 17.4783C24.9005 17.7442 24.9333 18.0039 24.9608 18.2657C24.9808 18.4567 24.9989 18.6477 25.0153 18.8369C25.0317 18.9951 25.0446 19.1533 25.0596 19.3115C25.0689 19.4259 25.0796 19.5406 25.0907 19.655C25.107 19.853 25.1252 20.0538 25.1452 20.2461C25.1726 20.5279 25.2054 20.8062 25.2471 21.0805C25.2763 21.2808 25.3091 21.4793 25.3472 21.6734C25.4021 21.951 25.4719 22.2254 25.5564 22.4954C25.612 22.6882 25.6787 22.8776 25.7562 23.0626C25.7979 23.1681 25.8449 23.2735 25.8927 23.3772C25.9643 23.5255 26.0438 23.6699 26.1307 23.8097C26.2347 23.9759 26.3496 24.135 26.4745 24.2861C26.6497 24.4992 26.8478 24.6924 27.0652 24.8622C27.2046 24.9732 27.3554 25.069 27.515 25.148Z" fill="#143456"/>
<path d="M24.8822 27.0118C24.8024 27.0827 24.724 27.1536 24.6478 27.2245C24.5715 27.2954 24.4949 27.3663 24.4204 27.439C24.2933 27.5608 24.1696 27.6827 24.0513 27.8045C23.9136 27.7215 23.7813 27.6299 23.6551 27.5302C23.4596 27.3778 23.2771 27.2093 23.1097 27.0264C22.8114 26.7084 22.5536 26.3548 22.3422 25.9735C22.2859 25.8716 22.2332 25.7719 22.1857 25.67C22.0367 25.3544 21.9104 25.0286 21.8077 24.6951C21.8055 24.6951 21.8055 24.6951 21.8077 24.6911C21.6188 24.0758 21.4853 23.4447 21.4089 22.8056C21.4085 22.8053 21.4081 22.8049 21.4078 22.8045C21.4076 22.804 21.4074 22.8035 21.4074 22.8029C21.4074 22.8024 21.4076 22.8019 21.4078 22.8014C21.4081 22.8009 21.4085 22.8006 21.4089 22.8003C21.358 22.4329 21.3203 22.0656 21.2888 21.7V21.6947C21.2742 21.5383 21.26 21.3818 21.2472 21.2272C21.2233 20.9511 21.1998 20.6764 21.1745 20.4056V20.4021C21.1488 20.1362 21.12 19.8703 21.0832 19.6111C21.0389 19.2818 20.9835 18.9584 20.9126 18.6397C20.8652 18.431 20.8125 18.2254 20.7469 18.0194C20.6665 17.7522 20.5676 17.491 20.4509 17.2377C20.4323 17.1934 20.4123 17.1522 20.3924 17.1105C20.3379 16.9975 20.2723 16.8686 20.1961 16.7303C20.0714 16.5014 19.9343 16.2795 19.7853 16.0656C19.6852 15.9203 19.5744 15.7731 19.4543 15.6313C19.29 15.434 19.1086 15.2514 18.9123 15.0858C18.7699 14.9654 18.6172 14.8576 18.4559 14.7637C18.3215 14.6861 18.1803 14.621 18.0341 14.5692C18.1998 14.4129 18.3701 14.259 18.545 14.1074H18.5707L18.7125 13.9656L18.7271 13.9528L18.9341 13.7839C19.0697 13.8588 19.2009 13.9414 19.3271 14.0312C19.4803 14.1391 19.6266 14.2563 19.7654 14.3822C19.9553 14.555 20.1329 14.7408 20.2971 14.9383C20.4132 15.073 20.5247 15.2167 20.6317 15.3695C20.7816 15.5786 20.9206 15.7952 21.0482 16.0186C21.1368 16.1728 21.2255 16.335 21.3079 16.5039C21.3318 16.5482 21.3522 16.5925 21.3735 16.6368C21.4679 16.8313 21.5507 17.0294 21.6283 17.2275C21.697 17.4114 21.759 17.5948 21.8135 17.7805C21.8955 18.0566 21.9646 18.3366 22.0209 18.6167C22.0652 18.8312 22.1007 19.0461 22.1317 19.2606C22.1826 19.5916 22.2203 19.9222 22.2535 20.2532C22.281 20.5191 22.3027 20.7787 22.3262 21.0406C22.3262 21.0716 22.332 21.1022 22.3337 21.1332C22.3683 21.532 22.4007 21.926 22.4445 22.3115C22.4844 22.6718 22.5331 23.0263 22.5992 23.375C22.7001 23.9547 22.8704 24.52 23.1066 25.0589C23.1247 25.1063 23.1464 25.152 23.1682 25.1972C23.3017 25.4757 23.4639 25.7396 23.652 25.9846C23.869 26.2731 24.1268 26.5285 24.4173 26.7428C24.5613 26.8502 24.7173 26.9405 24.8822 27.0118Z" fill="#143456"/>
<path d="M23.8366 28.0284C23.7745 28.094 23.7147 28.1614 23.6549 28.2247C23.4623 28.4374 23.2805 28.6484 23.1094 28.8575C23.0948 28.8757 23.0802 28.8921 23.0651 28.9103C22.808 28.7946 22.5651 28.6494 22.3415 28.4778C22.1467 28.3304 21.9642 28.1674 21.796 27.9903C21.5004 27.6828 21.2433 27.3406 21.0302 26.9711C20.954 26.8417 20.8867 26.711 20.8251 26.5821C20.6943 26.3049 20.5807 26.0201 20.4848 25.729C20.1923 24.8454 20.0593 23.9344 19.9703 23.0308C19.9393 22.7344 19.914 22.4379 19.8883 22.1446C19.8759 21.9921 19.8613 21.8393 19.8484 21.6881C19.8068 21.2153 19.7598 20.7518 19.6902 20.2972C19.6486 20.0313 19.6016 19.7681 19.5413 19.5079C19.4689 19.1922 19.3766 18.8814 19.2648 18.5774C19.1975 18.3939 19.1195 18.2122 19.0339 18.0337C19.0286 18.0248 19.0246 18.0137 19.0193 18.0049C18.8995 17.7578 18.7663 17.5174 18.6205 17.2848C18.5243 17.1319 18.4189 16.9746 18.3006 16.8173C18.1468 16.61 17.978 16.4143 17.7954 16.2319C17.6662 16.1042 17.5282 15.9857 17.3824 15.8774C17.2685 15.7934 17.1489 15.7174 17.0244 15.6501C17.2277 15.4081 17.4462 15.1737 17.6696 14.9464L17.6877 14.9264C17.7117 14.899 17.7387 14.8719 17.7644 14.8462L17.7808 14.8298C17.9033 14.9079 18.0216 14.9923 18.1353 15.0829C18.2795 15.1936 18.4167 15.3131 18.5461 15.4409C18.7299 15.62 18.9012 15.8114 19.0588 16.0139C19.1718 16.1539 19.2803 16.301 19.3827 16.457C19.5263 16.6679 19.6627 16.8935 19.7935 17.1314C19.8679 17.2697 19.9428 17.4133 20.015 17.5608C20.0297 17.5896 20.0421 17.6189 20.0549 17.6495C20.1763 17.9057 20.2814 18.1693 20.3695 18.4387C20.4404 18.6461 20.5025 18.8534 20.5512 19.0626C20.6367 19.3936 20.7023 19.7273 20.7551 20.061C20.7994 20.337 20.8348 20.6153 20.8658 20.8918C20.9102 21.2827 20.9421 21.6717 20.9749 22.059C20.9842 22.1556 20.9912 22.25 21.0006 22.3462C21.0422 22.8283 21.0861 23.3011 21.153 23.7642V23.7677C21.2678 24.5787 21.4494 25.355 21.7951 26.0915C21.799 26.1028 21.8039 26.1138 21.8097 26.1243C21.9545 26.4258 22.1329 26.7101 22.3415 26.9716C22.5597 27.2524 22.8184 27.4994 23.109 27.7045C23.2773 27.8226 23.4608 27.9174 23.6545 27.9863C23.7147 27.9956 23.7745 28.0138 23.8366 28.0284Z" fill="#143456"/>
<path d="M42.3288 25.7939V26.4086C42.3235 26.4702 42.316 26.5304 42.3107 26.5902C42.3071 26.6213 42.3036 26.6505 42.2996 26.6789C42.2907 26.7702 42.2796 26.8592 42.2672 26.9501C42.2269 27.2603 42.176 27.5629 42.1144 27.8647C42.0257 27.9644 41.9327 28.0645 41.8343 28.1647C41.6796 28.3282 41.5161 28.4899 41.3415 28.6521C41.3234 28.6685 41.307 28.6849 41.2888 28.7013C41.0446 28.9263 40.789 29.1387 40.5231 29.3376C40.3396 29.4777 40.1579 29.6035 39.9776 29.7179C39.7294 29.8761 39.4734 30.0218 39.2105 30.1543C39.0268 30.2453 38.845 30.3272 38.665 30.3998C38.4067 30.5071 38.1523 30.5979 37.8975 30.6799C37.7159 30.7362 37.5342 30.7889 37.3521 30.8363C37.0977 30.905 36.8429 30.9653 36.5868 31.0251C36.4467 31.0561 36.3067 31.0889 36.1649 31.1199L36.0413 31.1469C35.7882 31.2032 35.5321 31.2617 35.2738 31.3269C35.0939 31.3712 34.9117 31.4181 34.7283 31.4709C34.4775 31.5418 34.2227 31.6198 33.963 31.7124C33.7857 31.7744 33.6038 31.8435 33.4171 31.9198C33.168 32.0235 32.9119 32.1413 32.65 32.2743C32.4728 32.365 32.2909 32.4638 32.1045 32.5707C31.8555 32.7143 31.6007 32.8765 31.3388 33.0546C31.2736 33.0989 31.2059 33.1432 31.1425 33.1907C31.0242 33.2744 30.9063 33.3599 30.7933 33.4472C30.5243 33.6511 30.2677 33.858 30.0262 34.0707C29.837 34.2364 29.6536 34.4035 29.4807 34.5728C29.206 34.8364 28.9517 35.1045 28.715 35.3704C28.5223 35.5889 28.3406 35.8033 28.1695 36.016C27.9586 36.2778 27.7652 36.5336 27.5895 36.7835C27.3878 37.0654 27.2079 37.3361 27.044 37.5905C26.7223 38.0961 26.4715 38.5397 26.2787 38.88C26.2787 38.88 26.2787 38.8853 26.2747 38.8871C26.1914 39.0348 26.1109 39.1825 26.0332 39.3302C25.9712 39.3231 25.9096 39.3138 25.8475 39.305C25.8094 39.2996 25.7713 39.2939 25.7332 39.2868C25.6131 39.2686 25.493 39.2487 25.3747 39.2283C25.2387 39.203 25.1022 39.1756 24.9657 39.1468C24.9458 39.1432 24.9258 39.1374 24.9059 39.1339L24.9657 39.0196C25.0821 38.7939 25.2022 38.5714 25.326 38.3522C25.4403 38.1484 25.575 37.9122 25.7332 37.6468C25.8914 37.3813 26.0713 37.0849 26.2787 36.7703C26.5003 36.4282 26.7551 36.0612 27.044 35.6864C27.2133 35.4648 27.3949 35.2335 27.5895 35.0044C27.7716 34.7881 27.9661 34.5683 28.1695 34.3499C28.3441 34.1647 28.524 33.9808 28.715 33.7955C28.9552 33.5624 29.2113 33.3316 29.4807 33.1042C29.6553 32.9536 29.8372 32.8059 30.0262 32.6611C30.1846 32.5394 30.3471 32.4195 30.5137 32.3013C30.6085 32.2339 30.7029 32.1684 30.7955 32.1068C30.9812 31.9814 31.1629 31.8666 31.341 31.7576C31.6029 31.5994 31.8577 31.4576 32.1067 31.3282C32.292 31.2336 32.4738 31.1465 32.6522 31.0667C32.9141 30.9467 33.1702 30.8452 33.4193 30.7521C33.605 30.683 33.7866 30.6192 33.9652 30.5647C34.2267 30.4791 34.4815 30.4065 34.7305 30.3431C34.9162 30.2944 35.0979 30.2487 35.276 30.2102C35.4976 30.1557 35.716 30.1065 35.9287 30.0591C35.9668 30.0502 36.0049 30.0427 36.0435 30.0338C36.2287 29.9917 36.4108 29.9518 36.589 29.9084C36.8469 29.8464 37.1017 29.7825 37.3543 29.7081C37.5364 29.6554 37.7181 29.5973 37.8998 29.5309C38.1615 29.4384 38.4178 29.331 38.6673 29.2091C38.8472 29.1205 39.029 29.0217 39.2128 28.9127C39.4789 28.7532 39.735 28.5777 39.9798 28.3871C40.1602 28.2471 40.3401 28.096 40.5253 27.9272C40.551 27.9055 40.5763 27.8829 40.602 27.858C40.851 27.627 41.0807 27.3942 41.291 27.1597C41.4875 26.9416 41.6693 26.7235 41.8365 26.5052C42.016 26.2632 42.1799 26.0266 42.3288 25.7939Z" fill="#143456"/>
<path d="M40.1402 17.4275C40.0812 17.6219 40.012 17.8244 39.9329 18.035C39.8526 18.2406 39.7654 18.4551 39.667 18.6731C39.5432 18.9478 39.4014 19.2285 39.2416 19.5151C39.1361 19.7007 39.0249 19.8877 38.903 20.0769C38.7448 20.3207 38.5742 20.5679 38.385 20.817C38.2615 20.9789 38.1306 21.1413 37.9924 21.3044C37.8103 21.5189 37.614 21.7351 37.403 21.9478C37.2742 22.079 37.1397 22.21 36.9993 22.3409C36.9887 22.3515 36.9759 22.3626 36.9648 22.3719C36.7468 22.5735 36.5323 22.7552 36.3214 22.9209C36.1592 23.0464 36.001 23.1625 35.8428 23.2679C35.619 23.4225 35.3872 23.5652 35.1484 23.6955C34.9773 23.7899 34.8085 23.8728 34.6392 23.9517C34.3937 24.0647 34.1518 24.1608 33.9103 24.2481C33.733 24.3102 33.5558 24.3682 33.3785 24.4192C33.1295 24.4936 32.8787 24.5592 32.6279 24.6208C32.4506 24.6651 32.2734 24.7045 32.0912 24.7466L31.8205 24.8065C31.6587 24.8428 31.4988 24.8791 31.333 24.9172C31.1531 24.9571 30.9732 25.001 30.7893 25.0502C30.5385 25.1118 30.2824 25.1831 30.0223 25.2664C29.8822 25.3104 29.7404 25.3577 29.5969 25.4082C29.5565 25.4211 29.5167 25.4357 29.4768 25.4503C29.4369 25.465 29.3966 25.4809 29.3567 25.4973H29.3531C29.1422 25.5775 28.9295 25.6666 28.7111 25.7663C28.5564 25.8376 28.3982 25.9138 28.2382 25.9958C28.2147 26.0082 28.1913 26.0211 28.1656 26.0339C27.9883 26.1264 27.8065 26.2288 27.6201 26.341C27.6094 26.3486 27.5966 26.3556 27.5855 26.3627C27.4082 26.4682 27.2257 26.5843 27.04 26.7101C26.9873 26.7447 26.9328 26.781 26.88 26.8191C26.853 26.8373 26.8238 26.8577 26.7963 26.8776C26.619 27.0032 26.4481 27.1304 26.2836 27.2592C26.28 27.2592 26.2783 27.2649 26.2747 27.2667C26.0857 27.4144 25.9038 27.5641 25.7292 27.7156C25.6583 27.7776 25.5874 27.8392 25.5183 27.903C25.4 28.0067 25.2852 28.114 25.1744 28.2212C25.1018 28.2903 25.0309 28.3612 24.9617 28.4304C24.7707 28.6214 24.5891 28.8141 24.4162 29.0064C24.138 29.3166 23.8845 29.6228 23.651 29.9246C23.4542 30.1772 23.2725 30.4262 23.1055 30.6664C22.8033 31.1011 22.5507 31.5083 22.338 31.8628C22.1798 32.1287 22.0433 32.3702 21.929 32.5719C21.8846 32.6538 21.8359 32.7358 21.7925 32.8174C21.5124 33.3264 21.2572 33.8458 21.0267 34.3758C20.827 34.834 20.6452 35.2983 20.4813 35.7686C20.3288 36.2086 20.1906 36.6522 20.0687 37.1033C19.9486 37.0253 19.8303 36.9451 19.7142 36.8653C19.5724 36.7652 19.4324 36.6633 19.2959 36.5596C19.2542 36.5268 19.2104 36.4962 19.1687 36.4616C19.1559 36.4506 19.1412 36.4395 19.1244 36.4289C19.1372 36.3814 19.1519 36.3358 19.1687 36.2888C19.3285 35.7503 19.5104 35.2204 19.7142 34.6993C19.9434 34.1123 20.1991 33.5363 20.4813 32.9711C20.6377 32.6547 20.8052 32.3419 20.9798 32.033C20.9944 32.0055 21.0103 31.9785 21.0267 31.951C21.2235 31.6018 21.4743 31.1618 21.7925 30.666C21.956 30.4098 22.1381 30.1386 22.338 29.855C22.556 29.5497 22.7962 29.2315 23.0616 28.9058C23.0762 28.8877 23.0908 28.8713 23.1059 28.8531C23.2764 28.644 23.4582 28.433 23.6514 28.2203C23.7112 28.1547 23.771 28.0874 23.8331 28.024C23.904 27.9496 23.9749 27.8747 24.0476 27.8025C24.1659 27.6806 24.2895 27.5587 24.4167 27.4369C24.4911 27.3642 24.5678 27.2933 24.644 27.2224C24.7202 27.1515 24.7987 27.0806 24.8784 27.0097C24.9059 26.9844 24.9351 26.9605 24.9622 26.937C25.0349 26.8714 25.1093 26.8098 25.1837 26.746C25.2799 26.6645 25.3783 26.5825 25.4802 26.5041C25.5582 26.4389 25.6402 26.3751 25.7217 26.3135C25.7241 26.313 25.7261 26.3116 25.7275 26.3096C25.7718 26.275 25.8161 26.2404 25.8604 26.2081C25.9388 26.1478 26.0186 26.0915 26.0988 26.0335C26.1187 26.0189 26.1405 26.0025 26.1626 25.9892L26.2716 25.913C26.3368 25.8686 26.4046 25.8243 26.4662 25.78C26.6589 25.6511 26.8499 25.5292 27.0369 25.4167C27.0586 25.4038 27.0812 25.3909 27.1007 25.3799C27.1588 25.3435 27.2168 25.3112 27.2753 25.2784C27.3533 25.2341 27.43 25.1898 27.508 25.1455C27.5332 25.133 27.5571 25.1184 27.5824 25.1056C27.6954 25.0458 27.8079 24.9873 27.9205 24.9328C27.9679 24.9093 28.0171 24.8853 28.0645 24.8636C28.0737 24.8579 28.0833 24.853 28.0933 24.849C28.1718 24.8127 28.248 24.7763 28.3242 24.7418C28.4097 24.7037 28.4952 24.6655 28.579 24.631C28.7009 24.58 28.8192 24.5326 28.937 24.4874C29.0425 24.4475 29.1462 24.409 29.2472 24.3726C29.2654 24.3655 29.2836 24.3602 29.3017 24.3545C29.479 24.2929 29.6527 24.2366 29.8237 24.1856C30.0799 24.1054 30.3311 24.0381 30.5771 23.9765C30.757 23.9291 30.9351 23.8879 31.1088 23.8471C31.2652 23.8107 31.4217 23.7762 31.5741 23.7416L31.8617 23.6765C32.0416 23.6363 32.2197 23.5945 32.3961 23.5511C32.6469 23.489 32.8924 23.4235 33.1379 23.3472C33.3107 23.2945 33.4835 23.2382 33.6546 23.1726C33.8952 23.0841 34.1308 22.9821 34.3601 22.8673C34.5218 22.7871 34.6835 22.6998 34.8453 22.6015C35.0715 22.466 35.2907 22.3192 35.502 22.1614C35.6491 22.0524 35.7962 21.9323 35.9451 21.8069C36.0453 21.7218 36.1453 21.6332 36.2451 21.541C36.3471 21.4467 36.445 21.3523 36.5416 21.2557C36.6834 21.1139 36.8185 20.9721 36.9471 20.8303C37.1398 20.6158 37.3197 20.3991 37.485 20.1829C37.6109 20.0176 37.7305 19.8518 37.8395 19.6883C38.0083 19.4375 38.1612 19.1885 38.2959 18.943C38.4032 18.7502 38.5011 18.5592 38.5884 18.3736C38.7211 18.0937 38.8394 17.8072 38.9429 17.5152C39.0249 17.2901 39.094 17.0721 39.1521 16.8682C39.1849 16.7482 39.2141 16.6316 39.2407 16.5208C39.2628 16.4282 39.2828 16.3369 39.301 16.2461C39.6009 16.6252 39.881 17.0195 40.1402 17.4275Z" fill="#143456"/>
<path d="M41.1291 19.2967C41.0564 19.5129 40.9727 19.7398 40.8743 19.9693C40.7759 20.1989 40.6727 20.4311 40.5526 20.6695C40.4015 20.9655 40.2326 21.2712 40.0381 21.5783C39.9127 21.7769 39.778 21.9771 39.6326 22.1748C39.4452 22.4331 39.2396 22.6932 39.0162 22.9516C38.8687 23.1222 38.7123 23.2915 38.5487 23.4607C38.401 23.6132 38.2465 23.764 38.0852 23.9132C38.0068 23.9859 37.9306 24.055 37.8544 24.1206C37.6798 24.2717 37.5087 24.4135 37.3394 24.5407C37.0975 24.7265 36.8461 24.8995 36.5861 25.0591C36.4021 25.1717 36.2202 25.274 36.0406 25.3662C35.7823 25.4991 35.5257 25.6135 35.2731 25.7136C35.0914 25.7845 34.9093 25.8501 34.7276 25.9081C34.4733 25.9901 34.2167 26.0628 33.9624 26.1297C33.7802 26.1771 33.5985 26.221 33.4164 26.2627C33.2476 26.3025 33.0783 26.3406 32.9077 26.3792C32.8222 26.3991 32.7349 26.4173 32.6494 26.4372C32.4695 26.4789 32.2873 26.521 32.1039 26.5662C31.8513 26.6253 31.596 26.6926 31.3381 26.7683C31.1582 26.8211 30.9764 26.8793 30.7927 26.9429C30.5418 27.0284 30.2875 27.1245 30.0256 27.2371C29.8483 27.3138 29.6653 27.3975 29.4801 27.4901C29.2311 27.6137 28.9763 27.752 28.7144 27.9084C28.5371 28.0157 28.3546 28.13 28.1689 28.2554C28.0745 28.3174 27.9797 28.383 27.8853 28.4499C27.7909 28.5168 27.6854 28.594 27.5888 28.6666C27.3998 28.8067 27.2179 28.9502 27.0433 29.0973C26.7744 29.3189 26.5178 29.5485 26.2781 29.7793C26.0872 29.9628 25.9054 30.1464 25.7326 30.3301C25.4543 30.6248 25.2008 30.9195 24.9651 31.2084C24.7688 31.4504 24.5888 31.6883 24.4196 31.9174C24.1249 32.3229 23.8705 32.7102 23.6543 33.0611C23.438 33.4121 23.2555 33.7192 23.1088 33.9828C23.0778 34.0391 23.0468 34.0919 23.0175 34.1428C22.7762 34.5718 22.5507 35.0075 22.3413 35.45C22.1434 35.8701 21.9615 36.2969 21.7958 36.7302C21.6505 37.1045 21.5175 37.4834 21.397 37.8669C21.3372 37.8359 21.2751 37.8048 21.2153 37.772C21.1872 37.7589 21.1598 37.7441 21.1333 37.7277C21.0988 37.7113 21.066 37.6914 21.0314 37.6732C20.8661 37.5846 20.7008 37.4876 20.5369 37.3878C20.5187 37.3768 20.5023 37.3675 20.4859 37.3568C20.4695 37.3462 20.446 37.3329 20.4261 37.3205C20.446 37.262 20.4642 37.2022 20.4859 37.1432C20.6481 36.6593 20.8299 36.1817 21.0314 35.7102C21.2627 35.1648 21.518 34.6285 21.7971 34.1012C21.8858 33.9354 21.977 33.7684 22.0697 33.6049C22.1499 33.4608 22.2407 33.3009 22.3426 33.1263C22.55 32.7682 22.8044 32.3464 23.1101 31.8882C23.2754 31.6409 23.4571 31.3808 23.6556 31.1136C23.8866 30.8007 24.1417 30.4814 24.4209 30.1555C24.5919 29.9535 24.7754 29.7519 24.9664 29.548C25.2066 29.2937 25.4624 29.0409 25.7339 28.7898C25.9085 28.6281 26.0884 28.4681 26.2794 28.3117C26.5231 28.1043 26.7775 27.9044 27.0447 27.7077C27.1138 27.6572 27.1847 27.6062 27.2556 27.5553C27.3686 27.4751 27.4772 27.3988 27.5902 27.3244C27.7865 27.1914 27.9792 27.0714 28.1702 26.9606C28.3612 26.8498 28.5376 26.7479 28.7157 26.653C28.9776 26.513 29.2324 26.3916 29.4814 26.2804C29.6667 26.1988 29.8485 26.1237 30.0269 26.0548C30.2888 25.9551 30.5449 25.8678 30.794 25.7889C30.9795 25.7299 31.1613 25.6771 31.3395 25.6307C31.6014 25.5598 31.8562 25.4978 32.1052 25.4402C32.2887 25.3959 32.4708 25.3565 32.6507 25.3144C32.6575 25.314 32.6642 25.3128 32.6706 25.3108C32.925 25.2528 33.1745 25.1983 33.4177 25.138C33.6018 25.0946 33.7838 25.0473 33.9637 24.9962C34.2198 24.9253 34.4724 24.8455 34.7236 24.7525C34.9009 24.6873 35.0782 24.6142 35.2554 24.5344C35.5085 24.4191 35.7545 24.2886 35.9919 24.1436C36.1589 24.0417 36.3282 23.9309 36.4993 23.8068C36.7226 23.6449 36.9505 23.4619 37.183 23.2578C37.2358 23.2086 37.2885 23.1599 37.343 23.1107C37.4485 23.0141 37.5482 22.9161 37.6465 22.8178C37.8681 22.5962 38.0773 22.3706 38.2669 22.1451C38.4145 21.9705 38.5523 21.7977 38.6817 21.6231C38.8798 21.3572 39.0579 21.0887 39.2161 20.8255C39.3415 20.6181 39.4563 20.4125 39.5582 20.2108C39.7152 19.9059 39.8553 19.5926 39.9778 19.2723C40.0744 19.0197 40.1551 18.7778 40.2216 18.5504C40.2659 18.3922 40.3071 18.2402 40.3416 18.0962C40.3614 18.0123 40.3796 17.9286 40.3961 17.845C40.6689 18.314 40.9136 18.7987 41.1291 19.2967Z" fill="#143456"/>
<path d="M41.9213 21.6373C41.8194 21.8735 41.7051 22.1154 41.5739 22.3645C41.4427 22.6135 41.308 22.8572 41.1485 23.108C40.9445 23.4371 40.7226 23.7547 40.4838 24.0594C40.3255 24.2645 40.1546 24.4699 39.9711 24.6758C39.7385 24.9373 39.4837 25.1974 39.2094 25.4557C39.1965 25.4686 39.1837 25.481 39.1695 25.4938C38.9984 25.652 38.8309 25.7974 38.6639 25.9339C38.4179 26.1354 38.1617 26.3241 37.8964 26.4993C37.7129 26.6212 37.5308 26.7302 37.3509 26.8303C37.1026 26.9686 36.8471 27.0936 36.5856 27.2048C36.4017 27.2814 36.2218 27.3523 36.0401 27.4157C35.7835 27.5043 35.527 27.5832 35.2726 27.6523C35.0909 27.7033 34.9088 27.7485 34.7271 27.7924C34.4834 27.8504 34.2397 27.9049 33.9924 27.9612C33.9818 27.9612 33.9725 27.9669 33.9618 27.9687C33.7815 28.0086 33.5998 28.0485 33.4159 28.0924C33.1633 28.1504 32.909 28.2142 32.6488 28.2869C32.4689 28.3361 32.2868 28.3888 32.1033 28.4486C31.8543 28.5288 31.5995 28.6197 31.3376 28.7234C31.1604 28.796 30.9778 28.874 30.7921 28.9631C30.5431 29.0777 30.2874 29.2099 30.0251 29.3597C29.8478 29.4616 29.6648 29.5706 29.4796 29.6889C29.3121 29.7962 29.1432 29.9105 28.9704 30.0324C28.8818 30.0944 28.7994 30.156 28.7139 30.218C28.6695 30.2526 28.6212 30.2872 28.5756 30.3235C28.53 30.3598 28.483 30.3944 28.4373 30.4307C28.3487 30.5016 28.2574 30.5725 28.1684 30.647C27.9667 30.8105 27.774 30.9798 27.5883 31.1491C27.3975 31.3263 27.2156 31.5027 27.0428 31.6781C26.7667 31.9582 26.5111 32.24 26.2775 32.5179C26.083 32.747 25.9009 32.9743 25.732 33.1963C25.4409 33.5783 25.1865 33.9456 24.9645 34.2873C24.7554 34.6108 24.5737 34.9077 24.419 35.1762C24.299 35.3801 24.1935 35.5657 24.1027 35.7275C23.9462 36.004 23.7956 36.2858 23.6538 36.5694C23.457 36.9567 23.2753 37.3511 23.1083 37.7495C23.0028 37.9985 22.9027 38.2496 22.8078 38.5028C22.6518 38.4443 22.4976 38.3827 22.3408 38.3153C22.1733 38.2444 22.0062 38.17 21.8409 38.0938C21.8277 38.0886 21.8148 38.0826 21.8024 38.0756C21.9681 37.6391 22.1462 37.2102 22.3408 36.7865C22.575 36.2737 22.8309 35.77 23.1083 35.2755C23.1224 35.248 23.1388 35.221 23.1526 35.1935C23.2891 34.952 23.4544 34.6591 23.6529 34.3298C23.8674 33.9753 24.1199 33.5734 24.4182 33.148C24.5834 32.9078 24.7656 32.6606 24.9636 32.4062C25.1963 32.1044 25.4511 31.7951 25.7312 31.4841C25.904 31.2895 26.0857 31.0968 26.2766 30.9022C26.5164 30.659 26.7712 30.4148 27.0419 30.1751C27.2165 30.0186 27.3964 29.8649 27.5874 29.7133C27.7784 29.5618 27.9676 29.4133 28.1675 29.2675C28.2238 29.2259 28.2805 29.1842 28.3385 29.1439C28.4639 29.0553 28.5893 28.9697 28.713 28.886C28.9731 28.7149 29.2297 28.5585 29.4787 28.4167C29.6621 28.3113 29.8438 28.2151 30.0242 28.126C30.2861 27.9931 30.5404 27.8765 30.7912 27.7715C30.9768 27.6935 31.1586 27.6226 31.3367 27.5588C31.5988 27.4643 31.854 27.3807 32.1025 27.308C32.2877 27.2535 32.4698 27.2043 32.648 27.1573C32.9098 27.09 33.166 27.0297 33.415 26.9735C33.5298 26.9482 33.6423 26.9225 33.7536 26.8972C33.8227 26.8808 33.8936 26.8662 33.9609 26.8529C34.2206 26.7931 34.4754 26.7346 34.7262 26.6712C34.9097 26.6238 35.09 26.5746 35.2717 26.5184C35.5283 26.4421 35.7844 26.3531 36.0392 26.2494C36.2209 26.1767 36.4026 26.0947 36.5847 26.0021C36.8488 25.8688 37.1044 25.7194 37.35 25.5545C37.5299 25.4349 37.7117 25.302 37.8955 25.1557C38.0701 25.0157 38.2464 24.8646 38.4272 24.6975C38.5039 24.6266 38.5766 24.5575 38.6488 24.4866C38.8287 24.312 38.998 24.1321 39.1562 23.9549C39.3923 23.691 39.615 23.4155 39.8235 23.1293C39.9817 22.9113 40.1271 22.6933 40.2578 22.4783C40.4588 22.1546 40.6398 21.8188 40.7998 21.4729C40.9269 21.1986 41.0364 20.9309 41.1272 20.6753C41.2274 20.3987 41.3071 20.1351 41.3727 19.8914C41.5928 20.461 41.776 21.0442 41.9213 21.6373Z" fill="#143456"/>
<path d="M42.3201 24.5513C42.1726 24.795 42.0126 25.0387 41.8327 25.2878C41.6652 25.5204 41.4835 25.7553 41.2872 25.9897C41.0547 26.2662 40.7994 26.542 40.5215 26.817C40.4364 26.9025 40.3442 26.9881 40.2556 27.0736C40.1669 27.1591 40.0703 27.2442 39.9773 27.3226C39.7325 27.5373 39.4764 27.7387 39.2102 27.9262C39.0265 28.0556 38.8447 28.1737 38.6647 28.2807C38.4165 28.4292 38.1603 28.5639 37.8972 28.6844C37.7138 28.7699 37.5317 28.8443 37.3518 28.9135C37.0956 29.0118 36.8408 29.0956 36.5865 29.17C36.4042 29.2229 36.2224 29.272 36.041 29.3172C35.7862 29.381 35.53 29.439 35.2735 29.4971L35.0789 29.5414C34.9624 29.5666 34.8463 29.5941 34.728 29.6194C34.4754 29.6779 34.2206 29.7395 33.9627 29.8068C33.7822 29.8526 33.6002 29.9036 33.4168 29.9597C33.166 30.0341 32.9116 30.1197 32.6497 30.2176C32.4725 30.285 32.2894 30.3576 32.1042 30.4392C31.8552 30.5482 31.6004 30.6718 31.3385 30.8136C31.1612 30.9084 30.9787 31.0139 30.793 31.1265C30.5549 31.2718 30.3094 31.4343 30.0565 31.6139C30.0459 31.621 30.0348 31.6285 30.0259 31.6356C29.8367 31.7685 29.655 31.9064 29.4805 32.0464C29.211 32.2591 28.9567 32.4758 28.7147 32.6973C28.6877 32.7213 28.662 32.7448 28.6367 32.7682C28.5782 32.821 28.522 32.8737 28.4675 32.9282C28.4276 32.9646 28.3877 33.0031 28.3491 33.043C28.2875 33.101 28.2277 33.1613 28.1692 33.2202C27.9641 33.4259 27.7704 33.6332 27.5892 33.8384C27.3966 34.0567 27.2147 34.2731 27.0437 34.4876C26.7583 34.8456 26.5057 35.1966 26.2784 35.5276C26.0746 35.8276 25.8929 36.1134 25.7329 36.3766C25.5144 36.7351 25.3341 37.0515 25.1892 37.3099C25.1125 37.4428 25.0381 37.5806 24.9676 37.7171C24.7731 38.0805 24.5914 38.4478 24.4221 38.8249C24.3951 38.883 24.3676 38.941 24.3424 38.9991C24.3167 38.9938 24.2896 38.9867 24.2639 38.9791C24.0642 38.9283 23.8619 38.8701 23.6568 38.8046C23.5368 38.7664 23.4149 38.7266 23.2895 38.6827C23.4056 38.4168 23.5275 38.1509 23.6568 37.8882C23.8385 37.5119 24.0348 37.1393 24.2422 36.7737C24.2969 36.6753 24.3568 36.5698 24.4221 36.4573C24.575 36.1914 24.7567 35.8812 24.9676 35.5427C25.1892 35.1917 25.4422 34.8097 25.7351 34.41C25.9022 34.177 26.0861 33.939 26.2806 33.697C26.5149 33.4064 26.77 33.1124 27.0459 32.8152C27.2187 32.6295 27.4004 32.4425 27.5914 32.2586C27.7753 32.077 27.9698 31.8971 28.1714 31.7207C28.346 31.5662 28.5279 31.4135 28.7169 31.2625C28.9443 31.0804 29.1809 30.9005 29.4259 30.7259L29.4805 30.6878C29.6657 30.5548 29.8456 30.4369 30.0259 30.3222C30.2878 30.1569 30.5422 30.0076 30.793 29.8733C30.9787 29.7731 31.1586 29.6805 31.3385 29.595C31.6004 29.4696 31.8552 29.3606 32.1042 29.264C32.2894 29.1895 32.4716 29.124 32.6497 29.0624C32.9117 28.9737 33.1674 28.8949 33.4168 28.8257C33.6024 28.7748 33.7823 28.7278 33.9627 28.6839C34.2224 28.6201 34.4789 28.5621 34.728 28.5067C34.7661 28.4974 34.8024 28.4903 34.8405 28.4814C34.9863 28.4486 35.1299 28.4158 35.2735 28.3848C35.5336 28.3228 35.7879 28.263 36.041 28.1938C36.2244 28.1429 36.4061 28.0901 36.5865 28.0303C36.8464 27.9452 37.1018 27.8468 37.3518 27.7356C37.5339 27.6559 37.7156 27.5668 37.8972 27.4667C38.1625 27.3196 38.4188 27.1568 38.6647 26.9792C38.8447 26.8503 39.0263 26.7067 39.2102 26.5503C39.3099 26.4647 39.4119 26.373 39.5138 26.2791C39.6773 26.1284 39.8319 25.9755 39.9773 25.8226C40.174 25.6192 40.3557 25.4136 40.5228 25.208C40.7904 24.8871 41.0364 24.5489 41.2593 24.1955C41.4309 23.927 41.5886 23.6498 41.7316 23.365C41.8714 23.0951 41.9964 22.8177 42.1061 22.5342C42.2264 23.2005 42.2979 23.8746 42.3201 24.5513Z" fill="#143456"/>
<path d="M11.7063 13.8967L9.79511 12.6621L9.44991 13.1965L11.3328 14.4142C11.5853 14.5769 11.6115 14.8365 11.374 15.2039L11.214 15.6439L9.57798 14.9256C9.26291 15.643 8.95405 16.4863 9.92805 16.9139C9.94577 16.9108 9.92805 16.9024 10.5382 17.182L9.88994 18.6594C9.757 18.5708 9.531 18.413 9.4025 18.2509C9.10072 17.8622 9.18093 17.5529 9.36084 17.143L8.86232 16.9215C8.48655 17.7519 8.61062 18.2792 9.08078 18.791C9.3799 19.1225 9.85715 19.3671 10.1501 19.5217L11.331 16.8324L10.2405 16.3534C9.84164 16.1761 9.82923 15.9342 9.90501 15.7618L11.4945 16.4597L11.9948 15.2894C12.27 14.7156 12.1707 14.1967 11.7063 13.8967Z" fill="#143456"/>
<path d="M13.9474 12.379L12.2237 10.9978L11.5714 11.8123C11.1575 12.3285 11.2909 12.9112 11.9144 13.4106C12.5578 13.9264 13.0847 13.9424 13.4985 13.4279C13.7245 13.1461 13.6736 12.8838 13.6222 12.7446C14.0011 13.0287 13.8141 13.4004 13.6612 13.591L14.0711 13.926C14.512 13.4137 14.4974 12.8217 13.9474 12.379ZM13.1028 13.0264C12.8516 13.3402 12.5188 13.0801 12.3052 12.9081C12.0987 12.7424 11.8093 12.4207 12.042 12.1296L12.2675 11.8477L12.8281 12.2966C13.047 12.4748 13.3585 12.7047 13.1006 13.0264H13.1028Z" fill="#143456"/>
<path d="M11.5845 9.52947L11.4219 9.68368L11.5938 9.86448L12.3826 9.11116L12.2102 8.93036L11.7866 9.3345L11.748 9.29373C11.6988 9.24233 11.5934 9.13154 11.7002 9.02785C11.7163 9.0125 11.7361 9.00146 11.7576 8.99573C11.7791 8.99 11.8017 8.98977 11.8234 8.99506C11.8234 8.99506 11.9616 8.80762 11.9873 8.77571C11.8198 8.70304 11.6718 8.72475 11.5278 8.86168C11.2553 9.12179 11.4644 9.40052 11.5486 9.48915L11.5845 9.52947Z" fill="#143456"/>
<path d="M13.645 8.29907L13.1842 8.73777L14.533 10.1531C14.6487 10.275 14.7825 10.4004 14.8508 10.5679C14.9013 10.7093 14.861 10.8883 14.7723 10.9729L14.7134 11.0292L12.8483 9.07189L12.3768 9.52167L14.2419 11.4785L13.9317 11.7736L14.3354 12.1973L15.1831 11.3895C15.6032 10.9906 15.6395 10.3924 15.1862 9.91694L13.645 8.29907Z" fill="#143456"/>
<path d="M14.7222 7.45836L14.2213 7.85083L16.2555 10.447L16.7564 10.0546L14.7222 7.45836Z" fill="#143456"/>
<path d="M22.4656 7.53577L21.922 7.6897L22.0954 8.30196L22.639 8.14803L22.4656 7.53577Z" fill="#143456"/>
<path d="M23.2547 7.31275L22.7107 7.4668L22.8841 8.07906L23.4281 7.92501L23.2547 7.31275Z" fill="#143456"/>
<path d="M25.4554 5.44253L25.2476 4.09497L24.6188 4.19246L24.8235 5.50988C24.8678 5.80678 24.6906 5.99378 24.2603 6.06113L23.6523 6.18299L23.475 6.23307C23.1711 6.31904 22.9876 6.22864 22.9287 6.02258L22.5374 4.64091L21.9201 4.8155L22.307 6.18299C22.3681 6.39836 22.2649 6.57561 22.0101 6.64784L21.8395 6.71785L21.2364 6.92923L21.1655 6.95803L21.0897 6.98506L20.4826 7.23144L20.3585 7.29879L19.5875 7.71799L19.8879 6.91682C19.5405 6.27694 18.8045 6.02214 18.0352 6.44045C17.2659 6.85877 17.0794 7.61475 17.4272 8.25462L18.2541 8.44295L18.169 8.48727C17.6816 8.88608 17.8061 9.5366 17.9594 9.81887L18.1588 10.1858L18.7048 9.88888L18.5054 9.52197C18.4008 9.32965 18.3972 9.02434 18.7105 8.85418L18.7664 8.82936C18.9168 8.75167 19.0534 8.64988 19.1709 8.52803C19.3364 8.49296 19.4956 8.4332 19.6433 8.35078L20.7219 7.76718L21.3715 7.50529L22.1785 7.20751C22.4678 7.12331 22.6969 6.97442 22.8259 6.76438C23.073 6.86276 23.346 6.87571 23.6013 6.80116L24.5545 6.59333V6.59023C25.1984 6.42937 25.5422 6.00397 25.4554 5.44253ZM18.8807 7.99761C18.6742 7.95906 18.1805 7.85049 17.9435 7.78801C17.8105 7.50529 17.9319 7.11622 18.3059 6.93011C18.6799 6.73247 19.0482 6.84547 19.2144 7.09717L18.8807 7.99761Z" fill="#143456"/>
<path d="M25.514 6.85608L24.8751 6.95532L24.9728 7.58411L25.6117 7.48487L25.514 6.85608Z" fill="#143456"/>
<path d="M29.6321 2.78363L29.5811 3.42041L30.2281 3.47217L30.279 2.83539L29.6321 2.78363Z" fill="#143456"/>
<path d="M32.2408 7.17904L32.0836 7.79565L32.6311 7.93521L32.7883 7.31859L32.2408 7.17904Z" fill="#143456"/>
<path d="M31.4529 6.98128L31.2958 7.5979L31.8437 7.73756L32.0009 7.12095L31.4529 6.98128Z" fill="#143456"/>
<path d="M35.0211 4.15396L34.2926 6.27123C34.2084 6.51584 34.0139 6.61377 33.698 6.54597V6.54243L33.5384 6.5021H33.5344L33.5203 6.49856C33.2145 6.42057 33.1002 6.24952 33.1529 6.04258L33.5074 4.65115L32.887 4.49251L32.5365 5.86931C32.4811 6.08645 32.3026 6.18793 32.0464 6.12279L31.2373 5.96016L31.1792 5.9513L31.0879 5.938L30.2805 5.83165C29.9655 5.80728 29.8241 5.65838 29.8405 5.44524L29.9522 4.00817L29.3119 3.95633L29.2015 5.37789C29.1842 5.59945 29.0243 5.73239 28.762 5.71156L27.8956 5.70802L27.0648 5.73061C26.7519 5.71776 26.6318 5.56976 26.6101 5.30255L26.4271 3.07007L25.7925 3.12236L25.9769 5.36947C26.0212 5.93667 26.3757 6.28408 27.0058 6.31466L27.9018 6.29295H28.7345C29.0318 6.31244 29.2955 6.25262 29.4878 6.1024C29.6735 6.27522 29.9203 6.38645 30.2349 6.41259L31.0831 6.52603L31.9015 6.68689C32.1975 6.76222 32.474 6.74893 32.6934 6.6315C32.8414 6.82603 33.0568 6.97182 33.3452 7.05247C33.3559 7.05513 33.3647 7.05956 33.3754 7.06266L33.4684 7.08615C34.1539 7.27847 34.6897 7.06798 34.8816 6.51008L35.622 4.35869L35.0211 4.15396Z" fill="#143456"/>
<path d="M36.2287 4.58376L34.9564 7.62671L35.5435 7.87217L36.8158 4.82922L36.2287 4.58376Z" fill="#143456"/>
<path d="M39.4971 6.4043L39.166 6.94556L39.6507 7.24212L39.9818 6.70086L39.4971 6.4043Z" fill="#143456"/>
<path d="M38.9649 5.7245L38.6336 6.26831L39.1165 6.56249L39.4478 6.01868L38.9649 5.7245Z" fill="#143456"/>
<path d="M41.9575 12.4908L42.811 11.6222C43.2647 11.1614 43.2935 10.6917 42.8327 10.2357L42.1543 9.56744L42.2898 9.42963C42.4006 9.31708 42.5876 9.31575 42.7986 9.52313L43.5133 10.2268L43.9241 9.80939L43.2093 9.1057C42.7702 8.67321 42.2296 8.6125 41.8578 8.99004L41.3003 9.55636L42.4002 10.6389C42.589 10.8246 42.5504 10.9797 42.347 11.1866L41.9145 11.6258L40.6241 10.3553L40.0308 9.82357L39.971 9.77926L39.9063 9.73051L39.2584 9.267L38.7541 8.95991L39.6847 7.43333L38.7887 6.8874C38.2321 6.5484 37.7061 6.6871 37.2852 7.37883C36.8345 8.11797 37.1757 8.68384 37.5541 8.91427L39.09 9.84838L39.6085 10.2392L40.0676 10.6305L41.9575 12.4908ZM37.8878 8.4317C37.6618 8.29389 37.6764 7.95667 37.8271 7.70896C37.96 7.49138 38.2259 7.20069 38.5264 7.3837L38.8481 7.57957L38.2095 8.62756L37.8878 8.4317Z" fill="#143456"/>
<path d="M48.202 16.1116L47.6166 16.3611L47.8162 16.8295L48.4016 16.58L48.202 16.1116Z" fill="#143456"/>
<path d="M46.624 18.5179C46.1982 18.6995 46.1521 18.6304 46.0803 18.462L45.9412 18.1363L47.5896 17.4344L47.3361 16.8397L45.6877 17.5416L45.3646 16.783L47.0131 16.0811L46.7698 15.5099L45.1214 16.2118L44.7855 15.4807L44.4647 14.9365H44.4673L44.423 14.8665L44.3875 14.8066H44.3849L44.0357 14.2625L43.9963 14.2067L43.9519 14.1349H43.9488L43.5904 13.627L43.5553 13.5508C43.3409 13.2849 43.3037 13.0213 43.5553 12.8197C43.9099 12.5205 44.5856 11.9733 44.5856 11.9733L44.1921 11.4858L42.6762 12.7115C42.4068 12.9291 42.0912 13.2105 41.7647 12.8068L41.3215 13.1653C41.7815 13.775 42.4325 13.7134 42.8561 13.3714C42.8534 13.5167 42.9496 13.6948 43.0258 13.8114L43.5132 14.5319L43.9289 15.174L44.3521 15.8914L45.5485 18.7049C45.7639 19.2109 46.1747 19.3953 46.7007 19.1719L48.0824 18.5834L47.8351 18.0029L46.624 18.5179Z" fill="#143456"/>
<path d="M49.0478 16.1449L48.5374 16.3623L48.7408 16.8397L49.2512 16.6223L49.0478 16.1449Z" fill="#143456"/>
<path d="M48.4985 16.8136L47.9131 17.063L48.1145 17.5359L48.7 17.2866L48.4985 16.8136Z" fill="#143456"/>
<path d="M12.5372 34.057L12.0401 34.377L12.3267 34.8222L12.8238 34.5023L12.5372 34.057Z" fill="#143456"/>
<path d="M12.4096 33.8581L12.1255 33.4167L11.6288 33.7367L11.9128 34.178L12.4096 33.8581Z" fill="#143456"/>
<path d="M10.6901 37.4061L10.2172 37.7607L10.532 38.1805L11.0049 37.8258L10.6901 37.4061Z" fill="#143456"/>
<path d="M10.1584 36.9833L9.68481 37.3364L9.99844 37.757L10.472 37.4039L10.1584 36.9833Z" fill="#143456"/>
<path d="M15.1028 38.8118L14.6814 38.3979L13.8146 39.2841C13.629 39.4738 13.1358 39.2048 13.1358 39.2048L12.5699 38.5844L12.0169 37.9313L11.9367 37.8426C11.7594 37.6078 11.7789 37.4177 11.9367 37.2989L13.0055 36.5013L12.651 36.024L11.5937 36.8124C11.4271 36.9369 11.2392 36.9059 11.0916 36.7091L10.9901 36.5726L10.6392 36.0338L12.0341 35.1351L11.5068 34.3162C11.1793 33.8075 10.6835 33.7105 10.0516 34.1173C9.37581 34.5524 9.4312 35.1635 9.65277 35.5096C9.92662 35.9345 10.6542 37.0344 10.6542 37.0344C10.824 37.2613 11.0313 37.4133 11.2582 37.4567C11.2545 37.7137 11.3396 37.9642 11.4993 38.1657L11.6118 38.2946L12.1378 38.915L12.1618 38.9412L12.1724 38.9536L12.7108 39.554C13.2333 40.0667 13.8089 40.1279 14.2174 39.7127L15.1028 38.8118ZM10.317 35.5362L10.1274 35.2424C9.99442 35.0354 10.1429 34.7598 10.3693 34.614C10.5683 34.4859 10.9086 34.3508 11.0854 34.6251L11.2751 34.9193L10.317 35.5362Z" fill="#143456"/>
<path d="M15.5459 38.2991L15.1028 37.8657L15.1471 37.8214C15.1967 37.7709 15.3093 37.6557 15.4209 37.7651C15.4546 37.7984 15.4582 37.828 15.4524 37.895C15.4524 37.895 15.6571 38.0235 15.6974 38.0501C15.7312 37.971 15.7392 37.8834 15.7203 37.7996C15.7015 37.7158 15.6567 37.64 15.5924 37.583C15.3062 37.3016 15.0208 37.5254 14.9317 37.6229L14.8954 37.6601L14.723 37.4913L14.5378 37.6805L15.3611 38.4874L15.5459 38.2991Z" fill="#143456"/>
<path d="M15.9987 38.4669L13.9926 40.782L14.439 41.1688L16.4451 38.8537L15.9987 38.4669Z" fill="#143456"/>
<path d="M17.3748 39.3943L17.0292 39.8733L17.5086 40.2192L17.8542 39.7401L17.3748 39.3943Z" fill="#143456"/>
<path d="M20.6612 41.3234L20.1268 41.0713L19.8746 41.6057L20.409 41.8578L20.6612 41.3234Z" fill="#143456"/>
<path d="M22.1453 42.0752L21.4851 44.048C21.4022 44.2953 21.1966 44.3821 20.8554 44.2873L19.8854 43.9044L20.6502 43.6899C20.9387 43.0789 20.726 42.388 19.9908 42.0411C19.2557 41.6941 18.587 41.9697 18.299 42.5812L18.6158 43.3053L17.8536 42.9065L17.8558 42.9029L16.9917 42.4026L16.5269 42.0672L17.0143 41.3928C17.3489 40.9288 17.3059 40.5362 16.8154 40.1821L16.4236 40.5468C16.6576 40.7157 16.6784 40.8645 16.4294 41.2115L16.0558 41.7287L15.2431 41.1424L14.9254 41.5829C16.5849 42.7793 17.5651 43.3607 17.5651 43.3607L18.6034 43.9013C18.745 43.9691 18.8958 44.0155 19.0509 44.0391C19.1662 44.1431 19.2965 44.2292 19.4374 44.2944L20.6139 44.7818C21.3087 45.0145 21.8546 44.8177 22.0376 44.266L22.7081 42.2622L22.1453 42.0752ZM19.2871 43.5278C19.2025 43.3505 19.0173 42.9247 18.93 42.7111C19.07 42.4585 19.4267 42.334 19.7719 42.5121C20.1264 42.6836 20.2425 43.0213 20.1406 43.2818L19.2871 43.5278Z" fill="#143456"/>
<path d="M23.0854 42.3589L22.296 45.3174L22.8667 45.4697L23.6561 42.5112L23.0854 42.3589Z" fill="#143456"/>
<path d="M25.3643 43.6785L25.1871 44.1841C25.4729 44.2235 25.5611 44.3454 25.503 44.7668L25.4144 45.3991L24.4218 45.2618L24.3474 45.8006L25.916 46.0169L26.1044 44.6542C26.1855 44.0875 25.9639 43.7613 25.3643 43.6785Z" fill="#143456"/>
<path d="M26.7141 42.9944L26.5414 46.0542L27.1316 46.0875L27.3043 43.0277L26.7141 42.9944Z" fill="#143456"/>
<path d="M33.7688 42.1484L33.2047 42.3257L33.8251 44.3118C33.9084 44.5777 33.7732 44.7793 33.3846 44.9007L33.28 44.926C32.992 44.9809 32.8369 44.9149 32.7974 44.7195C32.6809 44.1115 32.2422 43.6803 31.597 43.8035C30.9766 43.9227 30.7108 44.4212 30.7994 45.1019C30.826 45.3531 30.6128 45.4187 30.4072 45.4706L29.6809 45.5096L29.6149 43.8474L28.6378 43.8859C28.0334 43.9099 27.7072 44.3388 27.7347 45.0899C27.7662 45.8876 28.3108 46.1091 28.7246 46.091L29.0792 46.0772C29.0681 46.2713 28.8855 46.4317 28.6444 46.4441L28.6662 46.9918L28.7694 46.9785C29.2502 46.9311 29.6477 46.5797 29.7 46.0528L30.6017 45.9921C30.7784 45.9631 30.9464 45.8948 31.0932 45.7923C31.3103 46.0732 31.6471 46.1964 32.0428 46.1255C32.4514 46.0475 32.7075 45.8012 32.8023 45.4413C33.0416 45.5109 33.549 45.4196 33.549 45.4196C34.2483 45.2007 34.5744 44.7221 34.4002 44.1669L33.7688 42.1484ZM28.7171 45.5472C28.4716 45.557 28.34 45.3305 28.3294 45.066C28.3201 44.8254 28.3511 44.4266 28.6728 44.4142L29.0503 44.3991L29.0947 45.5322L28.7171 45.5472ZM31.9422 45.5915C31.7056 45.6359 31.5164 45.5029 31.4246 45.0261C31.3302 44.5342 31.4574 44.341 31.6941 44.2958C31.9307 44.2506 32.1199 44.3845 32.217 44.8892C32.3034 45.3483 32.1775 45.5459 31.9409 45.5911L31.9422 45.5915Z" fill="#143456"/>
<path d="M34.6809 41.8021L34.1293 42.0134L35.2249 44.8737L35.7765 44.6624L34.6809 41.8021Z" fill="#143456"/>
<path d="M42.5369 40.7957L42.1453 41.1448L42.5383 41.5857L42.93 41.2366L42.5369 40.7957Z" fill="#143456"/>
<path d="M41.7465 39.7613L40.9046 38.8152L40.4637 39.2082L41.287 40.1326C41.4696 40.3373 41.4682 40.5283 41.178 40.7973L41.1598 40.8137L40.5075 41.3255L39.8358 41.8192L39.0182 42.3819L39.2765 41.6313C38.9371 41.0463 38.248 40.8288 37.5448 41.2364C36.8415 41.6441 36.6882 42.3509 37.0277 42.9354L37.7996 43.0887L37.722 43.133C37.2816 43.5137 37.4118 44.1159 37.5616 44.3738L37.7562 44.7092L38.2551 44.4199L38.0606 44.0844C37.9582 43.9072 37.9471 43.6258 38.2334 43.4596L38.2848 43.4353C38.4222 43.3593 38.5463 43.2614 38.6522 43.1454C38.8049 43.1083 38.9513 43.0486 39.0864 42.9682L40.1322 42.2738L40.8027 41.7806L41.5046 41.232L41.5396 41.201C42.0762 40.7206 42.1303 40.1915 41.7465 39.7613ZM38.3694 42.6611C38.1771 42.631 37.7163 42.5428 37.4952 42.4909C37.3666 42.2322 37.4668 41.8679 37.8093 41.6858C38.151 41.493 38.4957 41.5878 38.6561 41.8187L38.3694 42.6611Z" fill="#143456"/>
<path d="M41.9721 41.3022L41.577 41.6541L41.9699 42.0952L42.365 41.7433L41.9721 41.3022Z" fill="#143456"/>
<path d="M41.7761 37.9504L41.368 38.3648L42.6553 39.6321C42.8844 39.8577 43.1773 40.1196 42.8387 40.463L43.2163 40.8348C43.7338 40.3424 43.6022 39.7482 43.2349 39.3866C41.8204 37.9801 41.7761 37.9504 41.7761 37.9504Z" fill="#143456"/>
<path d="M41.0563 37.2408L40.6417 37.6621L41.063 38.0767L41.4776 37.6554L41.0563 37.2408Z" fill="#143456"/>
<path d="M42.9127 34.8989L42.6554 35.3066L43.1553 35.6222L43.4126 35.2145L42.9127 34.8989Z" fill="#143456"/>
<path d="M43.2913 34.2991L43.0339 34.7068L43.5338 35.0223L43.7912 34.6146L43.2913 34.2991Z" fill="#143456"/>
<path d="M46.0575 34.0004L44.1892 33.0122L43.9127 33.5347L45.7521 34.5095C45.9985 34.6425 46.0442 34.8778 45.8536 35.2376H45.858L45.7827 35.3568C45.6263 35.6045 45.4428 35.6564 45.2749 35.5505L44.1436 34.8366L43.8259 35.3404L44.9452 36.0468C45.1225 36.1575 45.1597 36.3445 45.0285 36.5524L44.5965 37.1727L43.2976 36.1332L42.6861 36.8971C42.3081 37.3695 42.4176 37.8986 43.0043 38.3683C43.6278 38.8673 44.1498 38.6005 44.4095 38.2761L44.631 37.9992C44.7706 38.1352 44.7706 38.3772 44.6235 38.5682L45.0516 38.9107L45.1092 38.8221C45.2518 38.6287 45.321 38.3909 45.3043 38.1512C45.2876 37.9115 45.186 37.6856 45.0179 37.514L45.3972 36.9849L45.4858 36.8408C45.6374 36.6011 45.7047 36.3534 45.6631 36.1256C45.9048 36.037 46.1083 35.8675 46.2391 35.6457L46.3278 35.5017L46.1904 35.4131L46.3287 35.4862C46.6774 34.8423 46.5719 34.2738 46.0575 34.0004ZM43.9916 37.9301C43.8378 38.1219 43.5804 38.0732 43.3739 37.9079C43.1855 37.7572 42.905 37.4723 43.108 37.2215L43.3437 36.9259L44.23 37.6349L43.9916 37.9301Z" fill="#143456"/>
<path d="M28.0066 49.2464C22.9149 49.2526 17.9507 47.6537 13.8198 44.6769C9.68892 41.7002 6.60143 37.497 4.99622 32.665L5.5355 32.4877C7.10869 37.2037 10.1258 41.3052 14.1594 44.2113C18.1931 47.1174 23.0389 48.6807 28.0103 48.6798C32.9818 48.6789 37.827 47.1139 41.8597 44.2064C45.8923 41.2989 48.9079 37.1963 50.4794 32.4797L51.0187 32.657C49.415 37.491 46.3279 41.6962 42.1965 44.6746C38.065 47.6529 33.0996 49.2527 28.0066 49.2464Z" fill="#CCA055"/>
<path d="M50.8218 18.6425C47.9858 8.44437 38.6043 1.32195 28.0069 1.32195C17.4777 1.32195 8.1104 8.38632 5.23006 18.5012L4.68634 18.3456C7.63625 7.9875 17.2269 0.753418 28.0082 0.753418C38.86 0.753418 48.4666 8.04688 51.3709 18.4901L50.8218 18.6425Z" fill="#CCA055"/>
<path d="M28.0067 41.4067C18.9598 41.4067 11.5994 34.0468 11.5994 24.9998C11.5994 15.9529 18.9598 8.59253 28.0067 8.59253C37.0536 8.59253 44.414 15.9529 44.414 24.9998C44.414 34.0468 37.0536 41.4067 28.0067 41.4067ZM28.0067 9.16062C19.2731 9.16062 12.168 16.2662 12.168 24.9998C12.168 33.7335 19.2731 40.8386 28.0067 40.8386C36.7404 40.8386 43.8455 33.7344 43.8455 24.9998C43.8455 16.2653 36.7404 9.16062 28.0067 9.16062Z" fill="#CCA055"/>
<path d="M53.8069 25.7367L44.226 25.7195C44.1507 25.7195 44.0784 25.6895 44.0252 25.6363C43.9719 25.583 43.942 25.5107 43.942 25.4354C43.942 25.3601 43.9719 25.2878 44.0252 25.2346C44.0784 25.1813 44.1507 25.1514 44.226 25.1514L53.8069 25.1686C53.8822 25.1686 53.9545 25.1986 54.0077 25.2518C54.061 25.3051 54.0909 25.3774 54.0909 25.4527C54.0909 25.528 54.061 25.6003 54.0077 25.6535C53.9545 25.7068 53.8822 25.7367 53.8069 25.7367Z" fill="#CCA055"/>
<path d="M53.3686 26.86H53.3598C51.9546 26.8552 50.8521 25.6858 50.806 25.6361C50.7567 25.5835 50.7292 25.5141 50.7292 25.442C50.7292 25.3699 50.7567 25.3005 50.806 25.2479C50.8503 25.1983 51.9581 24.0417 53.3598 24.0417H53.3686C54.7742 24.0466 55.8763 25.2156 55.9228 25.2652C55.9721 25.3179 55.9995 25.3872 55.9995 25.4593C55.9995 25.5314 55.9721 25.6008 55.9228 25.6534C55.8763 25.703 54.7702 26.86 53.3686 26.86ZM51.4295 25.442C51.7773 25.7429 52.5218 26.2871 53.362 26.2897H53.3686C54.2106 26.2897 54.9524 25.754 55.3002 25.4562C54.9524 25.1549 54.2079 24.6112 53.3677 24.6081H53.3611C52.52 24.6098 51.7778 25.1456 51.4295 25.4438V25.442Z" fill="#CCA055"/>
<path d="M48.2216 25.6697C48.165 25.6698 48.1097 25.6532 48.0626 25.6218C48.0156 25.5903 47.979 25.5456 47.9575 25.4933C47.936 25.441 47.9306 25.3834 47.942 25.328C47.9533 25.2726 47.9809 25.2219 48.0213 25.1822L50.2015 23.0171C50.2271 22.9873 50.2586 22.9632 50.294 22.9462C50.3295 22.9292 50.368 22.9197 50.4073 22.9184C50.4465 22.917 50.4856 22.9238 50.5221 22.9383C50.5586 22.9528 50.5917 22.9747 50.6194 23.0027C50.647 23.0306 50.6685 23.0639 50.6826 23.1006C50.6967 23.1372 50.7031 23.1764 50.7013 23.2157C50.6995 23.2549 50.6896 23.2933 50.6722 23.3286C50.6548 23.3638 50.6304 23.395 50.6003 23.4203L48.4228 25.5855C48.3965 25.6122 48.3652 25.6334 48.3307 25.6478C48.2961 25.6623 48.259 25.6697 48.2216 25.6697Z" fill="#CCA055"/>
<path d="M49.0116 24.9246C48.9832 24.9246 48.9673 24.9246 48.9602 24.9246C48.8887 24.9215 48.821 24.8916 48.7706 24.8407C48.7202 24.7899 48.6909 24.7219 48.6886 24.6503C48.6886 24.5998 48.6606 23.4065 49.4042 22.6673C50.1478 21.9282 51.342 21.9636 51.3925 21.965C51.4646 21.9675 51.533 21.9974 51.5838 22.0485C51.6347 22.0996 51.6642 22.1681 51.6664 22.2402C51.6664 22.2907 51.6943 23.4845 50.9498 24.2232C50.2838 24.8839 49.2544 24.9246 49.0116 24.9246ZM51.0814 22.5455C50.7425 22.5805 50.181 22.6952 49.8048 23.0684C49.4286 23.4415 49.3107 24.0025 49.273 24.3415C49.612 24.3065 50.173 24.1917 50.5488 23.8181C50.9237 23.445 51.0425 22.8845 51.0814 22.5455Z" fill="#CCA055"/>
<path d="M50.4024 27.9658C50.3651 27.9659 50.3282 27.9586 50.2938 27.9444C50.2593 27.9302 50.228 27.9093 50.2017 27.883L48.0215 25.7178C47.9729 25.664 47.9468 25.5936 47.9485 25.5211C47.9502 25.4486 47.9795 25.3795 48.0305 25.328C48.0815 25.2764 48.1503 25.2463 48.2227 25.2438C48.2952 25.2413 48.3659 25.2667 48.4203 25.3146L50.6009 27.4797C50.6413 27.5194 50.6689 27.5701 50.6802 27.6255C50.6916 27.681 50.6862 27.7385 50.6647 27.7908C50.6432 27.8431 50.6066 27.8879 50.5596 27.9193C50.5125 27.9507 50.4572 27.9674 50.4006 27.9672L50.4024 27.9658Z" fill="#CCA055"/>
<path d="M51.3401 28.9373C51.0964 28.9373 50.0697 28.8965 49.4028 28.2345C48.6592 27.4954 48.6858 26.302 48.6871 26.2515C48.6892 26.1794 48.7186 26.1109 48.7694 26.0597C48.8201 26.0085 48.8885 25.9785 48.9605 25.9759C49.0119 25.9759 50.2048 25.9395 50.9484 26.6782C51.6929 27.4174 51.6663 28.6107 51.6649 28.6612C51.6627 28.7333 51.6332 28.8019 51.5824 28.8531C51.5315 28.9043 51.4632 28.9342 51.3911 28.9369L51.3401 28.9373ZM49.272 26.5586C49.3093 26.8971 49.4276 27.4581 49.8038 27.8313C50.18 28.2044 50.7423 28.3187 51.08 28.355C51.0428 28.0165 50.9245 27.4555 50.5482 27.0815C50.172 26.7084 49.611 26.5936 49.272 26.5586Z" fill="#CCA055"/>
<path d="M45.3474 25.6833C45.2908 25.6837 45.2353 25.6672 45.1881 25.6358C45.1409 25.6044 45.1042 25.5597 45.0827 25.5073C45.0611 25.4548 45.0558 25.3972 45.0672 25.3417C45.0787 25.2862 45.1065 25.2354 45.1471 25.1959L46.8399 23.5151C46.8656 23.486 46.8971 23.4624 46.9323 23.4459C46.9676 23.4295 47.0058 23.4204 47.0447 23.4193C47.0835 23.4182 47.1222 23.4251 47.1583 23.4396C47.1944 23.454 47.2272 23.4758 47.2545 23.5034C47.2819 23.531 47.3033 23.564 47.3174 23.6002C47.3315 23.6365 47.338 23.6752 47.3365 23.7141C47.335 23.7529 47.3256 23.7911 47.3088 23.8261C47.2919 23.8612 47.2681 23.8924 47.2387 23.9179L45.5464 25.5991C45.4937 25.6522 45.4222 25.6825 45.3474 25.6833Z" fill="#CCA055"/>
<path d="M45.9596 25.106C45.9374 25.106 45.9232 25.106 45.9188 25.106C45.8468 25.1034 45.7785 25.0735 45.7278 25.0224C45.677 24.9713 45.6476 24.9028 45.6454 24.8309C45.6454 24.7905 45.6228 23.8374 46.2214 23.244C46.8201 22.6507 47.7697 22.6786 47.8123 22.6804C47.8842 22.6833 47.9524 22.7134 48.0031 22.7645C48.0538 22.8156 48.0833 22.884 48.0857 22.956C48.0857 22.9963 48.1083 23.9495 47.5096 24.5424C46.9743 25.0733 46.1528 25.106 45.9596 25.106ZM47.4928 23.268C47.2371 23.3034 46.8724 23.3973 46.6203 23.6464C46.3681 23.8954 46.2737 24.261 46.2365 24.5167C46.4918 24.4817 46.8569 24.3877 47.1086 24.1383C47.3603 23.8888 47.4556 23.5241 47.4923 23.268H47.4928Z" fill="#CCA055"/>
<path d="M47.0405 27.4661C46.9655 27.4663 46.8934 27.4366 46.8402 27.3837L45.1475 25.7029C45.1197 25.6769 45.0974 25.6455 45.0819 25.6107C45.0664 25.5759 45.0581 25.5384 45.0574 25.5003C45.0567 25.4622 45.0637 25.4244 45.0779 25.389C45.0921 25.3537 45.1133 25.3216 45.1401 25.2946C45.167 25.2676 45.199 25.2462 45.2343 25.2318C45.2695 25.2174 45.3073 25.2102 45.3454 25.2107C45.3835 25.2112 45.4211 25.2193 45.456 25.2346C45.4909 25.2499 45.5223 25.272 45.5485 25.2997L47.2408 26.9805C47.2814 27.02 47.3092 27.0708 47.3207 27.1263C47.3322 27.1818 47.3268 27.2394 47.3053 27.2918C47.2838 27.3442 47.247 27.389 47.1999 27.4204C47.1527 27.4518 47.0972 27.4683 47.0405 27.4679V27.4661Z" fill="#CCA055"/>
<path d="M47.7698 28.2211C47.5766 28.2211 46.7555 28.1883 46.2189 27.6565C45.6215 27.0636 45.6428 26.1104 45.6428 26.0701C45.645 25.9981 45.6745 25.9297 45.7252 25.8786C45.776 25.8275 45.8442 25.7976 45.9162 25.7949C45.9561 25.7949 46.9101 25.7652 47.507 26.3581C48.1039 26.9511 48.0831 27.9047 48.0831 27.9445C48.0809 28.0166 48.0515 28.0851 48.0007 28.1362C47.95 28.1874 47.8817 28.2174 47.8097 28.2202C47.8062 28.2206 47.792 28.2211 47.7698 28.2211ZM46.2361 26.383C46.2729 26.6382 46.3691 27.0033 46.6203 27.2533C46.8716 27.5032 47.2372 27.5958 47.4933 27.6313C47.4565 27.376 47.3604 27.0109 47.1087 26.7614C46.857 26.5119 46.4918 26.4184 46.2361 26.383Z" fill="#CCA055"/>
<path d="M11.8348 25.7487L2.19361 25.7314C2.12016 25.7285 2.05069 25.6973 1.99974 25.6443C1.9488 25.5913 1.92035 25.5206 1.92035 25.4471C1.92035 25.3736 1.9488 25.303 1.99974 25.25C2.05069 25.197 2.12016 25.1657 2.19361 25.1628L11.8348 25.1801C11.9082 25.183 11.9777 25.2142 12.0286 25.2672C12.0796 25.3202 12.108 25.3909 12.108 25.4644C12.108 25.5379 12.0796 25.6086 12.0286 25.6616C11.9777 25.7145 11.9082 25.7458 11.8348 25.7487Z" fill="#CCA055"/>
<path d="M2.63917 26.8583H2.6303C1.2247 26.8535 0.122191 25.6845 0.0761058 25.6344C0.0268533 25.5818 -0.000549316 25.5124 -0.000549316 25.4403C-0.000549316 25.3682 0.0268533 25.2989 0.0761058 25.2462C0.120419 25.197 1.22824 24.04 2.6303 24.04H2.63917C4.04433 24.0449 5.14683 25.2139 5.19336 25.264C5.24252 25.3166 5.26985 25.386 5.26985 25.4581C5.26985 25.5301 5.24252 25.5995 5.19336 25.6521C5.14639 25.7013 4.04034 26.8583 2.63917 26.8583ZM0.700032 25.4403C1.04745 25.7412 1.7919 26.2854 2.63208 26.288C3.48156 26.288 4.21981 25.7527 4.56988 25.4541C4.22158 25.1532 3.47757 24.6095 2.63784 24.6064H2.63119C1.79013 24.6064 1.04745 25.1443 0.700032 25.4421V25.4403Z" fill="#CCA055"/>
<path d="M5.5978 27.9655C5.54124 27.9657 5.48591 27.949 5.43887 27.9176C5.39183 27.8861 5.35522 27.8414 5.33373 27.7891C5.31223 27.7368 5.30682 27.6792 5.31818 27.6238C5.32954 27.5684 5.35716 27.5177 5.39751 27.478L7.5777 25.3129C7.6036 25.2842 7.63508 25.261 7.67023 25.2449C7.70538 25.2288 7.74346 25.22 7.78212 25.2191C7.82079 25.2182 7.85923 25.2252 7.89509 25.2397C7.93095 25.2541 7.96348 25.2758 7.99067 25.3033C8.01787 25.3308 8.03916 25.3636 8.05325 25.3996C8.06734 25.4356 8.07392 25.4741 8.07259 25.5128C8.07127 25.5514 8.06206 25.5894 8.04554 25.6244C8.02902 25.6593 8.00554 25.6906 7.97652 25.7161L5.79633 27.8813C5.74393 27.9345 5.67252 27.9648 5.5978 27.9655Z" fill="#CCA055"/>
<path d="M4.66065 28.9373H4.60969C4.5376 28.9346 4.46922 28.9047 4.41838 28.8535C4.36754 28.8023 4.33803 28.7338 4.33584 28.6617C4.33584 28.6112 4.30747 27.4178 5.05193 26.6787C5.79639 25.9395 6.98929 25.9745 7.03981 25.9763C7.11185 25.979 7.18018 26.0089 7.23095 26.0601C7.28172 26.1113 7.31113 26.1799 7.31322 26.2519C7.31322 26.3025 7.34158 27.4958 6.59712 28.2349C5.93066 28.8965 4.90437 28.9373 4.66065 28.9373ZM6.72873 26.5586C6.38974 26.5936 5.82829 26.7084 5.45208 27.0815C5.07409 27.4572 4.95622 28.0165 4.92032 28.3541C5.25887 28.3196 5.82076 28.2052 6.19742 27.8312C6.57408 27.4572 6.69151 26.8971 6.72873 26.5586Z" fill="#CCA055"/>
<path d="M7.77817 25.6697C7.74097 25.6698 7.70411 25.6625 7.66974 25.6483C7.63536 25.6341 7.60414 25.6132 7.57788 25.5868L5.39768 23.4217C5.34914 23.3678 5.32304 23.2975 5.32472 23.225C5.32641 23.1525 5.35575 23.0834 5.40673 23.0318C5.45772 22.9803 5.52649 22.9502 5.59896 22.9477C5.67143 22.9452 5.7421 22.9705 5.7965 23.0185L7.97846 25.1823C8.01882 25.2219 8.04644 25.2727 8.0578 25.3281C8.06916 25.3835 8.06375 25.441 8.04225 25.4933C8.02075 25.5457 7.98414 25.5904 7.9371 25.6218C7.89007 25.6532 7.83473 25.6699 7.77817 25.6697Z" fill="#CCA055"/>
<path d="M6.99068 24.9249C6.74829 24.9249 5.72112 24.8841 5.05421 24.2216C4.30975 23.4825 4.33678 22.2891 4.33811 22.2386C4.34032 22.1666 4.36984 22.098 4.42069 22.0469C4.47154 21.9958 4.53992 21.966 4.61197 21.9634C4.66204 21.9634 5.85539 21.9267 6.5994 22.6658C7.34341 23.4049 7.31727 24.5983 7.3155 24.6488C7.3133 24.7208 7.28384 24.7892 7.23308 24.8403C7.18232 24.8914 7.11405 24.9213 7.04209 24.924C7.035 24.9244 7.01683 24.9249 6.99068 24.9249ZM4.92305 22.5462C4.95982 22.8843 5.07858 23.4453 5.4548 23.8184C5.83102 24.1919 6.39246 24.3058 6.73145 24.3413C6.69423 24.0027 6.57547 23.4422 6.1997 23.0686C5.82393 22.695 5.25938 22.5807 4.92083 22.5462H4.92305Z" fill="#CCA055"/>
<path d="M8.95958 27.466C8.90296 27.4663 8.84753 27.4497 8.80042 27.4183C8.75331 27.3869 8.71666 27.3421 8.69518 27.2897C8.6737 27.2373 8.66837 27.1797 8.67987 27.1242C8.69137 27.0688 8.71918 27.0181 8.75973 26.9785L10.452 25.2978C10.4779 25.269 10.5094 25.2459 10.5446 25.2297C10.5797 25.2136 10.6178 25.2048 10.6565 25.2039C10.6951 25.203 10.7336 25.21 10.7694 25.2245C10.8053 25.239 10.8378 25.2607 10.865 25.2882C10.8922 25.3157 10.9135 25.3484 10.9276 25.3844C10.9417 25.4205 10.9483 25.459 10.9469 25.4976C10.9456 25.5363 10.9364 25.5743 10.9199 25.6092C10.9034 25.6442 10.8799 25.6754 10.8509 25.701L9.16165 27.3836C9.13509 27.41 9.10356 27.4309 9.06887 27.445C9.03419 27.4592 8.99704 27.4663 8.95958 27.466Z" fill="#CCA055"/>
<path d="M8.23116 28.221C8.209 28.221 8.19482 28.221 8.19083 28.221C8.11871 28.2184 8.05027 28.1885 7.9994 28.1373C7.94854 28.0861 7.91907 28.0175 7.91698 27.9453C7.91698 27.9054 7.89482 26.9523 8.49304 26.3589C9.08994 25.766 10.044 25.7935 10.0834 25.7957C10.1554 25.7984 10.2237 25.8283 10.2744 25.8794C10.3252 25.9304 10.3546 25.9989 10.3568 26.0709C10.3568 26.1112 10.3794 27.0644 9.78078 27.6573C9.24503 28.1882 8.42347 28.221 8.23116 28.221ZM8.89186 26.7613C8.64105 27.0108 8.54445 27.3764 8.50767 27.6316C8.76335 27.5966 9.12805 27.5026 9.38063 27.2532C9.63322 27.0037 9.72804 26.6385 9.76482 26.3829C9.5087 26.4183 9.14267 26.5114 8.89098 26.7613H8.89186Z" fill="#CCA055"/>
<path d="M10.6523 25.683C10.5773 25.6832 10.5052 25.6535 10.452 25.6006L8.75972 23.9194C8.73033 23.8939 8.70648 23.8627 8.68965 23.8276C8.67282 23.7926 8.66337 23.7544 8.66189 23.7155C8.6604 23.6767 8.66692 23.6379 8.68102 23.6017C8.69512 23.5654 8.71652 23.5325 8.74388 23.5048C8.77124 23.4772 8.80399 23.4555 8.84009 23.441C8.87619 23.4266 8.91487 23.4197 8.95375 23.4208C8.99262 23.4219 9.03086 23.4309 9.06609 23.4474C9.10131 23.4639 9.13278 23.4874 9.15854 23.5166L10.8513 25.1974C10.8919 25.2369 10.9197 25.2877 10.9312 25.3432C10.9427 25.3987 10.9373 25.4563 10.9158 25.5087C10.8942 25.5611 10.8575 25.6059 10.8103 25.6373C10.7631 25.6687 10.7077 25.6852 10.651 25.6848L10.6523 25.683Z" fill="#CCA055"/>
<path d="M10.0406 25.1058C9.84736 25.1058 9.02624 25.073 8.48961 24.5412C7.89271 23.9483 7.91354 22.9951 7.91354 22.9548C7.91574 22.8827 7.94524 22.8141 7.99608 22.763C8.04693 22.7118 8.11531 22.6819 8.18739 22.6792C8.22816 22.6792 9.18045 22.6499 9.77779 23.2429C10.3751 23.8358 10.3539 24.7894 10.3539 24.8297C10.3517 24.9017 10.3222 24.9701 10.2714 25.0212C10.2207 25.0723 10.1524 25.1022 10.0804 25.1049C10.0769 25.1053 10.0632 25.1058 10.0406 25.1058ZM8.89108 24.138C9.14234 24.3875 9.50881 24.4814 9.76405 24.5164C9.72727 24.2612 9.63111 23.896 9.37985 23.6461C9.1286 23.3962 8.76257 23.3031 8.50689 23.2677C8.54367 23.5229 8.63983 23.888 8.89108 24.138Z" fill="#CCA055"/>
</g>
<defs>
<clipPath id="clip0_12859_2863">
<rect width="56" height="48.493" fill="white" transform="translate(0 0.753418)"/>
</clipPath>
</defs>
</svg>
